<svg width="192" height="64" viewBox="0 0 192 64" fill="none" xmlns="http://www.w3.org/2000/svg">
<rect x="0.311688" y="0.311688" width="191.377" height="62.961" rx="5.92208" fill="white"/>
<rect x="0.311688" y="0.311688" width="191.377" height="62.961" rx="5.92208" stroke="#253746" stroke-width="0.623377"/>
<path d="M30.5735 28.864V32.7311C30.5735 34.409 30.3944 35.8566 30.0363 37.074C29.6783 38.2812 29.1616 39.2736 28.4864 40.0511C27.8214 40.8184 27.0286 41.3862 26.1078 41.7545C25.1871 42.1228 24.164 42.3069 23.0387 42.3069C22.1384 42.3069 21.2995 42.1944 20.522 41.9693C19.7444 41.734 19.0436 41.3708 18.4196 40.8798C17.8058 40.3887 17.2738 39.7697 16.8236 39.0229C16.3837 38.2659 16.0461 37.3656 15.8108 36.3221C15.5755 35.2785 15.4578 34.0816 15.4578 32.7311V28.864C15.4578 27.1862 15.6369 25.7488 15.995 24.5518C16.3633 23.3446 16.8799 22.3574 17.5449 21.5901C18.2201 20.8228 19.0181 20.2601 19.9388 19.9021C20.8596 19.5338 21.8826 19.3496 23.008 19.3496C23.9083 19.3496 24.7421 19.4673 25.5093 19.7026C26.2869 19.9276 26.9877 20.2806 27.6117 20.7614C28.2358 21.2423 28.7678 21.8612 29.2077 22.6183C29.6476 23.3651 29.9852 24.2603 30.2205 25.3038C30.4558 26.3371 30.5735 27.5238 30.5735 28.864ZM26.1385 33.3143V28.2655C26.1385 27.4573 26.0925 26.7514 26.0004 26.1478C25.9186 25.5442 25.7907 25.0327 25.6168 24.6132C25.4428 24.1835 25.228 23.8357 24.9722 23.5697C24.7165 23.3037 24.4249 23.1093 24.0975 22.9866C23.7702 22.8638 23.407 22.8024 23.008 22.8024C22.5067 22.8024 22.0617 22.8996 21.6729 23.094C21.2944 23.2884 20.9721 23.6004 20.7061 24.0301C20.4401 24.4495 20.2355 25.0122 20.0923 25.7181C19.9593 26.4138 19.8928 27.2629 19.8928 28.2655V33.3143C19.8928 34.1225 19.9337 34.8335 20.0155 35.4473C20.1076 36.0612 20.2406 36.5881 20.4145 37.028C20.5987 37.4576 20.8135 37.8106 21.0591 38.0868C21.3148 38.3528 21.6064 38.5472 21.9338 38.67C22.2714 38.7927 22.6397 38.8541 23.0387 38.8541C23.5297 38.8541 23.9645 38.7569 24.3431 38.5625C24.7318 38.3579 25.0592 38.0408 25.3252 37.6111C25.6014 37.1712 25.806 36.5983 25.939 35.8924C26.072 35.1865 26.1385 34.3271 26.1385 33.3143ZM33.5198 25.135V23.9534C33.5198 23.1042 33.704 22.3318 34.0723 21.6361C34.4406 20.9405 34.9828 20.3829 35.6989 19.9634C36.4151 19.544 37.2949 19.3343 38.3384 19.3343C39.4126 19.3343 40.3078 19.544 41.0239 19.9634C41.7503 20.3829 42.2925 20.9405 42.6506 21.6361C43.0189 22.3318 43.203 23.1042 43.203 23.9534V25.135C43.203 25.9637 43.0189 26.7258 42.6506 27.4215C42.2925 28.1172 41.7554 28.6747 41.0393 29.0942C40.3231 29.5136 39.4382 29.7234 38.3845 29.7234C37.3205 29.7234 36.4253 29.5136 35.6989 29.0942C34.9828 28.6747 34.4406 28.1172 34.0723 27.4215C33.704 26.7258 33.5198 25.9637 33.5198 25.135ZM36.4509 23.9534V25.135C36.4509 25.493 36.5174 25.8358 36.6504 26.1631C36.7936 26.4803 37.0085 26.7412 37.2949 26.9458C37.5916 27.1402 37.9497 27.2374 38.3691 27.2374C38.809 27.2374 39.1671 27.1402 39.4433 26.9458C39.7195 26.7412 39.9242 26.4803 40.0571 26.1631C40.1901 25.8358 40.2566 25.493 40.2566 25.135V23.9534C40.2566 23.5748 40.185 23.227 40.0418 22.9098C39.9088 22.5825 39.6991 22.3216 39.4126 22.1272C39.1364 21.9226 38.7783 21.8203 38.3384 21.8203C37.9292 21.8203 37.5814 21.9226 37.2949 22.1272C37.0085 22.3216 36.7936 22.5825 36.6504 22.9098C36.5174 23.227 36.4509 23.5748 36.4509 23.9534ZM44.2005 37.7032V36.5216C44.2005 35.6827 44.3847 34.9154 44.753 34.2197C45.1315 33.524 45.6788 32.9664 46.395 32.547C47.1213 32.1275 48.0114 31.9178 49.0651 31.9178C50.1291 31.9178 51.0192 32.1275 51.7353 32.547C52.4514 32.9664 52.9936 33.524 53.3619 34.2197C53.7302 34.9154 53.9144 35.6827 53.9144 36.5216V37.7032C53.9144 38.5421 53.7302 39.3094 53.3619 40.005C53.0039 40.7007 52.4668 41.2583 51.7506 41.6777C51.0345 42.0972 50.1496 42.3069 49.0958 42.3069C48.0318 42.3069 47.1367 42.0972 46.4103 41.6777C45.6839 41.2583 45.1315 40.7007 44.753 40.005C44.3847 39.3094 44.2005 38.5421 44.2005 37.7032ZM47.1469 36.5216V37.7032C47.1469 38.0715 47.2287 38.4193 47.3924 38.7467C47.5561 39.0741 47.7812 39.3349 48.0676 39.5293C48.3643 39.7237 48.7071 39.8209 49.0958 39.8209C49.5869 39.8209 49.9705 39.7237 50.2468 39.5293C50.523 39.3349 50.7122 39.0741 50.8145 38.7467C50.9271 38.4193 50.9833 38.0715 50.9833 37.7032V36.5216C50.9833 36.1533 50.9117 35.8105 50.7685 35.4934C50.6253 35.166 50.4104 34.9051 50.124 34.7108C49.8478 34.5061 49.4948 34.4038 49.0651 34.4038C48.6354 34.4038 48.2774 34.5061 47.9909 34.7108C47.7147 34.9051 47.505 35.166 47.3617 35.4934C47.2185 35.8105 47.1469 36.1533 47.1469 36.5216ZM50.1547 22.8485L39.2438 40.312L37.0954 39.1764L48.0063 21.7129L50.1547 22.8485Z" fill="#FCB533"/>
<path d="M124.906 35.7139H127.353V48.7618H124.906V35.7139Z" fill="#FCB533"/>
<path d="M129.437 36.9822C129.437 36.1667 130.071 35.5325 130.977 35.5325C131.883 35.5325 132.517 36.1667 132.517 36.9822C132.517 37.7977 131.883 38.432 130.977 38.432C130.071 38.432 129.437 37.7977 129.437 36.9822ZM129.708 39.6099H132.155V48.7616H129.708V39.6099Z" fill="#FCB533"/>
<path d="M144.568 44.1406C144.568 46.9496 142.756 48.943 140.128 48.943C138.769 48.943 137.682 48.49 136.957 47.5838L136.776 48.6712H134.601V35.7139H137.048V40.5162C137.772 39.7913 138.86 39.3383 140.038 39.3383C142.665 39.3383 144.568 41.3317 144.568 44.1406ZM142.031 44.1406C142.031 42.6003 141.034 41.5129 139.494 41.5129C138.044 41.5129 136.957 42.6003 136.957 44.1406C136.957 45.681 137.954 46.7684 139.494 46.7684C141.034 46.7684 142.031 45.681 142.031 44.1406Z" fill="#FCB533"/>
<path d="M155.351 44.956H148.283C148.465 46.1339 149.461 46.8588 150.911 46.8588C151.908 46.8588 152.905 46.4964 153.448 45.9527L154.807 47.4025C153.811 48.3992 152.361 48.9429 150.73 48.9429C147.649 48.9429 145.656 47.04 145.656 44.1405C145.656 41.241 147.649 39.3381 150.458 39.3381C153.992 39.3381 155.804 41.6034 155.351 44.956ZM148.374 43.325H153.086C152.995 42.1471 152.089 41.4222 150.73 41.4222C149.371 41.4222 148.555 42.1471 148.374 43.325Z" fill="#FCB533"/>
<path d="M164.503 40.2442L163.416 42.147C162.872 41.7845 162.419 41.6939 161.966 41.6939C160.607 41.6939 159.701 42.6 159.701 44.3216V48.7616H157.254V39.6099H159.429L159.61 40.7878C160.335 39.8817 161.151 39.4287 162.238 39.4287C162.963 39.3381 163.869 39.7005 164.503 40.2442Z" fill="#FCB533"/>
<path d="M86.3058 48.671V43.7781C86.3058 42.6001 85.6715 41.5128 84.403 41.5128C83.225 41.5128 82.5001 42.6001 82.5001 43.7781V48.671H80.2349V39.5194H82.3189L82.5001 40.6067C82.9532 39.7006 84.0405 39.3381 84.9466 39.3381C86.0339 39.3381 87.1213 39.7912 87.6649 41.0597C88.4804 39.7912 89.5678 39.4287 90.7457 39.4287C93.3734 39.4287 94.6419 41.0597 94.6419 43.7781V48.671H92.3767V43.7781C92.3767 42.6001 91.833 41.5128 90.6551 41.5128C89.4771 41.5128 88.6616 42.6001 88.6616 43.7781V48.671H86.3058Z" fill="#243746"/>
<path d="M98.4477 44.0499C98.4477 45.7715 99.6256 46.8588 101.166 46.8588C104.7 46.8588 104.7 41.3316 101.166 41.3316C99.6256 41.3316 98.4477 42.3283 98.4477 44.0499ZM103.884 39.5194H106.059V48.6711H103.884L103.794 47.3119C103.25 48.3992 101.891 48.9429 100.804 48.9429C98.0852 48.9429 96.0918 47.3119 96.0918 44.0499C96.0918 40.8785 98.1758 39.2476 100.894 39.2476C102.072 39.2476 103.25 39.7912 103.794 40.6973L103.884 39.5194Z" fill="#243746"/>
<path d="M108.143 39.5195V48.6712H110.408V39.5195H108.143ZM110.589 36.8918C110.589 38.6134 107.961 38.6134 107.961 36.8918C107.961 35.1702 110.589 35.1702 110.589 36.8918Z" fill="#243746"/>
<path d="M114.848 44.1406C114.848 45.7716 116.026 46.859 117.476 46.859C118.926 46.859 120.103 45.7716 120.103 44.1406C120.103 42.5097 118.926 41.5129 117.476 41.5129C116.117 41.5129 114.848 42.5097 114.848 44.1406ZM114.757 35.7139V40.7881C115.301 39.882 116.751 39.3383 117.748 39.3383C120.375 39.3383 122.369 40.9693 122.369 44.1406C122.369 47.1308 120.375 48.943 117.657 48.943C116.57 48.943 115.392 48.5806 114.667 47.4932L114.576 48.6712H112.492V35.7139H114.757Z" fill="#243746"/>
<path d="M77.0635 38.704C75.8855 36.8918 73.8015 35.6233 71.4456 35.6233C67.7306 35.6233 64.8311 38.6134 64.8311 42.2379C64.8311 42.6909 64.9217 43.144 64.9217 43.597C70.6301 40.0632 75.1607 38.9759 77.0635 38.704Z" fill="#3BBFAD"/>
<path d="M77.2449 38.8853C71.6271 41.3317 68.0026 45.4998 66.8247 46.9496C68.0026 48.1275 69.7242 48.943 71.5365 48.943C75.2515 48.943 78.151 45.9529 78.151 42.3285C78.151 41.0599 77.7886 39.882 77.2449 38.8853Z" fill="#3BBFAD"/>
<path d="M69.9212 20.0068V30.4675H66.6534V20.0068H69.9212ZM69.2251 15.8206L72.3962 18.5373V18.6629H69.8342L68.2873 17.3481L66.7598 18.6629H64.2461V18.4986L67.3592 15.8206H69.2251ZM75.2192 22.2401V30.4675H71.9611V20.0068H75.0162L75.2192 22.2401ZM74.8325 24.8794L74.0687 24.8988C74.0687 24.0996 74.1654 23.3874 74.3588 22.7622C74.5521 22.1305 74.8261 21.5956 75.1806 21.1573C75.5351 20.719 75.9572 20.3871 76.4471 20.1615C76.9434 19.9294 77.4944 19.8134 78.1003 19.8134C78.5837 19.8134 79.0252 19.8843 79.4248 20.0261C79.8309 20.1679 80.1789 20.3967 80.4689 20.7125C80.7654 21.0284 80.991 21.4473 81.1457 21.9694C81.3068 22.485 81.3874 23.1231 81.3874 23.8836V30.4675H78.11V23.874C78.11 23.455 78.052 23.136 77.9359 22.9168C77.8199 22.6913 77.6523 22.5366 77.4332 22.4528C77.2141 22.369 76.9466 22.3271 76.6308 22.3271C76.2956 22.3271 76.012 22.3916 75.78 22.5205C75.5479 22.6494 75.361 22.8298 75.2192 23.0619C75.0839 23.2875 74.984 23.5549 74.9195 23.8643C74.8615 24.1737 74.8325 24.5121 74.8325 24.8794ZM95.2899 16.391V30.4675H92.0318V20.0648L88.8221 21.0026V18.5276L94.9902 16.391H95.2899ZM109.386 27.9539V30.4675H99.5632V28.3406L104.088 23.5839C104.487 23.1263 104.81 22.717 105.055 22.3561C105.3 21.9887 105.477 21.6568 105.586 21.3603C105.702 21.0638 105.76 20.7963 105.76 20.5579C105.76 20.1518 105.699 19.8134 105.577 19.5427C105.461 19.2656 105.287 19.0561 105.055 18.9143C104.829 18.7725 104.549 18.7016 104.213 18.7016C103.878 18.7016 103.585 18.7983 103.334 18.9917C103.082 19.185 102.886 19.4493 102.744 19.7844C102.609 20.1196 102.541 20.4966 102.541 20.9156H99.2731C99.2731 20.0519 99.4826 19.2624 99.9016 18.5469C100.327 17.8315 100.917 17.2611 101.671 16.8357C102.425 16.4039 103.298 16.1879 104.291 16.1879C105.329 16.1879 106.199 16.3491 106.901 16.6713C107.604 16.9936 108.132 17.4609 108.487 18.0732C108.848 18.6791 109.028 19.4106 109.028 20.2678C109.028 20.7577 108.951 21.2282 108.796 21.6793C108.641 22.1305 108.419 22.5785 108.129 23.0232C107.839 23.4615 107.484 23.9126 107.066 24.3767C106.653 24.8408 106.183 25.3338 105.654 25.8559L103.836 27.9539H109.386ZM119.315 22.5978V30.4675H116.057V20.0068H119.102L119.315 22.5978ZM122.409 19.9294L122.351 22.9555C122.222 22.9426 122.048 22.9265 121.829 22.9072C121.609 22.8878 121.426 22.8782 121.277 22.8782C120.897 22.8782 120.568 22.9233 120.291 23.0135C120.021 23.0973 119.795 23.2262 119.615 23.4002C119.441 23.5678 119.312 23.7805 119.228 24.0383C119.15 24.2961 119.115 24.5958 119.121 24.9375L118.532 24.5507C118.532 23.8482 118.599 23.2101 118.735 22.6365C118.877 22.0564 119.076 21.5569 119.334 21.1379C119.592 20.7125 119.905 20.3871 120.272 20.1615C120.639 19.9294 121.052 19.8134 121.509 19.8134C121.671 19.8134 121.829 19.8231 121.983 19.8424C122.144 19.8618 122.286 19.8908 122.409 19.9294ZM128.673 27.8378V23.5259C128.673 23.2294 128.632 22.9749 128.548 22.7622C128.464 22.5495 128.332 22.3851 128.151 22.2691C127.971 22.1466 127.729 22.0854 127.426 22.0854C127.181 22.0854 126.972 22.1273 126.798 22.2111C126.624 22.2949 126.492 22.4206 126.401 22.5881C126.311 22.7557 126.266 22.9684 126.266 23.2262H123.008C123.008 22.7428 123.114 22.2949 123.327 21.8824C123.546 21.4634 123.856 21.0993 124.255 20.7899C124.661 20.4805 125.145 20.242 125.705 20.0745C126.273 19.9004 126.904 19.8134 127.6 19.8134C128.432 19.8134 129.173 19.952 129.824 20.2292C130.481 20.5063 131 20.922 131.38 21.4763C131.761 22.0242 131.951 22.7138 131.951 23.5453V27.8282C131.951 28.5114 131.99 29.0302 132.067 29.3847C132.144 29.7328 132.254 30.0389 132.396 30.3032V30.4675H129.128C128.973 30.1453 128.857 29.7521 128.78 29.288C128.709 28.8175 128.673 28.3341 128.673 27.8378ZM129.07 24.077L129.089 25.8172H127.649C127.346 25.8172 127.088 25.8591 126.875 25.9429C126.669 26.0267 126.501 26.1427 126.372 26.291C126.25 26.4328 126.16 26.5939 126.102 26.7744C126.05 26.9548 126.024 27.145 126.024 27.3448C126.024 27.5381 126.07 27.7122 126.16 27.8668C126.256 28.0151 126.385 28.1311 126.546 28.2149C126.708 28.2987 126.888 28.3406 127.088 28.3406C127.449 28.3406 127.755 28.2729 128.006 28.1375C128.264 27.9958 128.461 27.825 128.596 27.6251C128.731 27.4253 128.799 27.2384 128.799 27.0644L129.515 28.3986C129.386 28.6564 129.237 28.9174 129.07 29.1817C128.909 29.4459 128.706 29.6909 128.461 29.9165C128.222 30.1356 127.929 30.3161 127.581 30.4579C127.233 30.5932 126.811 30.6609 126.314 30.6609C125.67 30.6609 125.077 30.5288 124.536 30.2645C124.001 30.0002 123.572 29.6329 123.25 29.1624C122.927 28.6854 122.766 28.1375 122.766 27.5188C122.766 26.9774 122.863 26.494 123.056 26.0686C123.256 25.6432 123.556 25.2823 123.955 24.9858C124.355 24.6893 124.864 24.4637 125.483 24.309C126.102 24.1543 126.83 24.077 127.668 24.077H129.07ZM139.27 20.0068V22.2691H132.966V20.0068H139.27ZM134.291 17.4061H137.549V27.0547C137.549 27.3319 137.581 27.5478 137.645 27.7025C137.71 27.8507 137.819 27.9571 137.974 28.0215C138.135 28.0795 138.348 28.1085 138.612 28.1085C138.799 28.1085 138.954 28.1053 139.076 28.0989C139.199 28.086 139.315 28.0699 139.424 28.0505V30.3805C139.147 30.4708 138.857 30.5384 138.554 30.5835C138.251 30.6351 137.929 30.6609 137.587 30.6609C136.891 30.6609 136.295 30.5513 135.799 30.3322C135.309 30.113 134.935 29.7682 134.677 29.2977C134.419 28.8272 134.291 28.2149 134.291 27.4608V17.4061ZM145.631 30.6609C144.78 30.6609 144.02 30.5288 143.349 30.2645C142.679 29.9938 142.112 29.6232 141.648 29.1527C141.19 28.6822 140.839 28.1408 140.594 27.5285C140.356 26.9162 140.236 26.2684 140.236 25.5852V25.2178C140.236 24.4508 140.343 23.7418 140.555 23.0909C140.768 22.4334 141.084 21.8598 141.503 21.37C141.922 20.8801 142.447 20.4999 143.079 20.2292C143.71 19.952 144.445 19.8134 145.283 19.8134C146.024 19.8134 146.688 19.9327 147.275 20.1711C147.861 20.4096 148.357 20.7512 148.763 21.1959C149.176 21.6407 149.489 22.1789 149.701 22.8105C149.92 23.4421 150.03 24.1511 150.03 24.9375V26.262H141.483V24.222H146.849V23.9707C146.856 23.6226 146.794 23.3261 146.666 23.0812C146.543 22.8363 146.363 22.6494 146.124 22.5205C145.886 22.3916 145.596 22.3271 145.254 22.3271C144.9 22.3271 144.606 22.4044 144.374 22.5591C144.149 22.7138 143.971 22.9265 143.842 23.1972C143.72 23.4615 143.633 23.7676 143.581 24.1157C143.53 24.4637 143.504 24.8311 143.504 25.2178V25.5852C143.504 25.9719 143.556 26.3232 143.659 26.639C143.768 26.9548 143.923 27.2255 144.123 27.4511C144.329 27.6703 144.574 27.8411 144.858 27.9635C145.148 28.086 145.476 28.1472 145.844 28.1472C146.288 28.1472 146.727 28.0634 147.159 27.8958C147.59 27.7283 147.961 27.4511 148.27 27.0644L149.75 28.824C149.537 29.1269 149.234 29.4202 148.841 29.7038C148.454 29.9874 147.99 30.2194 147.449 30.3999C146.907 30.5739 146.301 30.6609 145.631 30.6609ZM160.703 28.1472C161.006 28.1472 161.264 28.0924 161.477 27.9829C161.696 27.8668 161.86 27.7057 161.97 27.4995C162.086 27.2868 162.141 27.0322 162.134 26.7357H165.199C165.205 27.522 165.012 28.2117 164.619 28.8046C164.232 29.3912 163.704 29.8488 163.033 30.1775C162.37 30.4998 161.619 30.6609 160.781 30.6609C159.962 30.6609 159.247 30.5288 158.634 30.2645C158.022 29.9938 157.51 29.62 157.097 29.143C156.691 28.6596 156.385 28.0957 156.179 27.4511C155.979 26.8066 155.879 26.1073 155.879 25.3532V25.1308C155.879 24.3767 155.979 23.6774 156.179 23.0329C156.385 22.3819 156.691 21.8179 157.097 21.341C157.51 20.8576 158.019 20.4837 158.625 20.2195C159.237 19.9488 159.949 19.8134 160.761 19.8134C161.632 19.8134 162.399 19.9778 163.062 20.3065C163.733 20.6352 164.258 21.1122 164.638 21.7374C165.019 22.3625 165.205 23.1199 165.199 24.0093H162.134C162.141 23.6935 162.092 23.4099 161.989 23.1585C161.886 22.9072 161.725 22.7074 161.506 22.5591C161.293 22.4044 161.019 22.3271 160.684 22.3271C160.349 22.3271 160.078 22.4012 159.872 22.5495C159.666 22.6977 159.508 22.904 159.398 23.1682C159.295 23.426 159.224 23.7225 159.186 24.0577C159.153 24.3928 159.137 24.7505 159.137 25.1308V25.3532C159.137 25.7399 159.153 26.1041 159.186 26.4457C159.224 26.7808 159.298 27.0773 159.408 27.3351C159.517 27.5865 159.675 27.7863 159.882 27.9345C160.088 28.0763 160.362 28.1472 160.703 28.1472ZM172.701 27.9249V20.0068H175.969V30.4675H172.914L172.701 27.9249ZM173.011 25.7979L173.862 25.7786C173.862 26.4811 173.778 27.1321 173.61 27.7315C173.443 28.3245 173.194 28.8401 172.866 29.2784C172.543 29.7167 172.144 30.0583 171.667 30.3032C171.196 30.5417 170.652 30.6609 170.033 30.6609C169.517 30.6609 169.044 30.59 168.612 30.4482C168.186 30.3 167.819 30.0711 167.51 29.7618C167.2 29.4459 166.959 29.0431 166.785 28.5533C166.617 28.057 166.533 27.464 166.533 26.7744V20.0068H169.791V26.7937C169.791 27.0257 169.82 27.2255 169.878 27.3931C169.936 27.5607 170.02 27.7025 170.13 27.8185C170.239 27.9281 170.375 28.0119 170.536 28.0699C170.703 28.1214 170.893 28.1472 171.106 28.1472C171.596 28.1472 171.979 28.0441 172.257 27.8378C172.534 27.6316 172.727 27.3512 172.837 26.9967C172.953 26.6422 173.011 26.2426 173.011 25.7979Z" fill="#253746"/>
</svg>
