<svg width="192" height="64" viewBox="0 0 192 64" fill="none" xmlns="http://www.w3.org/2000/svg">
<rect x="0.311688" y="0.311688" width="191.377" height="62.961" rx="5.92208" fill="white"/>
<rect x="0.311688" y="0.311688" width="191.377" height="62.961" rx="5.92208" stroke="#253746" stroke-width="0.623377"/>
<path d="M30.5735 28.864V32.7311C30.5735 34.409 30.3944 35.8566 30.0363 37.074C29.6783 38.2812 29.1616 39.2736 28.4864 40.0511C27.8214 40.8184 27.0286 41.3862 26.1078 41.7545C25.1871 42.1228 24.164 42.3069 23.0387 42.3069C22.1384 42.3069 21.2995 42.1944 20.522 41.9693C19.7444 41.734 19.0436 41.3708 18.4196 40.8798C17.8058 40.3887 17.2738 39.7697 16.8236 39.0229C16.3837 38.2659 16.0461 37.3656 15.8108 36.3221C15.5755 35.2785 15.4578 34.0816 15.4578 32.7311V28.864C15.4578 27.1862 15.6369 25.7488 15.995 24.5518C16.3633 23.3446 16.8799 22.3574 17.5449 21.5901C18.2201 20.8228 19.0181 20.2601 19.9388 19.9021C20.8596 19.5338 21.8826 19.3496 23.008 19.3496C23.9083 19.3496 24.7421 19.4673 25.5093 19.7026C26.2869 19.9276 26.9877 20.2806 27.6117 20.7614C28.2358 21.2423 28.7678 21.8612 29.2077 22.6183C29.6476 23.3651 29.9852 24.2603 30.2205 25.3038C30.4558 26.3371 30.5735 27.5238 30.5735 28.864ZM26.1385 33.3143V28.2655C26.1385 27.4573 26.0925 26.7514 26.0004 26.1478C25.9186 25.5442 25.7907 25.0327 25.6168 24.6132C25.4428 24.1835 25.228 23.8357 24.9722 23.5697C24.7165 23.3037 24.4249 23.1093 24.0975 22.9866C23.7702 22.8638 23.407 22.8024 23.008 22.8024C22.5067 22.8024 22.0617 22.8996 21.6729 23.094C21.2944 23.2884 20.9721 23.6004 20.7061 24.0301C20.4401 24.4495 20.2355 25.0122 20.0923 25.7181C19.9593 26.4138 19.8928 27.2629 19.8928 28.2655V33.3143C19.8928 34.1225 19.9337 34.8335 20.0155 35.4473C20.1076 36.0612 20.2406 36.5881 20.4145 37.028C20.5987 37.4576 20.8135 37.8106 21.0591 38.0868C21.3148 38.3528 21.6064 38.5472 21.9338 38.67C22.2714 38.7927 22.6397 38.8541 23.0387 38.8541C23.5297 38.8541 23.9645 38.7569 24.3431 38.5625C24.7318 38.3579 25.0592 38.0408 25.3252 37.6111C25.6014 37.1712 25.806 36.5983 25.939 35.8924C26.072 35.1865 26.1385 34.3271 26.1385 33.3143ZM33.5198 25.135V23.9534C33.5198 23.1042 33.704 22.3318 34.0723 21.6361C34.4406 20.9405 34.9828 20.3829 35.6989 19.9634C36.4151 19.544 37.2949 19.3343 38.3384 19.3343C39.4126 19.3343 40.3078 19.544 41.0239 19.9634C41.7503 20.3829 42.2925 20.9405 42.6506 21.6361C43.0189 22.3318 43.203 23.1042 43.203 23.9534V25.135C43.203 25.9637 43.0189 26.7258 42.6506 27.4215C42.2925 28.1172 41.7554 28.6747 41.0393 29.0942C40.3231 29.5136 39.4382 29.7234 38.3845 29.7234C37.3205 29.7234 36.4253 29.5136 35.6989 29.0942C34.9828 28.6747 34.4406 28.1172 34.0723 27.4215C33.704 26.7258 33.5198 25.9637 33.5198 25.135ZM36.4509 23.9534V25.135C36.4509 25.493 36.5174 25.8358 36.6504 26.1631C36.7936 26.4803 37.0085 26.7412 37.2949 26.9458C37.5916 27.1402 37.9497 27.2374 38.3691 27.2374C38.809 27.2374 39.1671 27.1402 39.4433 26.9458C39.7195 26.7412 39.9242 26.4803 40.0571 26.1631C40.1901 25.8358 40.2566 25.493 40.2566 25.135V23.9534C40.2566 23.5748 40.185 23.227 40.0418 22.9098C39.9088 22.5825 39.6991 22.3216 39.4126 22.1272C39.1364 21.9226 38.7783 21.8203 38.3384 21.8203C37.9292 21.8203 37.5814 21.9226 37.2949 22.1272C37.0085 22.3216 36.7936 22.5825 36.6504 22.9098C36.5174 23.227 36.4509 23.5748 36.4509 23.9534ZM44.2005 37.7032V36.5216C44.2005 35.6827 44.3847 34.9154 44.753 34.2197C45.1315 33.524 45.6788 32.9664 46.395 32.547C47.1213 32.1275 48.0114 31.9178 49.0651 31.9178C50.1291 31.9178 51.0192 32.1275 51.7353 32.547C52.4514 32.9664 52.9936 33.524 53.3619 34.2197C53.7302 34.9154 53.9144 35.6827 53.9144 36.5216V37.7032C53.9144 38.5421 53.7302 39.3094 53.3619 40.005C53.0039 40.7007 52.4668 41.2583 51.7506 41.6777C51.0345 42.0972 50.1496 42.3069 49.0958 42.3069C48.0318 42.3069 47.1367 42.0972 46.4103 41.6777C45.6839 41.2583 45.1315 40.7007 44.753 40.005C44.3847 39.3094 44.2005 38.5421 44.2005 37.7032ZM47.1469 36.5216V37.7032C47.1469 38.0715 47.2287 38.4193 47.3924 38.7467C47.5561 39.0741 47.7812 39.3349 48.0676 39.5293C48.3643 39.7237 48.7071 39.8209 49.0958 39.8209C49.5869 39.8209 49.9705 39.7237 50.2468 39.5293C50.523 39.3349 50.7122 39.0741 50.8145 38.7467C50.9271 38.4193 50.9833 38.0715 50.9833 37.7032V36.5216C50.9833 36.1533 50.9117 35.8105 50.7685 35.4934C50.6253 35.166 50.4104 34.9051 50.124 34.7108C49.8478 34.5061 49.4948 34.4038 49.0651 34.4038C48.6354 34.4038 48.2774 34.5061 47.9909 34.7108C47.7147 34.9051 47.505 35.166 47.3617 35.4934C47.2185 35.8105 47.1469 36.1533 47.1469 36.5216ZM50.1547 22.8485L39.2438 40.312L37.0954 39.1764L48.0063 21.7129L50.1547 22.8485Z" fill="#FCB533"/>
<path d="M124.906 35.7139H127.353V48.7618H124.906V35.7139Z" fill="#FCB533"/>
<path d="M129.437 36.9822C129.437 36.1667 130.071 35.5325 130.977 35.5325C131.883 35.5325 132.517 36.1667 132.517 36.9822C132.517 37.7977 131.883 38.432 130.977 38.432C130.071 38.432 129.437 37.7977 129.437 36.9822ZM129.708 39.6099H132.155V48.7616H129.708V39.6099Z" fill="#FCB533"/>
<path d="M144.568 44.1406C144.568 46.9496 142.756 48.943 140.128 48.943C138.769 48.943 137.682 48.49 136.957 47.5838L136.776 48.6712H134.601V35.7139H137.048V40.5162C137.772 39.7913 138.86 39.3383 140.038 39.3383C142.665 39.3383 144.568 41.3317 144.568 44.1406ZM142.031 44.1406C142.031 42.6003 141.034 41.5129 139.494 41.5129C138.044 41.5129 136.957 42.6003 136.957 44.1406C136.957 45.681 137.954 46.7684 139.494 46.7684C141.034 46.7684 142.031 45.681 142.031 44.1406Z" fill="#FCB533"/>
<path d="M155.351 44.956H148.283C148.465 46.1339 149.461 46.8588 150.911 46.8588C151.908 46.8588 152.905 46.4964 153.448 45.9527L154.807 47.4025C153.811 48.3992 152.361 48.9429 150.73 48.9429C147.649 48.9429 145.656 47.04 145.656 44.1405C145.656 41.241 147.649 39.3381 150.458 39.3381C153.992 39.3381 155.804 41.6034 155.351 44.956ZM148.374 43.325H153.086C152.995 42.1471 152.089 41.4222 150.73 41.4222C149.371 41.4222 148.555 42.1471 148.374 43.325Z" fill="#FCB533"/>
<path d="M164.503 40.2442L163.416 42.147C162.872 41.7845 162.419 41.6939 161.966 41.6939C160.607 41.6939 159.701 42.6 159.701 44.3216V48.7616H157.254V39.6099H159.429L159.61 40.7878C160.335 39.8817 161.151 39.4287 162.238 39.4287C162.963 39.3381 163.869 39.7005 164.503 40.2442Z" fill="#FCB533"/>
<path d="M86.3058 48.671V43.7781C86.3058 42.6001 85.6715 41.5128 84.403 41.5128C83.225 41.5128 82.5001 42.6001 82.5001 43.7781V48.671H80.2349V39.5194H82.3189L82.5001 40.6067C82.9532 39.7006 84.0405 39.3381 84.9466 39.3381C86.0339 39.3381 87.1213 39.7912 87.6649 41.0597C88.4804 39.7912 89.5678 39.4287 90.7457 39.4287C93.3734 39.4287 94.6419 41.0597 94.6419 43.7781V48.671H92.3767V43.7781C92.3767 42.6001 91.833 41.5128 90.6551 41.5128C89.4771 41.5128 88.6616 42.6001 88.6616 43.7781V48.671H86.3058Z" fill="#243746"/>
<path d="M98.4477 44.0499C98.4477 45.7715 99.6256 46.8588 101.166 46.8588C104.7 46.8588 104.7 41.3316 101.166 41.3316C99.6256 41.3316 98.4477 42.3283 98.4477 44.0499ZM103.884 39.5194H106.059V48.6711H103.884L103.794 47.3119C103.25 48.3992 101.891 48.9429 100.804 48.9429C98.0852 48.9429 96.0918 47.3119 96.0918 44.0499C96.0918 40.8785 98.1758 39.2476 100.894 39.2476C102.072 39.2476 103.25 39.7912 103.794 40.6973L103.884 39.5194Z" fill="#243746"/>
<path d="M108.143 39.5195V48.6712H110.408V39.5195H108.143ZM110.589 36.8918C110.589 38.6134 107.961 38.6134 107.961 36.8918C107.961 35.1702 110.589 35.1702 110.589 36.8918Z" fill="#243746"/>
<path d="M114.848 44.1406C114.848 45.7716 116.026 46.859 117.476 46.859C118.926 46.859 120.103 45.7716 120.103 44.1406C120.103 42.5097 118.926 41.5129 117.476 41.5129C116.117 41.5129 114.848 42.5097 114.848 44.1406ZM114.757 35.7139V40.7881C115.301 39.882 116.751 39.3383 117.748 39.3383C120.375 39.3383 122.369 40.9693 122.369 44.1406C122.369 47.1308 120.375 48.943 117.657 48.943C116.57 48.943 115.392 48.5806 114.667 47.4932L114.576 48.6712H112.492V35.7139H114.757Z" fill="#243746"/>
<path d="M77.0635 38.704C75.8855 36.8918 73.8015 35.6233 71.4456 35.6233C67.7306 35.6233 64.8311 38.6134 64.8311 42.2379C64.8311 42.6909 64.9217 43.144 64.9217 43.597C70.6301 40.0632 75.1607 38.9759 77.0635 38.704Z" fill="#3BBFAD"/>
<path d="M77.2449 38.8853C71.6271 41.3317 68.0026 45.4998 66.8247 46.9496C68.0026 48.1275 69.7242 48.943 71.5365 48.943C75.2515 48.943 78.151 45.9529 78.151 42.3285C78.151 41.0599 77.7886 39.882 77.2449 38.8853Z" fill="#3BBFAD"/>
<path d="M69.9212 20.0068V30.4675H66.6534V20.0068H69.9212ZM69.2251 15.8206L72.3962 18.5373V18.6629H69.8342L68.2873 17.3481L66.7598 18.6629H64.2461V18.4986L67.3592 15.8206H69.2251ZM75.2192 22.2401V30.4675H71.9611V20.0068H75.0162L75.2192 22.2401ZM74.8325 24.8794L74.0687 24.8988C74.0687 24.0996 74.1654 23.3874 74.3588 22.7622C74.5521 22.1305 74.8261 21.5956 75.1806 21.1573C75.5351 20.719 75.9572 20.3871 76.4471 20.1615C76.9434 19.9294 77.4944 19.8134 78.1003 19.8134C78.5837 19.8134 79.0252 19.8843 79.4248 20.0261C79.8309 20.1679 80.1789 20.3967 80.4689 20.7125C80.7654 21.0284 80.991 21.4473 81.1457 21.9694C81.3068 22.485 81.3874 23.1231 81.3874 23.8836V30.4675H78.11V23.874C78.11 23.455 78.052 23.136 77.9359 22.9168C77.8199 22.6913 77.6523 22.5366 77.4332 22.4528C77.2141 22.369 76.9466 22.3271 76.6308 22.3271C76.2956 22.3271 76.012 22.3916 75.78 22.5205C75.5479 22.6494 75.361 22.8298 75.2192 23.0619C75.0839 23.2875 74.984 23.5549 74.9195 23.8643C74.8615 24.1737 74.8325 24.5121 74.8325 24.8794ZM95.4156 16.1879H95.9377V18.75H95.7637C95.1385 18.75 94.552 18.837 94.0041 19.011C93.4627 19.185 92.9857 19.4493 92.5732 19.8038C92.1672 20.1518 91.8481 20.5933 91.6161 21.1283C91.3905 21.6632 91.2777 22.2917 91.2777 23.0135V25.4789C91.2777 25.93 91.3164 26.3232 91.3937 26.6583C91.4711 26.9935 91.5871 27.2707 91.7418 27.4898C91.8965 27.7089 92.0866 27.8733 92.3122 27.9829C92.5442 28.0924 92.8117 28.1472 93.1146 28.1472C93.366 28.1472 93.598 28.0892 93.8107 27.9732C94.0234 27.8572 94.2071 27.6928 94.3618 27.4801C94.5229 27.2674 94.6454 27.0193 94.7292 26.7357C94.813 26.4521 94.8549 26.1427 94.8549 25.8076C94.8549 25.4466 94.8098 25.1211 94.7195 24.8311C94.6293 24.5411 94.5004 24.2961 94.3328 24.0963C94.1717 23.8901 93.9751 23.7354 93.7431 23.6323C93.5175 23.5227 93.2693 23.4679 92.9986 23.4679C92.5861 23.4679 92.2349 23.5614 91.9448 23.7483C91.6612 23.9288 91.4453 24.1608 91.2971 24.4444C91.1553 24.728 91.0844 25.0148 91.0844 25.3048L90.3013 24.5121C90.2884 24.1253 90.3625 23.7257 90.5236 23.3132C90.6848 22.9007 90.9265 22.5172 91.2487 22.1627C91.571 21.8083 91.9738 21.5214 92.4572 21.3023C92.9406 21.0832 93.5014 20.9736 94.1395 20.9736C94.784 20.9736 95.3512 21.096 95.841 21.341C96.3373 21.5859 96.753 21.9275 97.0882 22.3658C97.4298 22.8041 97.6876 23.3165 97.8616 23.903C98.0356 24.4895 98.1227 25.1244 98.1227 25.8076C98.1227 26.4972 98.0002 27.1385 97.7553 27.7315C97.5168 28.318 97.1784 28.8304 96.7401 29.2687C96.3019 29.707 95.783 30.0486 95.1836 30.2935C94.5842 30.5384 93.9235 30.6609 93.2017 30.6609C92.4604 30.6609 91.774 30.5352 91.1424 30.2838C90.5172 30.026 89.9693 29.6554 89.4988 29.172C89.0348 28.6822 88.6706 28.086 88.4063 27.3834C88.1485 26.6809 88.0196 25.8849 88.0196 24.9955V23.8063C88.0196 22.601 88.2162 21.5279 88.6094 20.5869C89.009 19.6459 89.5504 18.8499 90.2336 18.1989C90.9232 17.5415 91.7128 17.0419 92.6022 16.7003C93.4917 16.3587 94.4295 16.1879 95.4156 16.1879ZM107.829 22.5978V30.4675H104.571V20.0068H107.617L107.829 22.5978ZM110.923 19.9294L110.865 22.9555C110.736 22.9426 110.562 22.9265 110.343 22.9072C110.124 22.8878 109.94 22.8782 109.792 22.8782C109.412 22.8782 109.083 22.9233 108.806 23.0135C108.535 23.0973 108.309 23.2262 108.129 23.4002C107.955 23.5678 107.826 23.7805 107.742 24.0383C107.665 24.2961 107.629 24.5958 107.636 24.9375L107.046 24.5507C107.046 23.8482 107.114 23.2101 107.249 22.6365C107.391 22.0564 107.591 21.5569 107.849 21.1379C108.106 20.7125 108.419 20.3871 108.786 20.1615C109.154 19.9294 109.566 19.8134 110.024 19.8134C110.185 19.8134 110.343 19.8231 110.498 19.8424C110.659 19.8618 110.801 19.8908 110.923 19.9294ZM117.188 27.8378V23.5259C117.188 23.2294 117.146 22.9749 117.062 22.7622C116.978 22.5495 116.846 22.3851 116.666 22.2691C116.485 22.1466 116.244 22.0854 115.941 22.0854C115.696 22.0854 115.486 22.1273 115.312 22.2111C115.138 22.2949 115.006 22.4206 114.916 22.5881C114.826 22.7557 114.781 22.9684 114.781 23.2262H111.522C111.522 22.7428 111.629 22.2949 111.842 21.8824C112.061 21.4634 112.37 21.0993 112.77 20.7899C113.176 20.4805 113.659 20.242 114.22 20.0745C114.787 19.9004 115.419 19.8134 116.115 19.8134C116.946 19.8134 117.687 19.952 118.338 20.2292C118.996 20.5063 119.515 20.922 119.895 21.4763C120.275 22.0242 120.465 22.7138 120.465 23.5453V27.8282C120.465 28.5114 120.504 29.0302 120.581 29.3847C120.659 29.7328 120.768 30.0389 120.91 30.3032V30.4675H117.642C117.488 30.1453 117.372 29.7521 117.294 29.288C117.223 28.8175 117.188 28.3341 117.188 27.8378ZM117.584 24.077L117.604 25.8172H116.163C115.86 25.8172 115.602 25.8591 115.39 25.9429C115.183 26.0267 115.016 26.1427 114.887 26.291C114.764 26.4328 114.674 26.5939 114.616 26.7744C114.565 26.9548 114.539 27.145 114.539 27.3448C114.539 27.5381 114.584 27.7122 114.674 27.8668C114.771 28.0151 114.9 28.1311 115.061 28.2149C115.222 28.2987 115.403 28.3406 115.602 28.3406C115.963 28.3406 116.269 28.2729 116.521 28.1375C116.779 27.9958 116.975 27.825 117.111 27.6251C117.246 27.4253 117.314 27.2384 117.314 27.0644L118.029 28.3986C117.9 28.6564 117.752 28.9174 117.584 29.1817C117.423 29.4459 117.22 29.6909 116.975 29.9165C116.737 30.1356 116.443 30.3161 116.095 30.4579C115.747 30.5932 115.325 30.6609 114.829 30.6609C114.184 30.6609 113.591 30.5288 113.05 30.2645C112.515 30.0002 112.086 29.6329 111.764 29.1624C111.442 28.6854 111.281 28.1375 111.281 27.5188C111.281 26.9774 111.377 26.494 111.571 26.0686C111.771 25.6432 112.07 25.2823 112.47 24.9858C112.87 24.6893 113.379 24.4637 113.997 24.309C114.616 24.1543 115.345 24.077 116.182 24.077H117.584ZM127.784 20.0068V22.2691H121.48V20.0068H127.784ZM122.805 17.4061H126.063V27.0547C126.063 27.3319 126.095 27.5478 126.16 27.7025C126.224 27.8507 126.334 27.9571 126.488 28.0215C126.65 28.0795 126.862 28.1085 127.127 28.1085C127.313 28.1085 127.468 28.1053 127.591 28.0989C127.713 28.086 127.829 28.0699 127.939 28.0505V30.3805C127.662 30.4708 127.371 30.5384 127.069 30.5835C126.766 30.6351 126.443 30.6609 126.102 30.6609C125.406 30.6609 124.809 30.5513 124.313 30.3322C123.823 30.113 123.45 29.7682 123.192 29.2977C122.934 28.8272 122.805 28.2149 122.805 27.4608V17.4061ZM134.146 30.6609C133.295 30.6609 132.534 30.5288 131.864 30.2645C131.194 29.9938 130.626 29.6232 130.162 29.1527C129.705 28.6822 129.353 28.1408 129.108 27.5285C128.87 26.9162 128.751 26.2684 128.751 25.5852V25.2178C128.751 24.4508 128.857 23.7418 129.07 23.0909C129.283 22.4334 129.598 21.8598 130.017 21.37C130.436 20.8801 130.962 20.4999 131.593 20.2292C132.225 19.952 132.96 19.8134 133.797 19.8134C134.539 19.8134 135.203 19.9327 135.789 20.1711C136.376 20.4096 136.872 20.7512 137.278 21.1959C137.69 21.6407 138.003 22.1789 138.216 22.8105C138.435 23.4421 138.544 24.1511 138.544 24.9375V26.262H129.998V24.222H135.364V23.9707C135.37 23.6226 135.309 23.3261 135.18 23.0812C135.058 22.8363 134.877 22.6494 134.639 22.5205C134.4 22.3916 134.11 22.3271 133.768 22.3271C133.414 22.3271 133.121 22.4044 132.889 22.5591C132.663 22.7138 132.486 22.9265 132.357 23.1972C132.234 23.4615 132.147 23.7676 132.096 24.1157C132.044 24.4637 132.019 24.8311 132.019 25.2178V25.5852C132.019 25.9719 132.07 26.3232 132.173 26.639C132.283 26.9548 132.437 27.2255 132.637 27.4511C132.844 27.6703 133.088 27.8411 133.372 27.9635C133.662 28.086 133.991 28.1472 134.358 28.1472C134.803 28.1472 135.241 28.0634 135.673 27.8958C136.105 27.7283 136.475 27.4511 136.785 27.0644L138.264 28.824C138.051 29.1269 137.748 29.4202 137.355 29.7038C136.969 29.9874 136.504 30.2194 135.963 30.3999C135.422 30.5739 134.816 30.6609 134.146 30.6609ZM149.218 28.1472C149.521 28.1472 149.779 28.0924 149.991 27.9829C150.21 27.8668 150.375 27.7057 150.484 27.4995C150.6 27.2868 150.655 27.0322 150.649 26.7357H153.713C153.72 27.522 153.527 28.2117 153.133 28.8046C152.747 29.3912 152.218 29.8488 151.548 30.1775C150.884 30.4998 150.133 30.6609 149.295 30.6609C148.477 30.6609 147.761 30.5288 147.149 30.2645C146.537 29.9938 146.024 29.62 145.612 29.143C145.206 28.6596 144.9 28.0957 144.693 27.4511C144.493 26.8066 144.394 26.1073 144.394 25.3532V25.1308C144.394 24.3767 144.493 23.6774 144.693 23.0329C144.9 22.3819 145.206 21.8179 145.612 21.341C146.024 20.8576 146.533 20.4837 147.139 20.2195C147.752 19.9488 148.464 19.8134 149.276 19.8134C150.146 19.8134 150.913 19.9778 151.577 20.3065C152.247 20.6352 152.772 21.1122 153.153 21.7374C153.533 22.3625 153.72 23.1199 153.713 24.0093H150.649C150.655 23.6935 150.607 23.4099 150.504 23.1585C150.401 22.9072 150.239 22.7074 150.02 22.5591C149.808 22.4044 149.534 22.3271 149.199 22.3271C148.863 22.3271 148.593 22.4012 148.386 22.5495C148.18 22.6977 148.022 22.904 147.913 23.1682C147.81 23.426 147.739 23.7225 147.7 24.0577C147.668 24.3928 147.652 24.7505 147.652 25.1308V25.3532C147.652 25.7399 147.668 26.1041 147.7 26.4457C147.739 26.7808 147.813 27.0773 147.922 27.3351C148.032 27.5865 148.19 27.7863 148.396 27.9345C148.602 28.0763 148.876 28.1472 149.218 28.1472ZM161.216 27.9249V20.0068H164.484V30.4675H161.429L161.216 27.9249ZM161.525 25.7979L162.376 25.7786C162.376 26.4811 162.292 27.1321 162.125 27.7315C161.957 28.3245 161.709 28.8401 161.38 29.2784C161.058 29.7167 160.658 30.0583 160.181 30.3032C159.711 30.5417 159.166 30.6609 158.547 30.6609C158.032 30.6609 157.558 30.59 157.126 30.4482C156.701 30.3 156.333 30.0711 156.024 29.7618C155.715 29.4459 155.473 29.0431 155.299 28.5533C155.131 28.057 155.048 27.464 155.048 26.7744V20.0068H158.306V26.7937C158.306 27.0257 158.335 27.2255 158.393 27.3931C158.451 27.5607 158.535 27.7025 158.644 27.8185C158.754 27.9281 158.889 28.0119 159.05 28.0699C159.218 28.1214 159.408 28.1472 159.621 28.1472C160.11 28.1472 160.494 28.0441 160.771 27.8378C161.048 27.6316 161.242 27.3512 161.351 26.9967C161.467 26.6422 161.525 26.2426 161.525 25.7979Z" fill="#253746"/>
</svg>
