<svg width="192" height="64" viewBox="0 0 192 64" fill="none" xmlns="http://www.w3.org/2000/svg">
<rect x="0.311688" y="0.311688" width="191.377" height="62.961" rx="5.92208" fill="#253746"/>
<rect x="0.311688" y="0.311688" width="191.377" height="62.961" rx="5.92208" stroke="#253746" stroke-width="0.623377"/>
<path d="M30.5735 28.864V32.7311C30.5735 34.409 30.3944 35.8566 30.0363 37.074C29.6783 38.2812 29.1616 39.2736 28.4864 40.0511C27.8214 40.8184 27.0286 41.3862 26.1078 41.7545C25.1871 42.1228 24.164 42.3069 23.0387 42.3069C22.1384 42.3069 21.2995 42.1944 20.522 41.9693C19.7444 41.734 19.0436 41.3708 18.4196 40.8798C17.8058 40.3887 17.2738 39.7697 16.8236 39.0229C16.3837 38.2659 16.0461 37.3656 15.8108 36.3221C15.5755 35.2785 15.4578 34.0816 15.4578 32.7311V28.864C15.4578 27.1862 15.6369 25.7488 15.995 24.5518C16.3633 23.3446 16.8799 22.3574 17.5449 21.5901C18.2201 20.8228 19.0181 20.2601 19.9388 19.9021C20.8596 19.5338 21.8826 19.3496 23.008 19.3496C23.9083 19.3496 24.7421 19.4673 25.5093 19.7026C26.2869 19.9276 26.9877 20.2806 27.6117 20.7614C28.2358 21.2423 28.7678 21.8612 29.2077 22.6183C29.6476 23.3651 29.9852 24.2603 30.2205 25.3038C30.4558 26.3371 30.5735 27.5238 30.5735 28.864ZM26.1385 33.3143V28.2655C26.1385 27.4573 26.0925 26.7514 26.0004 26.1478C25.9186 25.5442 25.7907 25.0327 25.6168 24.6132C25.4428 24.1835 25.228 23.8357 24.9722 23.5697C24.7165 23.3037 24.4249 23.1093 24.0975 22.9866C23.7702 22.8638 23.407 22.8024 23.008 22.8024C22.5067 22.8024 22.0617 22.8996 21.6729 23.094C21.2944 23.2884 20.9721 23.6004 20.7061 24.0301C20.4401 24.4495 20.2355 25.0122 20.0923 25.7181C19.9593 26.4138 19.8928 27.2629 19.8928 28.2655V33.3143C19.8928 34.1225 19.9337 34.8335 20.0155 35.4473C20.1076 36.0612 20.2406 36.5881 20.4145 37.028C20.5987 37.4576 20.8135 37.8106 21.0591 38.0868C21.3148 38.3528 21.6064 38.5472 21.9338 38.67C22.2714 38.7927 22.6397 38.8541 23.0387 38.8541C23.5297 38.8541 23.9645 38.7569 24.3431 38.5625C24.7318 38.3579 25.0592 38.0408 25.3252 37.6111C25.6014 37.1712 25.806 36.5983 25.939 35.8924C26.072 35.1865 26.1385 34.3271 26.1385 33.3143ZM33.5198 25.135V23.9534C33.5198 23.1042 33.704 22.3318 34.0723 21.6361C34.4406 20.9405 34.9828 20.3829 35.6989 19.9634C36.4151 19.544 37.2949 19.3343 38.3384 19.3343C39.4126 19.3343 40.3078 19.544 41.0239 19.9634C41.7503 20.3829 42.2925 20.9405 42.6506 21.6361C43.0189 22.3318 43.203 23.1042 43.203 23.9534V25.135C43.203 25.9637 43.0189 26.7258 42.6506 27.4215C42.2925 28.1172 41.7554 28.6747 41.0393 29.0942C40.3231 29.5136 39.4382 29.7234 38.3845 29.7234C37.3205 29.7234 36.4253 29.5136 35.6989 29.0942C34.9828 28.6747 34.4406 28.1172 34.0723 27.4215C33.704 26.7258 33.5198 25.9637 33.5198 25.135ZM36.4509 23.9534V25.135C36.4509 25.493 36.5174 25.8358 36.6504 26.1631C36.7936 26.4803 37.0085 26.7412 37.2949 26.9458C37.5916 27.1402 37.9497 27.2374 38.3691 27.2374C38.809 27.2374 39.1671 27.1402 39.4433 26.9458C39.7195 26.7412 39.9242 26.4803 40.0571 26.1631C40.1901 25.8358 40.2566 25.493 40.2566 25.135V23.9534C40.2566 23.5748 40.185 23.227 40.0418 22.9098C39.9088 22.5825 39.6991 22.3216 39.4126 22.1272C39.1364 21.9226 38.7783 21.8203 38.3384 21.8203C37.9292 21.8203 37.5814 21.9226 37.2949 22.1272C37.0085 22.3216 36.7936 22.5825 36.6504 22.9098C36.5174 23.227 36.4509 23.5748 36.4509 23.9534ZM44.2005 37.7032V36.5216C44.2005 35.6827 44.3847 34.9154 44.753 34.2197C45.1315 33.524 45.6788 32.9664 46.395 32.547C47.1213 32.1275 48.0114 31.9178 49.0651 31.9178C50.1291 31.9178 51.0192 32.1275 51.7353 32.547C52.4514 32.9664 52.9936 33.524 53.3619 34.2197C53.7302 34.9154 53.9144 35.6827 53.9144 36.5216V37.7032C53.9144 38.5421 53.7302 39.3094 53.3619 40.005C53.0039 40.7007 52.4668 41.2583 51.7506 41.6777C51.0345 42.0972 50.1496 42.3069 49.0958 42.3069C48.0318 42.3069 47.1367 42.0972 46.4103 41.6777C45.6839 41.2583 45.1315 40.7007 44.753 40.005C44.3847 39.3094 44.2005 38.5421 44.2005 37.7032ZM47.1469 36.5216V37.7032C47.1469 38.0715 47.2287 38.4193 47.3924 38.7467C47.5561 39.0741 47.7812 39.3349 48.0676 39.5293C48.3643 39.7237 48.7071 39.8209 49.0958 39.8209C49.5869 39.8209 49.9705 39.7237 50.2468 39.5293C50.523 39.3349 50.7122 39.0741 50.8145 38.7467C50.9271 38.4193 50.9833 38.0715 50.9833 37.7032V36.5216C50.9833 36.1533 50.9117 35.8105 50.7685 35.4934C50.6253 35.166 50.4104 34.9051 50.124 34.7108C49.8478 34.5061 49.4948 34.4038 49.0651 34.4038C48.6354 34.4038 48.2774 34.5061 47.9909 34.7108C47.7147 34.9051 47.505 35.166 47.3617 35.4934C47.2185 35.8105 47.1469 36.1533 47.1469 36.5216ZM50.1547 22.8485L39.2438 40.312L37.0954 39.1764L48.0063 21.7129L50.1547 22.8485Z" fill="#FCB533"/>
<path d="M124.906 35.7139H127.353V48.7618H124.906V35.7139Z" fill="#FCB533"/>
<path d="M129.437 36.9822C129.437 36.1667 130.071 35.5325 130.977 35.5325C131.883 35.5325 132.517 36.1667 132.517 36.9822C132.517 37.7977 131.883 38.432 130.977 38.432C130.071 38.432 129.437 37.7977 129.437 36.9822ZM129.708 39.6099H132.155V48.7616H129.708V39.6099Z" fill="#FCB533"/>
<path d="M144.568 44.1406C144.568 46.9496 142.756 48.943 140.128 48.943C138.769 48.943 137.682 48.49 136.957 47.5838L136.776 48.6712H134.601V35.7139H137.048V40.5162C137.772 39.7913 138.86 39.3383 140.038 39.3383C142.665 39.3383 144.568 41.3317 144.568 44.1406ZM142.031 44.1406C142.031 42.6003 141.034 41.5129 139.494 41.5129C138.044 41.5129 136.957 42.6003 136.957 44.1406C136.957 45.681 137.954 46.7684 139.494 46.7684C141.034 46.7684 142.031 45.681 142.031 44.1406Z" fill="#FCB533"/>
<path d="M155.351 44.956H148.283C148.465 46.1339 149.461 46.8588 150.911 46.8588C151.908 46.8588 152.905 46.4964 153.448 45.9527L154.807 47.4025C153.811 48.3992 152.361 48.9429 150.73 48.9429C147.649 48.9429 145.656 47.04 145.656 44.1405C145.656 41.241 147.649 39.3381 150.458 39.3381C153.992 39.3381 155.804 41.6034 155.351 44.956ZM148.374 43.325H153.086C152.995 42.1471 152.089 41.4222 150.73 41.4222C149.371 41.4222 148.555 42.1471 148.374 43.325Z" fill="#FCB533"/>
<path d="M164.503 40.2442L163.416 42.147C162.872 41.7845 162.419 41.6939 161.966 41.6939C160.607 41.6939 159.701 42.6 159.701 44.3216V48.7616H157.254V39.6099H159.429L159.61 40.7878C160.335 39.8817 161.151 39.4287 162.238 39.4287C162.963 39.3381 163.869 39.7005 164.503 40.2442Z" fill="#FCB533"/>
<path d="M86.3058 48.671V43.7781C86.3058 42.6001 85.6715 41.5128 84.403 41.5128C83.225 41.5128 82.5001 42.6001 82.5001 43.7781V48.671H80.2349V39.5194H82.3189L82.5001 40.6067C82.9532 39.7006 84.0405 39.3381 84.9466 39.3381C86.0339 39.3381 87.1213 39.7912 87.6649 41.0597C88.4804 39.7912 89.5678 39.4287 90.7457 39.4287C93.3734 39.4287 94.6419 41.0597 94.6419 43.7781V48.671H92.3767V43.7781C92.3767 42.6001 91.833 41.5128 90.6551 41.5128C89.4771 41.5128 88.6616 42.6001 88.6616 43.7781V48.671H86.3058Z" fill="white"/>
<path d="M98.4477 44.0499C98.4477 45.7715 99.6256 46.8588 101.166 46.8588C104.7 46.8588 104.7 41.3316 101.166 41.3316C99.6256 41.3316 98.4477 42.3283 98.4477 44.0499ZM103.884 39.5194H106.059V48.6711H103.884L103.794 47.3119C103.25 48.3992 101.891 48.9429 100.804 48.9429C98.0852 48.9429 96.0918 47.3119 96.0918 44.0499C96.0918 40.8785 98.1758 39.2476 100.894 39.2476C102.072 39.2476 103.25 39.7912 103.794 40.6973L103.884 39.5194Z" fill="white"/>
<path d="M108.143 39.5195V48.6712H110.408V39.5195H108.143ZM110.589 36.8918C110.589 38.6134 107.961 38.6134 107.961 36.8918C107.961 35.1702 110.589 35.1702 110.589 36.8918Z" fill="white"/>
<path d="M114.848 44.1406C114.848 45.7716 116.026 46.859 117.476 46.859C118.926 46.859 120.103 45.7716 120.103 44.1406C120.103 42.5097 118.926 41.5129 117.476 41.5129C116.117 41.5129 114.848 42.5097 114.848 44.1406ZM114.757 35.7139V40.7881C115.301 39.882 116.751 39.3383 117.748 39.3383C120.375 39.3383 122.369 40.9693 122.369 44.1406C122.369 47.1308 120.375 48.943 117.657 48.943C116.57 48.943 115.392 48.5806 114.667 47.4932L114.576 48.6712H112.492V35.7139H114.757Z" fill="white"/>
<path d="M77.0635 38.704C75.8855 36.8918 73.8015 35.6233 71.4456 35.6233C67.7306 35.6233 64.8311 38.6134 64.8311 42.2379C64.8311 42.6909 64.9217 43.144 64.9217 43.597C70.6301 40.0632 75.1607 38.9759 77.0635 38.704Z" fill="#3BBFAD"/>
<path d="M77.2449 38.8853C71.6271 41.3317 68.0026 45.4998 66.8247 46.9496C68.0026 48.1275 69.7242 48.943 71.5365 48.943C75.2515 48.943 78.151 45.9529 78.151 42.3285C78.151 41.0599 77.7886 39.882 77.2449 38.8853Z" fill="#3BBFAD"/>
<path d="M71.9951 23.7249H68.5161L68.4976 21.5911H71.3179C71.825 21.5911 72.2301 21.5354 72.5332 21.4241C72.8363 21.3066 73.0558 21.1365 73.1919 20.9138C73.3341 20.6912 73.4053 20.4128 73.4053 20.0789C73.4053 19.6954 73.3341 19.3861 73.1919 19.1511C73.0496 18.9161 72.8239 18.746 72.5146 18.6409C72.2116 18.5295 71.8188 18.4739 71.3364 18.4739H69.7407V29.4675H66.4844V15.9597H71.3364C72.1714 15.9597 72.9167 16.037 73.5723 16.1917C74.2279 16.3401 74.7845 16.5689 75.2422 16.8782C75.7061 17.1874 76.0586 17.5771 76.2998 18.0471C76.541 18.511 76.6616 19.0583 76.6616 19.6892C76.6616 20.2397 76.5441 20.7561 76.3091 21.2385C76.0741 21.7209 75.6813 22.1137 75.1309 22.4167C74.5866 22.7136 73.8413 22.8682 72.895 22.8806L71.9951 23.7249ZM71.8652 29.4675H67.7275L68.8408 26.9626H71.8652C72.3105 26.9626 72.6662 26.8946 72.9321 26.7585C73.2043 26.6163 73.3991 26.4307 73.5166 26.2019C73.6403 25.9669 73.7021 25.7071 73.7021 25.4226C73.7021 25.0763 73.6434 24.7763 73.5259 24.5227C73.4146 24.2691 73.2352 24.0743 72.9878 23.9382C72.7404 23.796 72.4095 23.7249 71.9951 23.7249H69.2583L69.2769 21.5911H72.5518L73.3125 22.4446C74.2155 22.4075 74.9299 22.5343 75.4556 22.825C75.9875 23.1156 76.3678 23.4991 76.5967 23.9753C76.8255 24.4516 76.9399 24.9495 76.9399 25.469C76.9399 26.3534 76.7482 27.0925 76.3647 27.6863C75.9875 28.28 75.4215 28.7253 74.667 29.0222C73.9124 29.3191 72.9785 29.4675 71.8652 29.4675ZM90.3271 15.7649H90.8281V18.2234H90.6611C90.0612 18.2234 89.4984 18.3069 88.9727 18.4739C88.4531 18.6409 87.9954 18.8944 87.5996 19.2346C87.21 19.5686 86.9038 19.9923 86.6812 20.5056C86.4647 21.019 86.3564 21.622 86.3564 22.3147V24.6804C86.3564 25.1134 86.3936 25.4906 86.4678 25.8123C86.542 26.1339 86.6533 26.3998 86.8018 26.6101C86.9502 26.8204 87.1326 26.9781 87.3491 27.0833C87.5718 27.1884 87.8285 27.241 88.1191 27.241C88.3604 27.241 88.583 27.1853 88.7871 27.074C88.9912 26.9626 89.1675 26.8049 89.3159 26.6008C89.4705 26.3967 89.5881 26.1586 89.6685 25.8865C89.7489 25.6143 89.7891 25.3175 89.7891 24.9958C89.7891 24.6495 89.7458 24.3372 89.6592 24.0588C89.5726 23.7805 89.4489 23.5455 89.2881 23.3538C89.1335 23.1558 88.9448 23.0074 88.7222 22.9084C88.5057 22.8033 88.2676 22.7507 88.0078 22.7507C87.612 22.7507 87.2749 22.8404 86.9966 23.0198C86.7244 23.193 86.5173 23.4156 86.375 23.6877C86.2389 23.9599 86.1709 24.2351 86.1709 24.5134L85.4194 23.7527C85.4071 23.3816 85.4782 22.9981 85.6328 22.6023C85.7874 22.2065 86.0194 21.8385 86.3286 21.4983C86.6379 21.1581 87.0244 20.8829 87.4883 20.6726C87.9521 20.4623 88.4902 20.3572 89.1025 20.3572C89.721 20.3572 90.2653 20.4747 90.7354 20.7097C91.2116 20.9447 91.6105 21.2725 91.9321 21.6931C92.2599 22.1137 92.5073 22.6054 92.6743 23.1682C92.8413 23.731 92.9248 24.3403 92.9248 24.9958C92.9248 25.6576 92.8073 26.273 92.5723 26.842C92.3434 27.4049 92.0187 27.8966 91.5981 28.3171C91.1776 28.7377 90.6797 29.0655 90.1045 29.3005C89.5293 29.5356 88.8953 29.6531 88.2026 29.6531C87.4914 29.6531 86.8327 29.5325 86.2266 29.2913C85.6266 29.0439 85.1009 28.6882 84.6494 28.2244C84.2041 27.7543 83.8547 27.1822 83.6011 26.5081C83.3537 25.8339 83.23 25.0701 83.23 24.2166V23.0754C83.23 21.9189 83.4186 20.8891 83.7959 19.9861C84.1794 19.0831 84.6989 18.3193 85.3545 17.6946C86.0163 17.0637 86.7739 16.5844 87.6274 16.2566C88.481 15.9288 89.3809 15.7649 90.3271 15.7649ZM104.252 25.3762H101.172L101.154 23.4465H103.714C103.968 23.4465 104.169 23.4187 104.317 23.363C104.472 23.3074 104.58 23.2239 104.642 23.1125C104.71 22.995 104.744 22.8559 104.744 22.6951C104.744 22.5343 104.719 22.3982 104.67 22.2869C104.627 22.1755 104.556 22.0859 104.457 22.0178C104.364 21.9498 104.246 21.9003 104.104 21.8694C103.962 21.8385 103.795 21.823 103.603 21.823H102.425V29.4675H99.2983V19.4294H103.603C104.265 19.4294 104.859 19.4882 105.384 19.6057C105.91 19.717 106.355 19.8902 106.72 20.1252C107.091 20.3541 107.376 20.6448 107.574 20.9973C107.772 21.3499 107.871 21.7642 107.871 22.2405C107.871 22.5497 107.796 22.8404 107.648 23.1125C107.5 23.3847 107.28 23.6259 106.989 23.8362C106.705 24.0465 106.352 24.2196 105.932 24.3557C105.511 24.4856 105.029 24.566 104.484 24.5969L104.252 25.3762ZM104.252 29.4675H100.495L101.451 27.074H104.252C104.512 27.074 104.722 27.0431 104.883 26.9812C105.044 26.9194 105.162 26.8266 105.236 26.7029C105.31 26.5792 105.347 26.4277 105.347 26.2483C105.347 26.0751 105.316 25.9236 105.254 25.7937C105.193 25.6638 105.081 25.5618 104.92 25.4875C104.766 25.4133 104.543 25.3762 104.252 25.3762H101.803L101.822 23.4465H104.466L105.134 24.2351C105.913 24.2784 106.547 24.4114 107.036 24.634C107.53 24.8567 107.892 25.1381 108.121 25.4783C108.356 25.8184 108.474 26.1926 108.474 26.6008C108.474 27.0771 108.381 27.4945 108.195 27.8533C108.016 28.212 107.747 28.512 107.388 28.7532C107.029 28.9882 106.587 29.1676 106.062 29.2913C105.542 29.4088 104.939 29.4675 104.252 29.4675ZM114.606 24.6804H112.546V23.4187H113.836C114.102 23.4187 114.315 23.3785 114.476 23.2981C114.643 23.2177 114.764 23.1064 114.838 22.9641C114.918 22.8157 114.958 22.6487 114.958 22.4631C114.958 22.3023 114.931 22.1477 114.875 21.9993C114.826 21.8508 114.727 21.7271 114.578 21.6282C114.43 21.5292 114.21 21.4797 113.919 21.4797C113.678 21.4797 113.468 21.5107 113.289 21.5725C113.109 21.6344 112.97 21.7302 112.871 21.8601C112.772 21.9838 112.723 22.1446 112.723 22.3425H109.587C109.587 21.6931 109.772 21.1396 110.144 20.6819C110.515 20.218 111.013 19.8655 111.637 19.6243C112.262 19.3769 112.951 19.2532 113.706 19.2532C114.368 19.2532 114.968 19.3181 115.506 19.448C116.044 19.5717 116.505 19.7572 116.888 20.0046C117.272 20.252 117.565 20.5582 117.77 20.9231C117.98 21.2818 118.085 21.6993 118.085 22.1755C118.085 22.5157 118.005 22.8373 117.844 23.1404C117.683 23.4434 117.451 23.7125 117.148 23.9475C116.845 24.1764 116.477 24.3557 116.044 24.4856C115.617 24.6155 115.138 24.6804 114.606 24.6804ZM112.546 24.0125H114.606C115.2 24.0125 115.722 24.0712 116.174 24.1887C116.632 24.3 117.015 24.467 117.324 24.6897C117.633 24.9124 117.865 25.1876 118.02 25.5154C118.181 25.837 118.261 26.2081 118.261 26.6287C118.261 27.1049 118.15 27.5317 117.927 27.9089C117.705 28.28 117.389 28.5955 116.981 28.8552C116.573 29.115 116.09 29.3129 115.534 29.449C114.977 29.585 114.368 29.6531 113.706 29.6531C113.007 29.6531 112.33 29.5417 111.674 29.3191C111.019 29.0964 110.481 28.7532 110.06 28.2893C109.639 27.8254 109.429 27.2286 109.429 26.4988H112.565C112.565 26.6658 112.611 26.8204 112.704 26.9626C112.797 27.1049 112.942 27.2193 113.14 27.3059C113.344 27.3863 113.607 27.4265 113.929 27.4265C114.244 27.4265 114.488 27.3739 114.662 27.2688C114.841 27.1637 114.965 27.0276 115.033 26.8606C115.107 26.6936 115.144 26.5235 115.144 26.3503C115.144 26.0844 115.095 25.871 114.996 25.7102C114.897 25.5494 114.748 25.4319 114.55 25.3577C114.359 25.2773 114.12 25.2371 113.836 25.2371H112.546V24.0125ZM126.527 23.3445V25.7473H121.518V23.3445H126.527ZM122.659 19.4294V29.4675H119.532V19.4294H122.659ZM128.531 19.4294V29.4675H125.396V19.4294H128.531ZM129.867 24.5505V24.3557C129.867 23.6197 129.972 22.9425 130.183 22.324C130.393 21.6993 130.702 21.1581 131.11 20.7004C131.519 20.2428 132.023 19.8871 132.623 19.6335C133.222 19.3738 133.915 19.2439 134.701 19.2439C135.492 19.2439 136.188 19.3738 136.788 19.6335C137.394 19.8871 137.901 20.2428 138.31 20.7004C138.718 21.1581 139.027 21.6993 139.237 22.324C139.448 22.9425 139.553 23.6197 139.553 24.3557V24.5505C139.553 25.2804 139.448 25.9576 139.237 26.5823C139.027 27.2008 138.718 27.7419 138.31 28.2058C137.901 28.6635 137.397 29.0191 136.797 29.2727C136.197 29.5263 135.505 29.6531 134.719 29.6531C133.934 29.6531 133.238 29.5263 132.632 29.2727C132.026 29.0191 131.519 28.6635 131.11 28.2058C130.702 27.7419 130.393 27.2008 130.183 26.5823C129.972 25.9576 129.867 25.2804 129.867 24.5505ZM132.994 24.3557V24.5505C132.994 24.9278 133.021 25.2804 133.077 25.6082C133.133 25.936 133.226 26.2236 133.355 26.4709C133.485 26.7122 133.662 26.9008 133.884 27.0369C134.107 27.1729 134.385 27.241 134.719 27.241C135.047 27.241 135.319 27.1729 135.536 27.0369C135.758 26.9008 135.935 26.7122 136.064 26.4709C136.194 26.2236 136.287 25.936 136.343 25.6082C136.398 25.2804 136.426 24.9278 136.426 24.5505V24.3557C136.426 23.9908 136.398 23.6475 136.343 23.3259C136.287 22.9981 136.194 22.7105 136.064 22.4631C135.935 22.2096 135.758 22.0116 135.536 21.8694C135.313 21.7271 135.035 21.656 134.701 21.656C134.373 21.656 134.098 21.7271 133.875 21.8694C133.659 22.0116 133.485 22.2096 133.355 22.4631C133.226 22.7105 133.133 22.9981 133.077 23.3259C133.021 23.6475 132.994 23.9908 132.994 24.3557ZM145.184 27.241C145.475 27.241 145.722 27.1884 145.926 27.0833C146.137 26.9719 146.294 26.8173 146.399 26.6194C146.511 26.4153 146.563 26.171 146.557 25.8865H149.498C149.504 26.641 149.319 27.3028 148.941 27.8718C148.57 28.4347 148.063 28.8738 147.42 29.1892C146.783 29.4985 146.062 29.6531 145.258 29.6531C144.473 29.6531 143.786 29.5263 143.199 29.2727C142.611 29.0129 142.119 28.6542 141.724 28.1965C141.334 27.7327 141.04 27.1915 140.842 26.573C140.651 25.9545 140.555 25.2834 140.555 24.5598V24.3464C140.555 23.6228 140.651 22.9517 140.842 22.3333C141.04 21.7086 141.334 21.1674 141.724 20.7097C142.119 20.2458 142.608 19.8871 143.189 19.6335C143.777 19.3738 144.46 19.2439 145.24 19.2439C146.075 19.2439 146.811 19.4016 147.448 19.717C148.091 20.0325 148.595 20.4902 148.96 21.0901C149.325 21.69 149.504 22.4167 149.498 23.2703H146.557C146.563 22.9672 146.517 22.6951 146.418 22.4539C146.319 22.2126 146.164 22.0209 145.954 21.8787C145.75 21.7302 145.487 21.656 145.166 21.656C144.844 21.656 144.584 21.7271 144.386 21.8694C144.188 22.0116 144.037 22.2096 143.932 22.4631C143.833 22.7105 143.765 22.995 143.728 23.3167C143.697 23.6383 143.681 23.9815 143.681 24.3464V24.5598C143.681 24.9309 143.697 25.2804 143.728 25.6082C143.765 25.9298 143.836 26.2143 143.941 26.4617C144.046 26.7029 144.198 26.8946 144.396 27.0369C144.593 27.1729 144.856 27.241 145.184 27.241ZM150.444 24.5505V24.3557C150.444 23.6197 150.549 22.9425 150.76 22.324C150.97 21.6993 151.279 21.1581 151.688 20.7004C152.096 20.2428 152.6 19.8871 153.2 19.6335C153.8 19.3738 154.492 19.2439 155.278 19.2439C156.069 19.2439 156.765 19.3738 157.365 19.6335C157.971 19.8871 158.479 20.2428 158.887 20.7004C159.295 21.1581 159.604 21.6993 159.814 22.324C160.025 22.9425 160.13 23.6197 160.13 24.3557V24.5505C160.13 25.2804 160.025 25.9576 159.814 26.5823C159.604 27.2008 159.295 27.7419 158.887 28.2058C158.479 28.6635 157.974 29.0191 157.375 29.2727C156.775 29.5263 156.082 29.6531 155.296 29.6531C154.511 29.6531 153.815 29.5263 153.209 29.2727C152.603 29.0191 152.096 28.6635 151.688 28.2058C151.279 27.7419 150.97 27.2008 150.76 26.5823C150.549 25.9576 150.444 25.2804 150.444 24.5505ZM153.571 24.3557V24.5505C153.571 24.9278 153.599 25.2804 153.654 25.6082C153.71 25.936 153.803 26.2236 153.933 26.4709C154.062 26.7122 154.239 26.9008 154.461 27.0369C154.684 27.1729 154.962 27.241 155.296 27.241C155.624 27.241 155.896 27.1729 156.113 27.0369C156.335 26.9008 156.512 26.7122 156.642 26.4709C156.771 26.2236 156.864 25.936 156.92 25.6082C156.976 25.2804 157.003 24.9278 157.003 24.5505V24.3557C157.003 23.9908 156.976 23.6475 156.92 23.3259C156.864 22.9981 156.771 22.7105 156.642 22.4631C156.512 22.2096 156.335 22.0116 156.113 21.8694C155.89 21.7271 155.612 21.656 155.278 21.656C154.95 21.656 154.675 21.7271 154.452 21.8694C154.236 22.0116 154.062 22.2096 153.933 22.4631C153.803 22.7105 153.71 22.9981 153.654 23.3259C153.599 23.6475 153.571 23.9908 153.571 24.3557ZM166.689 25.3762H163.609L163.59 23.4465H166.151C166.404 23.4465 166.605 23.4187 166.754 23.363C166.909 23.3074 167.017 23.2239 167.079 23.1125C167.147 22.995 167.181 22.8559 167.181 22.6951C167.181 22.5343 167.156 22.3982 167.106 22.2869C167.063 22.1755 166.992 22.0859 166.893 22.0178C166.8 21.9498 166.683 21.9003 166.541 21.8694C166.398 21.8385 166.231 21.823 166.04 21.823H164.861V29.4675H161.735V19.4294H166.04C166.701 19.4294 167.295 19.4882 167.821 19.6057C168.347 19.717 168.792 19.8902 169.157 20.1252C169.528 20.3541 169.812 20.6448 170.01 20.9973C170.208 21.3499 170.307 21.7642 170.307 22.2405C170.307 22.5497 170.233 22.8404 170.084 23.1125C169.936 23.3847 169.716 23.6259 169.426 23.8362C169.141 24.0465 168.789 24.2196 168.368 24.3557C167.948 24.4856 167.465 24.566 166.921 24.5969L166.689 25.3762ZM166.689 29.4675H162.932L163.887 27.074H166.689C166.949 27.074 167.159 27.0431 167.32 26.9812C167.481 26.9194 167.598 26.8266 167.672 26.7029C167.747 26.5792 167.784 26.4277 167.784 26.2483C167.784 26.0751 167.753 25.9236 167.691 25.7937C167.629 25.6638 167.518 25.5618 167.357 25.4875C167.202 25.4133 166.98 25.3762 166.689 25.3762H164.24L164.258 23.4465H166.902L167.57 24.2351C168.35 24.2784 168.984 24.4114 169.472 24.634C169.967 24.8567 170.329 25.1381 170.558 25.4783C170.793 25.8184 170.91 26.1926 170.91 26.6008C170.91 27.0771 170.817 27.4945 170.632 27.8533C170.452 28.212 170.183 28.512 169.825 28.7532C169.466 28.9882 169.024 29.1676 168.498 29.2913C167.979 29.4088 167.375 29.4675 166.689 29.4675ZM181.162 27.241C181.452 27.241 181.7 27.1884 181.904 27.0833C182.114 26.9719 182.272 26.8173 182.377 26.6194C182.488 26.4153 182.541 26.171 182.535 25.8865H185.476C185.482 26.641 185.296 27.3028 184.919 27.8718C184.548 28.4347 184.041 28.8738 183.397 29.1892C182.76 29.4985 182.04 29.6531 181.236 29.6531C180.45 29.6531 179.764 29.5263 179.176 29.2727C178.589 29.0129 178.097 28.6542 177.701 28.1965C177.312 27.7327 177.018 27.1915 176.82 26.573C176.628 25.9545 176.532 25.2834 176.532 24.5598V24.3464C176.532 23.6228 176.628 22.9517 176.82 22.3333C177.018 21.7086 177.312 21.1674 177.701 20.7097C178.097 20.2458 178.586 19.8871 179.167 19.6335C179.755 19.3738 180.438 19.2439 181.217 19.2439C182.052 19.2439 182.788 19.4016 183.425 19.717C184.069 20.0325 184.573 20.4902 184.938 21.0901C185.302 21.69 185.482 22.4167 185.476 23.2703H182.535C182.541 22.9672 182.494 22.6951 182.396 22.4539C182.297 22.2126 182.142 22.0209 181.932 21.8787C181.728 21.7302 181.465 21.656 181.143 21.656C180.821 21.656 180.562 21.7271 180.364 21.8694C180.166 22.0116 180.014 22.2096 179.909 22.4631C179.81 22.7105 179.742 22.995 179.705 23.3167C179.674 23.6383 179.659 23.9815 179.659 24.3464V24.5598C179.659 24.9309 179.674 25.2804 179.705 25.6082C179.742 25.9298 179.813 26.2143 179.918 26.4617C180.024 26.7029 180.175 26.8946 180.373 27.0369C180.571 27.1729 180.834 27.241 181.162 27.241Z" fill="white"/>
</svg>
