<svg width="192" height="64" viewBox="0 0 192 64" fill="none" xmlns="http://www.w3.org/2000/svg">
<rect x="0.311688" y="0.311688" width="191.377" height="62.961" rx="5.92208" fill="white"/>
<rect x="0.311688" y="0.311688" width="191.377" height="62.961" rx="5.92208" stroke="white" stroke-width="0.623377"/>
<path d="M30.5735 28.864V32.7311C30.5735 34.409 30.3944 35.8566 30.0363 37.074C29.6783 38.2812 29.1616 39.2736 28.4864 40.0511C27.8214 40.8184 27.0286 41.3862 26.1078 41.7545C25.1871 42.1228 24.164 42.3069 23.0387 42.3069C22.1384 42.3069 21.2995 42.1944 20.522 41.9693C19.7444 41.734 19.0436 41.3708 18.4196 40.8798C17.8058 40.3887 17.2738 39.7697 16.8236 39.0229C16.3837 38.2659 16.0461 37.3656 15.8108 36.3221C15.5755 35.2785 15.4578 34.0816 15.4578 32.7311V28.864C15.4578 27.1862 15.6369 25.7488 15.995 24.5518C16.3633 23.3446 16.8799 22.3574 17.5449 21.5901C18.2201 20.8228 19.0181 20.2601 19.9388 19.9021C20.8596 19.5338 21.8826 19.3496 23.008 19.3496C23.9083 19.3496 24.7421 19.4673 25.5093 19.7026C26.2869 19.9276 26.9877 20.2806 27.6117 20.7614C28.2358 21.2423 28.7678 21.8612 29.2077 22.6183C29.6476 23.3651 29.9852 24.2603 30.2205 25.3038C30.4558 26.3371 30.5735 27.5238 30.5735 28.864ZM26.1385 33.3143V28.2655C26.1385 27.4573 26.0925 26.7514 26.0004 26.1478C25.9186 25.5442 25.7907 25.0327 25.6168 24.6132C25.4428 24.1835 25.228 23.8357 24.9722 23.5697C24.7165 23.3037 24.4249 23.1093 24.0975 22.9866C23.7702 22.8638 23.407 22.8024 23.008 22.8024C22.5067 22.8024 22.0617 22.8996 21.6729 23.094C21.2944 23.2884 20.9721 23.6004 20.7061 24.0301C20.4401 24.4495 20.2355 25.0122 20.0923 25.7181C19.9593 26.4138 19.8928 27.2629 19.8928 28.2655V33.3143C19.8928 34.1225 19.9337 34.8335 20.0155 35.4473C20.1076 36.0612 20.2406 36.5881 20.4145 37.028C20.5987 37.4576 20.8135 37.8106 21.0591 38.0868C21.3148 38.3528 21.6064 38.5472 21.9338 38.67C22.2714 38.7927 22.6397 38.8541 23.0387 38.8541C23.5297 38.8541 23.9645 38.7569 24.3431 38.5625C24.7318 38.3579 25.0592 38.0408 25.3252 37.6111C25.6014 37.1712 25.806 36.5983 25.939 35.8924C26.072 35.1865 26.1385 34.3271 26.1385 33.3143ZM33.5198 25.135V23.9534C33.5198 23.1042 33.704 22.3318 34.0723 21.6361C34.4406 20.9405 34.9828 20.3829 35.6989 19.9634C36.4151 19.544 37.2949 19.3343 38.3384 19.3343C39.4126 19.3343 40.3078 19.544 41.0239 19.9634C41.7503 20.3829 42.2925 20.9405 42.6506 21.6361C43.0189 22.3318 43.203 23.1042 43.203 23.9534V25.135C43.203 25.9637 43.0189 26.7258 42.6506 27.4215C42.2925 28.1172 41.7554 28.6747 41.0393 29.0942C40.3231 29.5136 39.4382 29.7234 38.3845 29.7234C37.3205 29.7234 36.4253 29.5136 35.6989 29.0942C34.9828 28.6747 34.4406 28.1172 34.0723 27.4215C33.704 26.7258 33.5198 25.9637 33.5198 25.135ZM36.4509 23.9534V25.135C36.4509 25.493 36.5174 25.8358 36.6504 26.1631C36.7936 26.4803 37.0085 26.7412 37.2949 26.9458C37.5916 27.1402 37.9497 27.2374 38.3691 27.2374C38.809 27.2374 39.1671 27.1402 39.4433 26.9458C39.7195 26.7412 39.9242 26.4803 40.0571 26.1631C40.1901 25.8358 40.2566 25.493 40.2566 25.135V23.9534C40.2566 23.5748 40.185 23.227 40.0418 22.9098C39.9088 22.5825 39.6991 22.3216 39.4126 22.1272C39.1364 21.9226 38.7783 21.8203 38.3384 21.8203C37.9292 21.8203 37.5814 21.9226 37.2949 22.1272C37.0085 22.3216 36.7936 22.5825 36.6504 22.9098C36.5174 23.227 36.4509 23.5748 36.4509 23.9534ZM44.2005 37.7032V36.5216C44.2005 35.6827 44.3847 34.9154 44.753 34.2197C45.1315 33.524 45.6788 32.9664 46.395 32.547C47.1213 32.1275 48.0114 31.9178 49.0651 31.9178C50.1291 31.9178 51.0192 32.1275 51.7353 32.547C52.4514 32.9664 52.9936 33.524 53.3619 34.2197C53.7302 34.9154 53.9144 35.6827 53.9144 36.5216V37.7032C53.9144 38.5421 53.7302 39.3094 53.3619 40.005C53.0039 40.7007 52.4668 41.2583 51.7506 41.6777C51.0345 42.0972 50.1496 42.3069 49.0958 42.3069C48.0318 42.3069 47.1367 42.0972 46.4103 41.6777C45.6839 41.2583 45.1315 40.7007 44.753 40.005C44.3847 39.3094 44.2005 38.5421 44.2005 37.7032ZM47.1469 36.5216V37.7032C47.1469 38.0715 47.2287 38.4193 47.3924 38.7467C47.5561 39.0741 47.7812 39.3349 48.0676 39.5293C48.3643 39.7237 48.7071 39.8209 49.0958 39.8209C49.5869 39.8209 49.9705 39.7237 50.2468 39.5293C50.523 39.3349 50.7122 39.0741 50.8145 38.7467C50.9271 38.4193 50.9833 38.0715 50.9833 37.7032V36.5216C50.9833 36.1533 50.9117 35.8105 50.7685 35.4934C50.6253 35.166 50.4104 34.9051 50.124 34.7108C49.8478 34.5061 49.4948 34.4038 49.0651 34.4038C48.6354 34.4038 48.2774 34.5061 47.9909 34.7108C47.7147 34.9051 47.505 35.166 47.3617 35.4934C47.2185 35.8105 47.1469 36.1533 47.1469 36.5216ZM50.1547 22.8485L39.2438 40.312L37.0954 39.1764L48.0063 21.7129L50.1547 22.8485Z" fill="#FCB533"/>
<path d="M124.906 35.7137H127.353V48.7617H124.906V35.7137Z" fill="#FCB533"/>
<path d="M129.437 36.9822C129.437 36.1667 130.071 35.5325 130.977 35.5325C131.883 35.5325 132.517 36.1667 132.517 36.9822C132.517 37.7977 131.883 38.432 130.977 38.432C130.071 38.432 129.437 37.7977 129.437 36.9822ZM129.708 39.6099H132.155V48.7616H129.708V39.6099Z" fill="#FCB533"/>
<path d="M144.568 44.1405C144.568 46.9495 142.756 48.9429 140.128 48.9429C138.769 48.9429 137.682 48.4898 136.957 47.5837L136.776 48.6711H134.601V35.7137H137.048V40.5161C137.772 39.7912 138.86 39.3382 140.038 39.3382C142.665 39.3382 144.568 41.3316 144.568 44.1405ZM142.031 44.1405C142.031 42.6001 141.034 41.5128 139.494 41.5128C138.044 41.5128 136.957 42.6001 136.957 44.1405C136.957 45.6809 137.954 46.7682 139.494 46.7682C141.034 46.7682 142.031 45.6809 142.031 44.1405Z" fill="#FCB533"/>
<path d="M155.351 44.956H148.283C148.465 46.1339 149.461 46.8588 150.911 46.8588C151.908 46.8588 152.905 46.4964 153.448 45.9527L154.807 47.4025C153.811 48.3992 152.361 48.9429 150.73 48.9429C147.649 48.9429 145.656 47.04 145.656 44.1405C145.656 41.241 147.649 39.3381 150.458 39.3381C153.992 39.3381 155.804 41.6034 155.351 44.956ZM148.374 43.325H153.086C152.995 42.1471 152.089 41.4222 150.73 41.4222C149.371 41.4222 148.555 42.1471 148.374 43.325Z" fill="#FCB533"/>
<path d="M164.503 40.2442L163.416 42.147C162.872 41.7845 162.419 41.6939 161.966 41.6939C160.607 41.6939 159.701 42.6 159.701 44.3216V48.7616H157.254V39.6099H159.429L159.61 40.7878C160.335 39.8817 161.151 39.4287 162.238 39.4287C162.963 39.3381 163.869 39.7005 164.503 40.2442Z" fill="#FCB533"/>
<path d="M86.3058 48.671V43.7781C86.3058 42.6001 85.6715 41.5128 84.403 41.5128C83.225 41.5128 82.5001 42.6001 82.5001 43.7781V48.671H80.2349V39.5194H82.3189L82.5001 40.6067C82.9532 39.7006 84.0405 39.3381 84.9466 39.3381C86.0339 39.3381 87.1213 39.7912 87.6649 41.0597C88.4804 39.7912 89.5678 39.4287 90.7457 39.4287C93.3734 39.4287 94.6419 41.0597 94.6419 43.7781V48.671H92.3767V43.7781C92.3767 42.6001 91.833 41.5128 90.6551 41.5128C89.4771 41.5128 88.6616 42.6001 88.6616 43.7781V48.671H86.3058Z" fill="#253746"/>
<path d="M98.4477 44.0498C98.4477 45.7714 99.6256 46.8587 101.166 46.8587C104.7 46.8587 104.7 41.3315 101.166 41.3315C99.6256 41.3315 98.4477 42.3282 98.4477 44.0498ZM103.884 39.5193H106.059V48.6709H103.884L103.794 47.3118C103.25 48.3991 101.891 48.9428 100.804 48.9428C98.0852 48.9428 96.0918 47.3118 96.0918 44.0498C96.0918 40.8784 98.1758 39.2474 100.894 39.2474C102.072 39.2474 103.25 39.7911 103.794 40.6972L103.884 39.5193Z" fill="#253746"/>
<path d="M108.143 39.5194V48.671H110.408V39.5194H108.143ZM110.589 36.8917C110.589 38.6133 107.961 38.6133 107.961 36.8917C107.961 35.1701 110.589 35.1701 110.589 36.8917Z" fill="#253746"/>
<path d="M114.848 44.1405C114.848 45.7715 116.026 46.8588 117.476 46.8588C118.926 46.8588 120.103 45.7715 120.103 44.1405C120.103 42.5095 118.926 41.5128 117.476 41.5128C116.117 41.5128 114.848 42.5095 114.848 44.1405ZM114.757 35.7137V40.7879C115.301 39.8818 116.751 39.3382 117.748 39.3382C120.375 39.3382 122.369 40.9692 122.369 44.1405C122.369 47.1307 120.375 48.9429 117.657 48.9429C116.57 48.9429 115.392 48.5804 114.667 47.4931L114.576 48.6711H112.492V35.7137H114.757Z" fill="#253746"/>
<path d="M77.0635 38.7039C75.8855 36.8917 73.8015 35.6232 71.4456 35.6232C67.7306 35.6232 64.8311 38.6133 64.8311 42.2377C64.8311 42.6908 64.9217 43.1438 64.9217 43.5969C70.6301 40.0631 75.1607 38.9758 77.0635 38.7039Z" fill="#3BBFAD"/>
<path d="M77.2449 38.8851C71.6271 41.3316 68.0026 45.4997 66.8247 46.9495C68.0026 48.1274 69.7242 48.9429 71.5365 48.9429C75.2515 48.9429 78.151 45.9528 78.151 42.3283C78.151 41.0598 77.7886 39.8818 77.2449 38.8851Z" fill="#3BBFAD"/>
<path d="M71.3066 23.3293H68.1938L68.1772 21.4202H70.7007C71.1545 21.4202 71.5169 21.3704 71.7881 21.2708C72.0592 21.1656 72.2557 21.0134 72.3774 20.8142C72.5047 20.615 72.5684 20.366 72.5684 20.0671C72.5684 19.724 72.5047 19.4473 72.3774 19.2371C72.2502 19.0268 72.0482 18.8746 71.7715 18.7805C71.5003 18.6809 71.1489 18.6311 70.7173 18.6311H69.2896V28.4675H66.376V16.3816H70.7173C71.4644 16.3816 72.1312 16.4508 72.7178 16.5891C73.3044 16.7219 73.8024 16.9267 74.2119 17.2034C74.627 17.4801 74.9424 17.8287 75.1582 18.2493C75.374 18.6643 75.4819 19.1541 75.4819 19.7185C75.4819 20.211 75.3768 20.6731 75.1665 21.1047C74.9562 21.5364 74.6048 21.8878 74.1123 22.1589C73.6253 22.4246 72.9585 22.5629 72.1118 22.574L71.3066 23.3293ZM71.1904 28.4675H67.4883L68.4844 26.2263H71.1904C71.5889 26.2263 71.9071 26.1654 72.145 26.0437C72.3885 25.9164 72.5628 25.7504 72.668 25.5457C72.7786 25.3354 72.834 25.1029 72.834 24.8484C72.834 24.5385 72.7814 24.2701 72.6763 24.0432C72.5767 23.8163 72.4162 23.642 72.1948 23.5203C71.9735 23.393 71.6774 23.3293 71.3066 23.3293H68.8579L68.8745 21.4202H71.8047L72.4854 22.1838C73.2933 22.1506 73.9325 22.2641 74.4028 22.5242C74.8787 22.7843 75.2191 23.1274 75.4238 23.5535C75.6286 23.9796 75.731 24.425 75.731 24.8899C75.731 25.6812 75.5594 26.3425 75.2163 26.8738C74.8787 27.405 74.3724 27.8035 73.6973 28.0691C73.0221 28.3347 72.1865 28.4675 71.1904 28.4675ZM87.6011 16.3816V28.4675H84.8037V19.5359L82.0479 20.3411V18.2161L87.3438 16.3816H87.6011ZM97.4624 16.3816V28.4675H94.665V19.5359L91.9092 20.3411V18.2161L97.2051 16.3816H97.4624ZM110.03 24.8069H107.274L107.257 23.0803H109.548C109.775 23.0803 109.955 23.0554 110.088 23.0056C110.226 22.9558 110.323 22.8811 110.378 22.7815C110.439 22.6764 110.47 22.5518 110.47 22.408C110.47 22.2641 110.448 22.1423 110.403 22.0427C110.365 21.9431 110.301 21.8629 110.212 21.802C110.129 21.7411 110.024 21.6969 109.897 21.6692C109.77 21.6415 109.62 21.6277 109.449 21.6277H108.395V28.4675H105.597V19.4861H109.449C110.041 19.4861 110.572 19.5387 111.042 19.6438C111.513 19.7434 111.911 19.8984 112.238 20.1086C112.57 20.3134 112.824 20.5735 113.001 20.8889C113.179 21.2043 113.267 21.5751 113.267 22.0012C113.267 22.2779 113.201 22.538 113.068 22.7815C112.935 23.025 112.739 23.2408 112.479 23.429C112.224 23.6171 111.909 23.7721 111.532 23.8938C111.156 24.01 110.724 24.0819 110.237 24.1096L110.03 24.8069ZM110.03 28.4675H106.668L107.523 26.3259H110.03C110.262 26.3259 110.45 26.2983 110.594 26.2429C110.738 26.1876 110.843 26.1046 110.91 25.9939C110.976 25.8832 111.009 25.7476 111.009 25.5872C111.009 25.4322 110.982 25.2966 110.926 25.1804C110.871 25.0642 110.771 24.9729 110.627 24.9065C110.489 24.8401 110.29 24.8069 110.03 24.8069H107.838L107.855 23.0803H110.221L110.818 23.7859C111.516 23.8246 112.083 23.9436 112.52 24.1428C112.963 24.342 113.286 24.5938 113.491 24.8982C113.701 25.2026 113.807 25.5374 113.807 25.9026C113.807 26.3287 113.724 26.7022 113.558 27.0232C113.397 27.3442 113.156 27.6125 112.835 27.8284C112.514 28.0387 112.119 28.1991 111.648 28.3098C111.184 28.415 110.644 28.4675 110.03 28.4675ZM119.293 24.1843H117.451V23.0554H118.604C118.842 23.0554 119.033 23.0194 119.177 22.9475C119.327 22.8756 119.435 22.776 119.501 22.6487C119.573 22.5159 119.609 22.3665 119.609 22.2004C119.609 22.0566 119.584 21.9182 119.534 21.7854C119.49 21.6526 119.401 21.5419 119.269 21.4534C119.136 21.3648 118.939 21.3206 118.679 21.3206C118.463 21.3206 118.275 21.3482 118.115 21.4036C117.954 21.4589 117.83 21.5447 117.741 21.6609C117.653 21.7716 117.608 21.9154 117.608 22.0925H114.803C114.803 21.5115 114.969 21.0162 115.301 20.6067C115.633 20.1917 116.078 19.8762 116.637 19.6604C117.196 19.439 117.813 19.3284 118.488 19.3284C119.08 19.3284 119.617 19.3865 120.099 19.5027C120.58 19.6134 120.992 19.7794 121.335 20.0007C121.679 20.2221 121.941 20.496 122.124 20.8225C122.312 21.1435 122.406 21.517 122.406 21.9431C122.406 22.2475 122.334 22.5352 122.19 22.8064C122.047 23.0776 121.839 23.3183 121.568 23.5286C121.297 23.7333 120.967 23.8938 120.58 24.01C120.198 24.1262 119.769 24.1843 119.293 24.1843ZM117.451 23.5867H119.293C119.825 23.5867 120.292 23.6392 120.696 23.7444C121.106 23.844 121.449 23.9934 121.726 24.1926C122.002 24.3918 122.21 24.6381 122.348 24.9314C122.492 25.2192 122.564 25.5512 122.564 25.9275C122.564 26.3536 122.464 26.7354 122.265 27.073C122.066 27.405 121.784 27.6873 121.418 27.9197C121.053 28.1521 120.622 28.3292 120.124 28.4509C119.625 28.5727 119.08 28.6335 118.488 28.6335C117.863 28.6335 117.257 28.5339 116.67 28.3347C116.084 28.1355 115.602 27.8284 115.226 27.4133C114.85 26.9983 114.662 26.4643 114.662 25.8113H117.467C117.467 25.9607 117.509 26.099 117.592 26.2263C117.675 26.3536 117.805 26.456 117.982 26.5334C118.165 26.6054 118.4 26.6414 118.688 26.6414C118.97 26.6414 119.188 26.5943 119.343 26.5002C119.504 26.4062 119.614 26.2844 119.675 26.135C119.742 25.9856 119.775 25.8334 119.775 25.6785C119.775 25.4405 119.731 25.2496 119.642 25.1057C119.554 24.9618 119.421 24.8567 119.244 24.7903C119.072 24.7183 118.859 24.6824 118.604 24.6824H117.451V23.5867ZM129.96 22.989V25.1389H125.478V22.989H129.96ZM126.499 19.4861V28.4675H123.701V19.4861H126.499ZM131.753 19.4861V28.4675H128.947V19.4861H131.753ZM132.948 24.0681V23.8938C132.948 23.2353 133.042 22.6293 133.23 22.0759C133.419 21.517 133.695 21.0328 134.061 20.6233C134.426 20.2138 134.877 19.8956 135.414 19.6687C135.95 19.4363 136.57 19.3201 137.273 19.3201C137.981 19.3201 138.604 19.4363 139.141 19.6687C139.683 19.8956 140.137 20.2138 140.502 20.6233C140.867 21.0328 141.144 21.517 141.332 22.0759C141.52 22.6293 141.614 23.2353 141.614 23.8938V24.0681C141.614 24.7211 141.52 25.3271 141.332 25.886C141.144 26.4394 140.867 26.9236 140.502 27.3386C140.137 27.7481 139.686 28.0663 139.149 28.2932C138.612 28.5201 137.992 28.6335 137.29 28.6335C136.587 28.6335 135.964 28.5201 135.422 28.2932C134.88 28.0663 134.426 27.7481 134.061 27.3386C133.695 26.9236 133.419 26.4394 133.23 25.886C133.042 25.3271 132.948 24.7211 132.948 24.0681ZM135.746 23.8938V24.0681C135.746 24.4057 135.771 24.7211 135.82 25.0144C135.87 25.3077 135.953 25.565 136.069 25.7864C136.186 26.0022 136.343 26.171 136.542 26.2927C136.742 26.4145 136.991 26.4753 137.29 26.4753C137.583 26.4753 137.826 26.4145 138.02 26.2927C138.219 26.171 138.377 26.0022 138.493 25.7864C138.609 25.565 138.692 25.3077 138.742 25.0144C138.792 24.7211 138.817 24.4057 138.817 24.0681V23.8938C138.817 23.5673 138.792 23.2602 138.742 22.9724C138.692 22.6791 138.609 22.4218 138.493 22.2004C138.377 21.9736 138.219 21.7965 138.02 21.6692C137.821 21.5419 137.572 21.4783 137.273 21.4783C136.98 21.4783 136.733 21.5419 136.534 21.6692C136.34 21.7965 136.186 21.9736 136.069 22.2004C135.953 22.4218 135.87 22.6791 135.82 22.9724C135.771 23.2602 135.746 23.5673 135.746 23.8938ZM146.653 26.4753C146.913 26.4753 147.134 26.4283 147.317 26.3342C147.505 26.2346 147.646 26.0963 147.74 25.9192C147.84 25.7366 147.887 25.518 147.881 25.2634H150.513C150.518 25.9386 150.352 26.5307 150.015 27.0398C149.683 27.5434 149.229 27.9363 148.653 28.2185C148.083 28.4952 147.439 28.6335 146.719 28.6335C146.016 28.6335 145.402 28.5201 144.876 28.2932C144.351 28.0608 143.911 27.7398 143.557 27.3303C143.208 26.9153 142.945 26.4311 142.768 25.8777C142.597 25.3243 142.511 24.7239 142.511 24.0764V23.8855C142.511 23.238 142.597 22.6376 142.768 22.0842C142.945 21.5253 143.208 21.0411 143.557 20.6316C143.911 20.2166 144.348 19.8956 144.868 19.6687C145.394 19.4363 146.005 19.3201 146.703 19.3201C147.45 19.3201 148.108 19.4612 148.678 19.7434C149.254 20.0256 149.705 20.4351 150.031 20.9719C150.358 21.5087 150.518 22.1589 150.513 22.9226H147.881C147.887 22.6514 147.845 22.408 147.757 22.1921C147.668 21.9763 147.53 21.8048 147.342 21.6775C147.159 21.5447 146.924 21.4783 146.636 21.4783C146.348 21.4783 146.116 21.5419 145.939 21.6692C145.762 21.7965 145.626 21.9736 145.532 22.2004C145.444 22.4218 145.383 22.6764 145.35 22.9641C145.322 23.2519 145.308 23.559 145.308 23.8855V24.0764C145.308 24.4084 145.322 24.7211 145.35 25.0144C145.383 25.3022 145.446 25.5567 145.541 25.7781C145.635 25.9939 145.77 26.1654 145.947 26.2927C146.124 26.4145 146.36 26.4753 146.653 26.4753ZM151.359 24.0681V23.8938C151.359 23.2353 151.453 22.6293 151.642 22.0759C151.83 21.517 152.106 21.0328 152.472 20.6233C152.837 20.2138 153.288 19.8956 153.825 19.6687C154.361 19.4363 154.981 19.3201 155.684 19.3201C156.392 19.3201 157.015 19.4363 157.552 19.6687C158.094 19.8956 158.548 20.2138 158.913 20.6233C159.278 21.0328 159.555 21.517 159.743 22.0759C159.931 22.6293 160.025 23.2353 160.025 23.8938V24.0681C160.025 24.7211 159.931 25.3271 159.743 25.886C159.555 26.4394 159.278 26.9236 158.913 27.3386C158.548 27.7481 158.097 28.0663 157.56 28.2932C157.023 28.5201 156.403 28.6335 155.701 28.6335C154.998 28.6335 154.375 28.5201 153.833 28.2932C153.291 28.0663 152.837 27.7481 152.472 27.3386C152.106 26.9236 151.83 26.4394 151.642 25.886C151.453 25.3271 151.359 24.7211 151.359 24.0681ZM154.157 23.8938V24.0681C154.157 24.4057 154.182 24.7211 154.231 25.0144C154.281 25.3077 154.364 25.565 154.48 25.7864C154.597 26.0022 154.754 26.171 154.954 26.2927C155.153 26.4145 155.402 26.4753 155.701 26.4753C155.994 26.4753 156.237 26.4145 156.431 26.2927C156.63 26.171 156.788 26.0022 156.904 25.7864C157.021 25.565 157.104 25.3077 157.153 25.0144C157.203 24.7211 157.228 24.4057 157.228 24.0681V23.8938C157.228 23.5673 157.203 23.2602 157.153 22.9724C157.104 22.6791 157.021 22.4218 156.904 22.2004C156.788 21.9736 156.63 21.7965 156.431 21.6692C156.232 21.5419 155.983 21.4783 155.684 21.4783C155.391 21.4783 155.145 21.5419 154.945 21.6692C154.752 21.7965 154.597 21.9736 154.48 22.2004C154.364 22.4218 154.281 22.6791 154.231 22.9724C154.182 23.2602 154.157 23.5673 154.157 23.8938ZM165.894 24.8069H163.138L163.122 23.0803H165.413C165.639 23.0803 165.819 23.0554 165.952 23.0056C166.09 22.9558 166.187 22.8811 166.243 22.7815C166.304 22.6764 166.334 22.5518 166.334 22.408C166.334 22.2641 166.312 22.1423 166.268 22.0427C166.229 21.9431 166.165 21.8629 166.077 21.802C165.994 21.7411 165.889 21.6969 165.761 21.6692C165.634 21.6415 165.485 21.6277 165.313 21.6277H164.259V28.4675H161.461V19.4861H165.313C165.905 19.4861 166.436 19.5387 166.907 19.6438C167.377 19.7434 167.776 19.8984 168.102 20.1086C168.434 20.3134 168.689 20.5735 168.866 20.8889C169.043 21.2043 169.131 21.5751 169.131 22.0012C169.131 22.2779 169.065 22.538 168.932 22.7815C168.799 23.025 168.603 23.2408 168.343 23.429C168.088 23.6171 167.773 23.7721 167.396 23.8938C167.02 24.01 166.589 24.0819 166.102 24.1096L165.894 24.8069ZM165.894 28.4675H162.532L163.387 26.3259H165.894C166.126 26.3259 166.315 26.2983 166.458 26.2429C166.602 26.1876 166.708 26.1046 166.774 25.9939C166.84 25.8832 166.874 25.7476 166.874 25.5872C166.874 25.4322 166.846 25.2966 166.791 25.1804C166.735 25.0642 166.636 24.9729 166.492 24.9065C166.353 24.8401 166.154 24.8069 165.894 24.8069H163.703L163.719 23.0803H166.085L166.683 23.7859C167.38 23.8246 167.947 23.9436 168.384 24.1428C168.827 24.342 169.151 24.5938 169.355 24.8982C169.566 25.2026 169.671 25.5374 169.671 25.9026C169.671 26.3287 169.588 26.7022 169.422 27.0232C169.261 27.3442 169.021 27.6125 168.7 27.8284C168.379 28.0387 167.983 28.1991 167.513 28.3098C167.048 28.415 166.508 28.4675 165.894 28.4675ZM178.843 26.4753C179.103 26.4753 179.325 26.4283 179.507 26.3342C179.695 26.2346 179.837 26.0963 179.931 25.9192C180.03 25.7366 180.077 25.518 180.072 25.2634H182.703C182.709 25.9386 182.543 26.5307 182.205 27.0398C181.873 27.5434 181.419 27.9363 180.844 28.2185C180.274 28.4952 179.629 28.6335 178.91 28.6335C178.207 28.6335 177.593 28.5201 177.067 28.2932C176.541 28.0608 176.101 27.7398 175.747 27.3303C175.398 26.9153 175.136 26.4311 174.958 25.8777C174.787 25.3243 174.701 24.7239 174.701 24.0764V23.8855C174.701 23.238 174.787 22.6376 174.958 22.0842C175.136 21.5253 175.398 21.0411 175.747 20.6316C176.101 20.2166 176.538 19.8956 177.059 19.6687C177.584 19.4363 178.196 19.3201 178.893 19.3201C179.64 19.3201 180.299 19.4612 180.869 19.7434C181.444 20.0256 181.895 20.4351 182.222 20.9719C182.548 21.5087 182.709 22.1589 182.703 22.9226H180.072C180.077 22.6514 180.036 22.408 179.947 22.1921C179.859 21.9763 179.72 21.8048 179.532 21.6775C179.35 21.5447 179.114 21.4783 178.827 21.4783C178.539 21.4783 178.306 21.5419 178.129 21.6692C177.952 21.7965 177.817 21.9736 177.723 22.2004C177.634 22.4218 177.573 22.6764 177.54 22.9641C177.512 23.2519 177.499 23.559 177.499 23.8855V24.0764C177.499 24.4084 177.512 24.7211 177.54 25.0144C177.573 25.3022 177.637 25.5567 177.731 25.7781C177.825 25.9939 177.961 26.1654 178.138 26.2927C178.315 26.4145 178.55 26.4753 178.843 26.4753Z" fill="#253746"/>
</svg>
