<svg width="192" height="64" viewBox="0 0 192 64" fill="none" xmlns="http://www.w3.org/2000/svg">
<rect x="0.311688" y="0.311688" width="191.377" height="62.961" rx="5.92208" fill="white"/>
<rect x="0.311688" y="0.311688" width="191.377" height="62.961" rx="5.92208" stroke="#253746" stroke-width="0.623377"/>
<path d="M30.5735 28.864V32.7311C30.5735 34.409 30.3944 35.8566 30.0363 37.074C29.6783 38.2812 29.1616 39.2736 28.4864 40.0511C27.8214 40.8184 27.0286 41.3862 26.1078 41.7545C25.1871 42.1228 24.164 42.3069 23.0387 42.3069C22.1384 42.3069 21.2995 42.1944 20.522 41.9693C19.7444 41.734 19.0436 41.3708 18.4196 40.8798C17.8058 40.3887 17.2738 39.7697 16.8236 39.0229C16.3837 38.2659 16.0461 37.3656 15.8108 36.3221C15.5755 35.2785 15.4578 34.0816 15.4578 32.7311V28.864C15.4578 27.1862 15.6369 25.7488 15.995 24.5518C16.3633 23.3446 16.8799 22.3574 17.5449 21.5901C18.2201 20.8228 19.0181 20.2601 19.9388 19.9021C20.8596 19.5338 21.8826 19.3496 23.008 19.3496C23.9083 19.3496 24.7421 19.4673 25.5093 19.7026C26.2869 19.9276 26.9877 20.2806 27.6117 20.7614C28.2358 21.2423 28.7678 21.8612 29.2077 22.6183C29.6476 23.3651 29.9852 24.2603 30.2205 25.3038C30.4558 26.3371 30.5735 27.5238 30.5735 28.864ZM26.1385 33.3143V28.2655C26.1385 27.4573 26.0925 26.7514 26.0004 26.1478C25.9186 25.5442 25.7907 25.0327 25.6168 24.6132C25.4428 24.1835 25.228 23.8357 24.9722 23.5697C24.7165 23.3037 24.4249 23.1093 24.0975 22.9866C23.7702 22.8638 23.407 22.8024 23.008 22.8024C22.5067 22.8024 22.0617 22.8996 21.6729 23.094C21.2944 23.2884 20.9721 23.6004 20.7061 24.0301C20.4401 24.4495 20.2355 25.0122 20.0923 25.7181C19.9593 26.4138 19.8928 27.2629 19.8928 28.2655V33.3143C19.8928 34.1225 19.9337 34.8335 20.0155 35.4473C20.1076 36.0612 20.2406 36.5881 20.4145 37.028C20.5987 37.4576 20.8135 37.8106 21.0591 38.0868C21.3148 38.3528 21.6064 38.5472 21.9338 38.67C22.2714 38.7927 22.6397 38.8541 23.0387 38.8541C23.5297 38.8541 23.9645 38.7569 24.3431 38.5625C24.7318 38.3579 25.0592 38.0408 25.3252 37.6111C25.6014 37.1712 25.806 36.5983 25.939 35.8924C26.072 35.1865 26.1385 34.3271 26.1385 33.3143ZM33.5198 25.135V23.9534C33.5198 23.1042 33.704 22.3318 34.0723 21.6361C34.4406 20.9405 34.9828 20.3829 35.6989 19.9634C36.4151 19.544 37.2949 19.3343 38.3384 19.3343C39.4126 19.3343 40.3078 19.544 41.0239 19.9634C41.7503 20.3829 42.2925 20.9405 42.6506 21.6361C43.0189 22.3318 43.203 23.1042 43.203 23.9534V25.135C43.203 25.9637 43.0189 26.7258 42.6506 27.4215C42.2925 28.1172 41.7554 28.6747 41.0393 29.0942C40.3231 29.5136 39.4382 29.7234 38.3845 29.7234C37.3205 29.7234 36.4253 29.5136 35.6989 29.0942C34.9828 28.6747 34.4406 28.1172 34.0723 27.4215C33.704 26.7258 33.5198 25.9637 33.5198 25.135ZM36.4509 23.9534V25.135C36.4509 25.493 36.5174 25.8358 36.6504 26.1631C36.7936 26.4803 37.0085 26.7412 37.2949 26.9458C37.5916 27.1402 37.9497 27.2374 38.3691 27.2374C38.809 27.2374 39.1671 27.1402 39.4433 26.9458C39.7195 26.7412 39.9242 26.4803 40.0571 26.1631C40.1901 25.8358 40.2566 25.493 40.2566 25.135V23.9534C40.2566 23.5748 40.185 23.227 40.0418 22.9098C39.9088 22.5825 39.6991 22.3216 39.4126 22.1272C39.1364 21.9226 38.7783 21.8203 38.3384 21.8203C37.9292 21.8203 37.5814 21.9226 37.2949 22.1272C37.0085 22.3216 36.7936 22.5825 36.6504 22.9098C36.5174 23.227 36.4509 23.5748 36.4509 23.9534ZM44.2005 37.7032V36.5216C44.2005 35.6827 44.3847 34.9154 44.753 34.2197C45.1315 33.524 45.6788 32.9664 46.395 32.547C47.1213 32.1275 48.0114 31.9178 49.0651 31.9178C50.1291 31.9178 51.0192 32.1275 51.7353 32.547C52.4514 32.9664 52.9936 33.524 53.3619 34.2197C53.7302 34.9154 53.9144 35.6827 53.9144 36.5216V37.7032C53.9144 38.5421 53.7302 39.3094 53.3619 40.005C53.0039 40.7007 52.4668 41.2583 51.7506 41.6777C51.0345 42.0972 50.1496 42.3069 49.0958 42.3069C48.0318 42.3069 47.1367 42.0972 46.4103 41.6777C45.6839 41.2583 45.1315 40.7007 44.753 40.005C44.3847 39.3094 44.2005 38.5421 44.2005 37.7032ZM47.1469 36.5216V37.7032C47.1469 38.0715 47.2287 38.4193 47.3924 38.7467C47.5561 39.0741 47.7812 39.3349 48.0676 39.5293C48.3643 39.7237 48.7071 39.8209 49.0958 39.8209C49.5869 39.8209 49.9705 39.7237 50.2468 39.5293C50.523 39.3349 50.7122 39.0741 50.8145 38.7467C50.9271 38.4193 50.9833 38.0715 50.9833 37.7032V36.5216C50.9833 36.1533 50.9117 35.8105 50.7685 35.4934C50.6253 35.166 50.4104 34.9051 50.124 34.7108C49.8478 34.5061 49.4948 34.4038 49.0651 34.4038C48.6354 34.4038 48.2774 34.5061 47.9909 34.7108C47.7147 34.9051 47.505 35.166 47.3617 35.4934C47.2185 35.8105 47.1469 36.1533 47.1469 36.5216ZM50.1547 22.8485L39.2438 40.312L37.0954 39.1764L48.0063 21.7129L50.1547 22.8485Z" fill="#FCB533"/>
<path d="M124.906 35.7137H127.353V48.7617H124.906V35.7137Z" fill="#FCB533"/>
<path d="M129.437 36.9822C129.437 36.1667 130.071 35.5325 130.977 35.5325C131.883 35.5325 132.517 36.1667 132.517 36.9822C132.517 37.7977 131.883 38.432 130.977 38.432C130.071 38.432 129.437 37.7977 129.437 36.9822ZM129.708 39.6099H132.155V48.7616H129.708V39.6099Z" fill="#FCB533"/>
<path d="M144.568 44.1405C144.568 46.9495 142.756 48.9429 140.128 48.9429C138.769 48.9429 137.682 48.4898 136.957 47.5837L136.776 48.6711H134.601V35.7137H137.048V40.5161C137.772 39.7912 138.86 39.3382 140.038 39.3382C142.665 39.3382 144.568 41.3316 144.568 44.1405ZM142.031 44.1405C142.031 42.6001 141.034 41.5128 139.494 41.5128C138.044 41.5128 136.957 42.6001 136.957 44.1405C136.957 45.6809 137.954 46.7682 139.494 46.7682C141.034 46.7682 142.031 45.6809 142.031 44.1405Z" fill="#FCB533"/>
<path d="M155.351 44.956H148.283C148.465 46.1339 149.461 46.8588 150.911 46.8588C151.908 46.8588 152.905 46.4964 153.448 45.9527L154.807 47.4025C153.811 48.3992 152.361 48.9429 150.73 48.9429C147.649 48.9429 145.656 47.04 145.656 44.1405C145.656 41.241 147.649 39.3381 150.458 39.3381C153.992 39.3381 155.804 41.6034 155.351 44.956ZM148.374 43.325H153.086C152.995 42.1471 152.089 41.4222 150.73 41.4222C149.371 41.4222 148.555 42.1471 148.374 43.325Z" fill="#FCB533"/>
<path d="M164.503 40.2442L163.416 42.147C162.872 41.7845 162.419 41.6939 161.966 41.6939C160.607 41.6939 159.701 42.6 159.701 44.3216V48.7616H157.254V39.6099H159.429L159.61 40.7878C160.335 39.8817 161.151 39.4287 162.238 39.4287C162.963 39.3381 163.869 39.7005 164.503 40.2442Z" fill="#FCB533"/>
<path d="M86.3058 48.671V43.7781C86.3058 42.6001 85.6715 41.5128 84.403 41.5128C83.225 41.5128 82.5001 42.6001 82.5001 43.7781V48.671H80.2349V39.5194H82.3189L82.5001 40.6067C82.9532 39.7006 84.0405 39.3381 84.9466 39.3381C86.0339 39.3381 87.1213 39.7912 87.6649 41.0597C88.4804 39.7912 89.5678 39.4287 90.7457 39.4287C93.3734 39.4287 94.6419 41.0597 94.6419 43.7781V48.671H92.3767V43.7781C92.3767 42.6001 91.833 41.5128 90.6551 41.5128C89.4771 41.5128 88.6616 42.6001 88.6616 43.7781V48.671H86.3058Z" fill="#253746"/>
<path d="M98.4477 44.0498C98.4477 45.7714 99.6256 46.8587 101.166 46.8587C104.7 46.8587 104.7 41.3315 101.166 41.3315C99.6256 41.3315 98.4477 42.3282 98.4477 44.0498ZM103.884 39.5193H106.059V48.6709H103.884L103.794 47.3118C103.25 48.3991 101.891 48.9428 100.804 48.9428C98.0852 48.9428 96.0918 47.3118 96.0918 44.0498C96.0918 40.8784 98.1758 39.2474 100.894 39.2474C102.072 39.2474 103.25 39.7911 103.794 40.6972L103.884 39.5193Z" fill="#253746"/>
<path d="M108.143 39.5194V48.671H110.408V39.5194H108.143ZM110.589 36.8917C110.589 38.6133 107.961 38.6133 107.961 36.8917C107.961 35.1701 110.589 35.1701 110.589 36.8917Z" fill="#253746"/>
<path d="M114.848 44.1405C114.848 45.7715 116.026 46.8588 117.476 46.8588C118.926 46.8588 120.103 45.7715 120.103 44.1405C120.103 42.5095 118.926 41.5128 117.476 41.5128C116.117 41.5128 114.848 42.5095 114.848 44.1405ZM114.757 35.7137V40.7879C115.301 39.8818 116.751 39.3382 117.748 39.3382C120.375 39.3382 122.369 40.9692 122.369 44.1405C122.369 47.1307 120.375 48.9429 117.657 48.9429C116.57 48.9429 115.392 48.5804 114.667 47.4931L114.576 48.6711H112.492V35.7137H114.757Z" fill="#253746"/>
<path d="M77.0635 38.7039C75.8855 36.8917 73.8015 35.6232 71.4456 35.6232C67.7306 35.6232 64.8311 38.6133 64.8311 42.2377C64.8311 42.6908 64.9217 43.1438 64.9217 43.5969C70.6301 40.0631 75.1607 38.9758 77.0635 38.7039Z" fill="#3BBFAD"/>
<path d="M77.2449 38.8851C71.6271 41.3316 68.0026 45.4997 66.8247 46.9495C68.0026 48.1274 69.7242 48.9429 71.5365 48.9429C75.2515 48.9429 78.151 45.9528 78.151 42.3283C78.151 41.0598 77.7886 39.8818 77.2449 38.8851Z" fill="#3BBFAD"/>
<path d="M70.8667 24.8069H68.1108L68.0942 23.0803H70.3853C70.6121 23.0803 70.792 23.0554 70.9248 23.0056C71.0632 22.9558 71.16 22.8811 71.2153 22.7815C71.2762 22.6764 71.3066 22.5518 71.3066 22.408C71.3066 22.2641 71.2845 22.1423 71.2402 22.0427C71.2015 21.9431 71.1379 21.8629 71.0493 21.802C70.9663 21.7411 70.8612 21.6969 70.7339 21.6692C70.6066 21.6415 70.4572 21.6277 70.2856 21.6277H69.2314V28.4675H66.4341V19.4861H70.2856C70.8778 19.4861 71.409 19.5387 71.8794 19.6438C72.3498 19.7434 72.7482 19.8984 73.0747 20.1086C73.4067 20.3134 73.6613 20.5735 73.8384 20.8889C74.0155 21.2043 74.104 21.5751 74.104 22.0012C74.104 22.2779 74.0376 22.538 73.9048 22.7815C73.772 23.025 73.5755 23.2408 73.3154 23.429C73.0609 23.6171 72.7454 23.7721 72.3691 23.8938C71.9928 24.01 71.5612 24.0819 71.0742 24.1096L70.8667 24.8069ZM70.8667 28.4675H67.5049L68.3599 26.3259H70.8667C71.0991 26.3259 71.2873 26.2983 71.4312 26.2429C71.575 26.1876 71.6802 26.1046 71.7466 25.9939C71.813 25.8832 71.8462 25.7476 71.8462 25.5872C71.8462 25.4322 71.8185 25.2966 71.7632 25.1804C71.7078 25.0642 71.6082 24.9729 71.4644 24.9065C71.326 24.8401 71.1268 24.8069 70.8667 24.8069H68.6753L68.6919 23.0803H71.0576L71.6553 23.7859C72.3525 23.8246 72.9198 23.9436 73.3569 24.1428C73.7996 24.342 74.1234 24.5938 74.3281 24.8982C74.5384 25.2026 74.6436 25.5374 74.6436 25.9026C74.6436 26.3287 74.5605 26.7022 74.3945 27.0232C74.234 27.3442 73.9933 27.6125 73.6724 27.8284C73.3514 28.0387 72.9557 28.1991 72.4854 28.3098C72.0205 28.415 71.481 28.4675 70.8667 28.4675ZM86.1733 16.3816V28.4675H83.376V19.5359L80.6201 20.3411V18.2161L85.916 16.3816H86.1733ZM96.0347 16.3816V28.4675H93.2373V19.5359L90.4814 20.3411V18.2161L95.7773 16.3816H96.0347ZM108.602 24.8069H105.846L105.83 23.0803H108.121C108.347 23.0803 108.527 23.0554 108.66 23.0056C108.799 22.9558 108.895 22.8811 108.951 22.7815C109.012 22.6764 109.042 22.5518 109.042 22.408C109.042 22.2641 109.02 22.1423 108.976 22.0427C108.937 21.9431 108.873 21.8629 108.785 21.802C108.702 21.7411 108.597 21.6969 108.469 21.6692C108.342 21.6415 108.193 21.6277 108.021 21.6277H106.967V28.4675H104.169V19.4861H108.021C108.613 19.4861 109.144 19.5387 109.615 19.6438C110.085 19.7434 110.484 19.8984 110.81 20.1086C111.142 20.3134 111.397 20.5735 111.574 20.8889C111.751 21.2043 111.839 21.5751 111.839 22.0012C111.839 22.2779 111.773 22.538 111.64 22.7815C111.507 23.025 111.311 23.2408 111.051 23.429C110.796 23.6171 110.481 23.7721 110.104 23.8938C109.728 24.01 109.297 24.0819 108.81 24.1096L108.602 24.8069ZM108.602 28.4675H105.24L106.095 26.3259H108.602C108.834 26.3259 109.023 26.2983 109.167 26.2429C109.31 26.1876 109.416 26.1046 109.482 25.9939C109.548 25.8832 109.582 25.7476 109.582 25.5872C109.582 25.4322 109.554 25.2966 109.499 25.1804C109.443 25.0642 109.344 24.9729 109.2 24.9065C109.061 24.8401 108.862 24.8069 108.602 24.8069H106.411L106.427 23.0803H108.793L109.391 23.7859C110.088 23.8246 110.655 23.9436 111.092 24.1428C111.535 24.342 111.859 24.5938 112.063 24.8982C112.274 25.2026 112.379 25.5374 112.379 25.9026C112.379 26.3287 112.296 26.7022 112.13 27.0232C111.969 27.3442 111.729 27.6125 111.408 27.8284C111.087 28.0387 110.691 28.1991 110.221 28.3098C109.756 28.415 109.216 28.4675 108.602 28.4675ZM117.866 24.1843H116.023V23.0554H117.177C117.415 23.0554 117.606 23.0194 117.75 22.9475C117.899 22.8756 118.007 22.776 118.073 22.6487C118.145 22.5159 118.181 22.3665 118.181 22.2004C118.181 22.0566 118.156 21.9182 118.106 21.7854C118.062 21.6526 117.974 21.5419 117.841 21.4534C117.708 21.3648 117.512 21.3206 117.251 21.3206C117.036 21.3206 116.847 21.3482 116.687 21.4036C116.527 21.4589 116.402 21.5447 116.313 21.6609C116.225 21.7716 116.181 21.9154 116.181 22.0925H113.375C113.375 21.5115 113.541 21.0162 113.873 20.6067C114.205 20.1917 114.651 19.8762 115.209 19.6604C115.768 19.439 116.385 19.3284 117.061 19.3284C117.653 19.3284 118.189 19.3865 118.671 19.5027C119.152 19.6134 119.565 19.7794 119.908 20.0007C120.251 20.2221 120.514 20.496 120.696 20.8225C120.884 21.1435 120.979 21.517 120.979 21.9431C120.979 22.2475 120.907 22.5352 120.763 22.8064C120.619 23.0776 120.411 23.3183 120.14 23.5286C119.869 23.7333 119.54 23.8938 119.152 24.01C118.771 24.1262 118.342 24.1843 117.866 24.1843ZM116.023 23.5867H117.866C118.397 23.5867 118.865 23.6392 119.269 23.7444C119.678 23.844 120.021 23.9934 120.298 24.1926C120.575 24.3918 120.782 24.6381 120.92 24.9314C121.064 25.2192 121.136 25.5512 121.136 25.9275C121.136 26.3536 121.037 26.7354 120.837 27.073C120.638 27.405 120.356 27.6873 119.991 27.9197C119.625 28.1521 119.194 28.3292 118.696 28.4509C118.198 28.5727 117.653 28.6335 117.061 28.6335C116.435 28.6335 115.829 28.5339 115.243 28.3347C114.656 28.1355 114.175 27.8284 113.798 27.4133C113.422 26.9983 113.234 26.4643 113.234 25.8113H116.04C116.04 25.9607 116.081 26.099 116.164 26.2263C116.247 26.3536 116.377 26.456 116.554 26.5334C116.737 26.6054 116.972 26.6414 117.26 26.6414C117.542 26.6414 117.761 26.5943 117.916 26.5002C118.076 26.4062 118.187 26.2844 118.248 26.135C118.314 25.9856 118.347 25.8334 118.347 25.6785C118.347 25.4405 118.303 25.2496 118.214 25.1057C118.126 24.9618 117.993 24.8567 117.816 24.7903C117.644 24.7183 117.431 24.6824 117.177 24.6824H116.023V23.5867ZM128.532 22.989V25.1389H124.05V22.989H128.532ZM125.071 19.4861V28.4675H122.273V19.4861H125.071ZM130.325 19.4861V28.4675H127.52V19.4861H130.325ZM131.521 24.0681V23.8938C131.521 23.2353 131.615 22.6293 131.803 22.0759C131.991 21.517 132.268 21.0328 132.633 20.6233C132.998 20.2138 133.449 19.8956 133.986 19.6687C134.523 19.4363 135.142 19.3201 135.845 19.3201C136.554 19.3201 137.176 19.4363 137.713 19.6687C138.255 19.8956 138.709 20.2138 139.074 20.6233C139.439 21.0328 139.716 21.517 139.904 22.0759C140.092 22.6293 140.187 23.2353 140.187 23.8938V24.0681C140.187 24.7211 140.092 25.3271 139.904 25.886C139.716 26.4394 139.439 26.9236 139.074 27.3386C138.709 27.7481 138.258 28.0663 137.721 28.2932C137.184 28.5201 136.565 28.6335 135.862 28.6335C135.159 28.6335 134.536 28.5201 133.994 28.2932C133.452 28.0663 132.998 27.7481 132.633 27.3386C132.268 26.9236 131.991 26.4394 131.803 25.886C131.615 25.3271 131.521 24.7211 131.521 24.0681ZM134.318 23.8938V24.0681C134.318 24.4057 134.343 24.7211 134.393 25.0144C134.442 25.3077 134.525 25.565 134.642 25.7864C134.758 26.0022 134.916 26.171 135.115 26.2927C135.314 26.4145 135.563 26.4753 135.862 26.4753C136.155 26.4753 136.399 26.4145 136.592 26.2927C136.792 26.171 136.949 26.0022 137.065 25.7864C137.182 25.565 137.265 25.3077 137.314 25.0144C137.364 24.7211 137.389 24.4057 137.389 24.0681V23.8938C137.389 23.5673 137.364 23.2602 137.314 22.9724C137.265 22.6791 137.182 22.4218 137.065 22.2004C136.949 21.9736 136.792 21.7965 136.592 21.6692C136.393 21.5419 136.144 21.4783 135.845 21.4783C135.552 21.4783 135.306 21.5419 135.106 21.6692C134.913 21.7965 134.758 21.9736 134.642 22.2004C134.525 22.4218 134.442 22.6791 134.393 22.9724C134.343 23.2602 134.318 23.5673 134.318 23.8938ZM145.225 26.4753C145.485 26.4753 145.707 26.4283 145.889 26.3342C146.077 26.2346 146.218 26.0963 146.312 25.9192C146.412 25.7366 146.459 25.518 146.454 25.2634H149.085C149.09 25.9386 148.924 26.5307 148.587 27.0398C148.255 27.5434 147.801 27.9363 147.226 28.2185C146.656 28.4952 146.011 28.6335 145.292 28.6335C144.589 28.6335 143.974 28.5201 143.449 28.2932C142.923 28.0608 142.483 27.7398 142.129 27.3303C141.78 26.9153 141.517 26.4311 141.34 25.8777C141.169 25.3243 141.083 24.7239 141.083 24.0764V23.8855C141.083 23.238 141.169 22.6376 141.34 22.0842C141.517 21.5253 141.78 21.0411 142.129 20.6316C142.483 20.2166 142.92 19.8956 143.44 19.6687C143.966 19.4363 144.578 19.3201 145.275 19.3201C146.022 19.3201 146.681 19.4612 147.25 19.7434C147.826 20.0256 148.277 20.4351 148.604 20.9719C148.93 21.5087 149.09 22.1589 149.085 22.9226H146.454C146.459 22.6514 146.418 22.408 146.329 22.1921C146.241 21.9763 146.102 21.8048 145.914 21.6775C145.731 21.5447 145.496 21.4783 145.208 21.4783C144.921 21.4783 144.688 21.5419 144.511 21.6692C144.334 21.7965 144.199 21.9736 144.104 22.2004C144.016 22.4218 143.955 22.6764 143.922 22.9641C143.894 23.2519 143.88 23.559 143.88 23.8855V24.0764C143.88 24.4084 143.894 24.7211 143.922 25.0144C143.955 25.3022 144.019 25.5567 144.113 25.7781C144.207 25.9939 144.342 26.1654 144.52 26.2927C144.697 26.4145 144.932 26.4753 145.225 26.4753ZM149.932 24.0681V23.8938C149.932 23.2353 150.026 22.6293 150.214 22.0759C150.402 21.517 150.679 21.0328 151.044 20.6233C151.409 20.2138 151.86 19.8956 152.397 19.6687C152.934 19.4363 153.554 19.3201 154.256 19.3201C154.965 19.3201 155.587 19.4363 156.124 19.6687C156.666 19.8956 157.12 20.2138 157.485 20.6233C157.851 21.0328 158.127 21.517 158.315 22.0759C158.504 22.6293 158.598 23.2353 158.598 23.8938V24.0681C158.598 24.7211 158.504 25.3271 158.315 25.886C158.127 26.4394 157.851 26.9236 157.485 27.3386C157.12 27.7481 156.669 28.0663 156.132 28.2932C155.596 28.5201 154.976 28.6335 154.273 28.6335C153.57 28.6335 152.948 28.5201 152.405 28.2932C151.863 28.0663 151.409 27.7481 151.044 27.3386C150.679 26.9236 150.402 26.4394 150.214 25.886C150.026 25.3271 149.932 24.7211 149.932 24.0681ZM152.729 23.8938V24.0681C152.729 24.4057 152.754 24.7211 152.804 25.0144C152.854 25.3077 152.937 25.565 153.053 25.7864C153.169 26.0022 153.327 26.171 153.526 26.2927C153.725 26.4145 153.974 26.4753 154.273 26.4753C154.566 26.4753 154.81 26.4145 155.003 26.2927C155.203 26.171 155.36 26.0022 155.477 25.7864C155.593 25.565 155.676 25.3077 155.726 25.0144C155.775 24.7211 155.8 24.4057 155.8 24.0681V23.8938C155.8 23.5673 155.775 23.2602 155.726 22.9724C155.676 22.6791 155.593 22.4218 155.477 22.2004C155.36 21.9736 155.203 21.7965 155.003 21.6692C154.804 21.5419 154.555 21.4783 154.256 21.4783C153.963 21.4783 153.717 21.5419 153.518 21.6692C153.324 21.7965 153.169 21.9736 153.053 22.2004C152.937 22.4218 152.854 22.6791 152.804 22.9724C152.754 23.2602 152.729 23.5673 152.729 23.8938ZM164.466 24.8069H161.71L161.694 23.0803H163.985C164.212 23.0803 164.392 23.0554 164.524 23.0056C164.663 22.9558 164.76 22.8811 164.815 22.7815C164.876 22.6764 164.906 22.5518 164.906 22.408C164.906 22.2641 164.884 22.1423 164.84 22.0427C164.801 21.9431 164.737 21.8629 164.649 21.802C164.566 21.7411 164.461 21.6969 164.333 21.6692C164.206 21.6415 164.057 21.6277 163.885 21.6277H162.831V28.4675H160.034V19.4861H163.885C164.477 19.4861 165.009 19.5387 165.479 19.6438C165.949 19.7434 166.348 19.8984 166.674 20.1086C167.006 20.3134 167.261 20.5735 167.438 20.8889C167.615 21.2043 167.704 21.5751 167.704 22.0012C167.704 22.2779 167.637 22.538 167.504 22.7815C167.372 23.025 167.175 23.2408 166.915 23.429C166.66 23.6171 166.345 23.7721 165.969 23.8938C165.592 24.01 165.161 24.0819 164.674 24.1096L164.466 24.8069ZM164.466 28.4675H161.104L161.959 26.3259H164.466C164.699 26.3259 164.887 26.2983 165.031 26.2429C165.175 26.1876 165.28 26.1046 165.346 25.9939C165.413 25.8832 165.446 25.7476 165.446 25.5872C165.446 25.4322 165.418 25.2966 165.363 25.1804C165.307 25.0642 165.208 24.9729 165.064 24.9065C164.926 24.8401 164.726 24.8069 164.466 24.8069H162.275L162.292 23.0803H164.657L165.255 23.7859C165.952 23.8246 166.519 23.9436 166.957 24.1428C167.399 24.342 167.723 24.5938 167.928 24.8982C168.138 25.2026 168.243 25.5374 168.243 25.9026C168.243 26.3287 168.16 26.7022 167.994 27.0232C167.834 27.3442 167.593 27.6125 167.272 27.8284C166.951 28.0387 166.555 28.1991 166.085 28.3098C165.62 28.415 165.081 28.4675 164.466 28.4675ZM177.416 26.4753C177.676 26.4753 177.897 26.4283 178.08 26.3342C178.268 26.2346 178.409 26.0963 178.503 25.9192C178.603 25.7366 178.65 25.518 178.644 25.2634H181.275C181.281 25.9386 181.115 26.5307 180.777 27.0398C180.445 27.5434 179.992 27.9363 179.416 28.2185C178.846 28.4952 178.201 28.6335 177.482 28.6335C176.779 28.6335 176.165 28.5201 175.639 28.2932C175.113 28.0608 174.674 27.7398 174.319 27.3303C173.971 26.9153 173.708 26.4311 173.531 25.8777C173.359 25.3243 173.273 24.7239 173.273 24.0764V23.8855C173.273 23.238 173.359 22.6376 173.531 22.0842C173.708 21.5253 173.971 21.0411 174.319 20.6316C174.674 20.2166 175.111 19.8956 175.631 19.6687C176.157 19.4363 176.768 19.3201 177.465 19.3201C178.212 19.3201 178.871 19.4612 179.441 19.7434C180.016 20.0256 180.467 20.4351 180.794 20.9719C181.12 21.5087 181.281 22.1589 181.275 22.9226H178.644C178.65 22.6514 178.608 22.408 178.52 22.1921C178.431 21.9763 178.293 21.8048 178.104 21.6775C177.922 21.5447 177.687 21.4783 177.399 21.4783C177.111 21.4783 176.879 21.5419 176.702 21.6692C176.525 21.7965 176.389 21.9736 176.295 22.2004C176.206 22.4218 176.146 22.6764 176.112 22.9641C176.085 23.2519 176.071 23.559 176.071 23.8855V24.0764C176.071 24.4084 176.085 24.7211 176.112 25.0144C176.146 25.3022 176.209 25.5567 176.303 25.7781C176.397 25.9939 176.533 26.1654 176.71 26.2927C176.887 26.4145 177.122 26.4753 177.416 26.4753Z" fill="#253746"/>
</svg>
