<svg width="192" height="64" viewBox="0 0 192 64" fill="none" xmlns="http://www.w3.org/2000/svg">
<rect x="0.311688" y="0.311688" width="191.377" height="62.961" rx="5.92208" fill="white"/>
<rect x="0.311688" y="0.311688" width="191.377" height="62.961" rx="5.92208" stroke="#253746" stroke-width="0.623377"/>
<path d="M30.5735 28.864V32.7311C30.5735 34.409 30.3944 35.8566 30.0363 37.074C29.6783 38.2812 29.1616 39.2736 28.4864 40.0511C27.8214 40.8184 27.0286 41.3862 26.1078 41.7545C25.1871 42.1228 24.164 42.3069 23.0387 42.3069C22.1384 42.3069 21.2995 42.1944 20.522 41.9693C19.7444 41.734 19.0436 41.3708 18.4196 40.8798C17.8058 40.3887 17.2738 39.7697 16.8236 39.0229C16.3837 38.2659 16.0461 37.3656 15.8108 36.3221C15.5755 35.2785 15.4578 34.0816 15.4578 32.7311V28.864C15.4578 27.1862 15.6369 25.7488 15.995 24.5518C16.3633 23.3446 16.8799 22.3574 17.5449 21.5901C18.2201 20.8228 19.0181 20.2601 19.9388 19.9021C20.8596 19.5338 21.8826 19.3496 23.008 19.3496C23.9083 19.3496 24.7421 19.4673 25.5093 19.7026C26.2869 19.9276 26.9877 20.2806 27.6117 20.7614C28.2358 21.2423 28.7678 21.8612 29.2077 22.6183C29.6476 23.3651 29.9852 24.2603 30.2205 25.3038C30.4558 26.3371 30.5735 27.5238 30.5735 28.864ZM26.1385 33.3143V28.2655C26.1385 27.4573 26.0925 26.7514 26.0004 26.1478C25.9186 25.5442 25.7907 25.0327 25.6168 24.6132C25.4428 24.1835 25.228 23.8357 24.9722 23.5697C24.7165 23.3037 24.4249 23.1093 24.0975 22.9866C23.7702 22.8638 23.407 22.8024 23.008 22.8024C22.5067 22.8024 22.0617 22.8996 21.6729 23.094C21.2944 23.2884 20.9721 23.6004 20.7061 24.0301C20.4401 24.4495 20.2355 25.0122 20.0923 25.7181C19.9593 26.4138 19.8928 27.2629 19.8928 28.2655V33.3143C19.8928 34.1225 19.9337 34.8335 20.0155 35.4473C20.1076 36.0612 20.2406 36.5881 20.4145 37.028C20.5987 37.4576 20.8135 37.8106 21.0591 38.0868C21.3148 38.3528 21.6064 38.5472 21.9338 38.67C22.2714 38.7927 22.6397 38.8541 23.0387 38.8541C23.5297 38.8541 23.9645 38.7569 24.3431 38.5625C24.7318 38.3579 25.0592 38.0408 25.3252 37.6111C25.6014 37.1712 25.806 36.5983 25.939 35.8924C26.072 35.1865 26.1385 34.3271 26.1385 33.3143ZM33.5198 25.135V23.9534C33.5198 23.1042 33.704 22.3318 34.0723 21.6361C34.4406 20.9405 34.9828 20.3829 35.6989 19.9634C36.4151 19.544 37.2949 19.3343 38.3384 19.3343C39.4126 19.3343 40.3078 19.544 41.0239 19.9634C41.7503 20.3829 42.2925 20.9405 42.6506 21.6361C43.0189 22.3318 43.203 23.1042 43.203 23.9534V25.135C43.203 25.9637 43.0189 26.7258 42.6506 27.4215C42.2925 28.1172 41.7554 28.6747 41.0393 29.0942C40.3231 29.5136 39.4382 29.7234 38.3845 29.7234C37.3205 29.7234 36.4253 29.5136 35.6989 29.0942C34.9828 28.6747 34.4406 28.1172 34.0723 27.4215C33.704 26.7258 33.5198 25.9637 33.5198 25.135ZM36.4509 23.9534V25.135C36.4509 25.493 36.5174 25.8358 36.6504 26.1631C36.7936 26.4803 37.0085 26.7412 37.2949 26.9458C37.5916 27.1402 37.9497 27.2374 38.3691 27.2374C38.809 27.2374 39.1671 27.1402 39.4433 26.9458C39.7195 26.7412 39.9242 26.4803 40.0571 26.1631C40.1901 25.8358 40.2566 25.493 40.2566 25.135V23.9534C40.2566 23.5748 40.185 23.227 40.0418 22.9098C39.9088 22.5825 39.6991 22.3216 39.4126 22.1272C39.1364 21.9226 38.7783 21.8203 38.3384 21.8203C37.9292 21.8203 37.5814 21.9226 37.2949 22.1272C37.0085 22.3216 36.7936 22.5825 36.6504 22.9098C36.5174 23.227 36.4509 23.5748 36.4509 23.9534ZM44.2005 37.7032V36.5216C44.2005 35.6827 44.3847 34.9154 44.753 34.2197C45.1315 33.524 45.6788 32.9664 46.395 32.547C47.1213 32.1275 48.0114 31.9178 49.0651 31.9178C50.1291 31.9178 51.0192 32.1275 51.7353 32.547C52.4514 32.9664 52.9936 33.524 53.3619 34.2197C53.7302 34.9154 53.9144 35.6827 53.9144 36.5216V37.7032C53.9144 38.5421 53.7302 39.3094 53.3619 40.005C53.0039 40.7007 52.4668 41.2583 51.7506 41.6777C51.0345 42.0972 50.1496 42.3069 49.0958 42.3069C48.0318 42.3069 47.1367 42.0972 46.4103 41.6777C45.6839 41.2583 45.1315 40.7007 44.753 40.005C44.3847 39.3094 44.2005 38.5421 44.2005 37.7032ZM47.1469 36.5216V37.7032C47.1469 38.0715 47.2287 38.4193 47.3924 38.7467C47.5561 39.0741 47.7812 39.3349 48.0676 39.5293C48.3643 39.7237 48.7071 39.8209 49.0958 39.8209C49.5869 39.8209 49.9705 39.7237 50.2468 39.5293C50.523 39.3349 50.7122 39.0741 50.8145 38.7467C50.9271 38.4193 50.9833 38.0715 50.9833 37.7032V36.5216C50.9833 36.1533 50.9117 35.8105 50.7685 35.4934C50.6253 35.166 50.4104 34.9051 50.124 34.7108C49.8478 34.5061 49.4948 34.4038 49.0651 34.4038C48.6354 34.4038 48.2774 34.5061 47.9909 34.7108C47.7147 34.9051 47.505 35.166 47.3617 35.4934C47.2185 35.8105 47.1469 36.1533 47.1469 36.5216ZM50.1547 22.8485L39.2438 40.312L37.0954 39.1764L48.0063 21.7129L50.1547 22.8485Z" fill="#FCB533"/>
<path d="M124.906 35.7137H127.353V48.7617H124.906V35.7137Z" fill="#FCB533"/>
<path d="M129.437 36.9822C129.437 36.1667 130.071 35.5325 130.977 35.5325C131.883 35.5325 132.517 36.1667 132.517 36.9822C132.517 37.7977 131.883 38.432 130.977 38.432C130.071 38.432 129.437 37.7977 129.437 36.9822ZM129.708 39.6099H132.155V48.7616H129.708V39.6099Z" fill="#FCB533"/>
<path d="M144.568 44.1405C144.568 46.9495 142.756 48.9429 140.128 48.9429C138.769 48.9429 137.682 48.4898 136.957 47.5837L136.776 48.6711H134.601V35.7137H137.048V40.5161C137.772 39.7912 138.86 39.3382 140.038 39.3382C142.665 39.3382 144.568 41.3316 144.568 44.1405ZM142.031 44.1405C142.031 42.6001 141.034 41.5128 139.494 41.5128C138.044 41.5128 136.957 42.6001 136.957 44.1405C136.957 45.6809 137.954 46.7682 139.494 46.7682C141.034 46.7682 142.031 45.6809 142.031 44.1405Z" fill="#FCB533"/>
<path d="M155.351 44.956H148.283C148.465 46.1339 149.461 46.8588 150.911 46.8588C151.908 46.8588 152.905 46.4964 153.448 45.9527L154.807 47.4025C153.811 48.3992 152.361 48.9429 150.73 48.9429C147.649 48.9429 145.656 47.04 145.656 44.1405C145.656 41.241 147.649 39.3381 150.458 39.3381C153.992 39.3381 155.804 41.6034 155.351 44.956ZM148.374 43.325H153.086C152.995 42.1471 152.089 41.4222 150.73 41.4222C149.371 41.4222 148.555 42.1471 148.374 43.325Z" fill="#FCB533"/>
<path d="M164.503 40.2442L163.416 42.147C162.872 41.7845 162.419 41.6939 161.966 41.6939C160.607 41.6939 159.701 42.6 159.701 44.3216V48.7616H157.254V39.6099H159.429L159.61 40.7878C160.335 39.8817 161.151 39.4287 162.238 39.4287C162.963 39.3381 163.869 39.7005 164.503 40.2442Z" fill="#FCB533"/>
<path d="M86.3058 48.671V43.7781C86.3058 42.6001 85.6715 41.5128 84.403 41.5128C83.225 41.5128 82.5001 42.6001 82.5001 43.7781V48.671H80.2349V39.5194H82.3189L82.5001 40.6067C82.9532 39.7006 84.0405 39.3381 84.9466 39.3381C86.0339 39.3381 87.1213 39.7912 87.6649 41.0597C88.4804 39.7912 89.5678 39.4287 90.7457 39.4287C93.3734 39.4287 94.6419 41.0597 94.6419 43.7781V48.671H92.3767V43.7781C92.3767 42.6001 91.833 41.5128 90.6551 41.5128C89.4771 41.5128 88.6616 42.6001 88.6616 43.7781V48.671H86.3058Z" fill="#253746"/>
<path d="M98.4477 44.0498C98.4477 45.7714 99.6256 46.8587 101.166 46.8587C104.7 46.8587 104.7 41.3315 101.166 41.3315C99.6256 41.3315 98.4477 42.3282 98.4477 44.0498ZM103.884 39.5193H106.059V48.6709H103.884L103.794 47.3118C103.25 48.3991 101.891 48.9428 100.804 48.9428C98.0852 48.9428 96.0918 47.3118 96.0918 44.0498C96.0918 40.8784 98.1758 39.2474 100.894 39.2474C102.072 39.2474 103.25 39.7911 103.794 40.6972L103.884 39.5193Z" fill="#253746"/>
<path d="M108.143 39.5194V48.671H110.408V39.5194H108.143ZM110.589 36.8917C110.589 38.6133 107.961 38.6133 107.961 36.8917C107.961 35.1701 110.589 35.1701 110.589 36.8917Z" fill="#253746"/>
<path d="M114.848 44.1405C114.848 45.7715 116.026 46.8588 117.476 46.8588C118.926 46.8588 120.103 45.7715 120.103 44.1405C120.103 42.5095 118.926 41.5128 117.476 41.5128C116.117 41.5128 114.848 42.5095 114.848 44.1405ZM114.757 35.7137V40.7879C115.301 39.8818 116.751 39.3382 117.748 39.3382C120.375 39.3382 122.369 40.9692 122.369 44.1405C122.369 47.1307 120.375 48.9429 117.657 48.9429C116.57 48.9429 115.392 48.5804 114.667 47.4931L114.576 48.6711H112.492V35.7137H114.757Z" fill="#253746"/>
<path d="M77.0635 38.7039C75.8855 36.8917 73.8015 35.6232 71.4456 35.6232C67.7306 35.6232 64.8311 38.6133 64.8311 42.2377C64.8311 42.6908 64.9217 43.1438 64.9217 43.5969C70.6301 40.0631 75.1607 38.9758 77.0635 38.7039Z" fill="#3BBFAD"/>
<path d="M77.2449 38.8851C71.6271 41.3316 68.0026 45.4997 66.8247 46.9495C68.0026 48.1274 69.7242 48.9429 71.5365 48.9429C75.2515 48.9429 78.151 45.9528 78.151 42.3283C78.151 41.0598 77.7886 39.8818 77.2449 38.8851Z" fill="#3BBFAD"/>
<path d="M71.7581 26.204H68.5483L68.529 24.193H71.1974C71.4616 24.193 71.6711 24.164 71.8258 24.106C71.9869 24.048 72.0997 23.961 72.1642 23.845C72.2351 23.7225 72.2705 23.5775 72.2705 23.4099C72.2705 23.2423 72.2447 23.1005 72.1932 22.9845C72.148 22.8685 72.0739 22.775 71.9708 22.7042C71.8741 22.6333 71.7517 22.5817 71.6034 22.5495C71.4552 22.5172 71.2812 22.5011 71.0813 22.5011H69.8535V30.4675H66.5954V20.0068H71.0813C71.771 20.0068 72.3897 20.068 72.9376 20.1905C73.4854 20.3065 73.9495 20.487 74.3298 20.7319C74.7165 20.9704 75.013 21.2733 75.2192 21.6407C75.4255 22.0081 75.5286 22.4399 75.5286 22.9362C75.5286 23.2584 75.4513 23.5614 75.2966 23.845C75.1419 24.1286 74.9131 24.3799 74.6102 24.5991C74.3137 24.8182 73.9463 24.9987 73.508 25.1405C73.0697 25.2758 72.567 25.3596 71.9998 25.3918L71.7581 26.204ZM71.7581 30.4675H67.8426L68.8384 27.9732H71.7581C72.0288 27.9732 72.2479 27.941 72.4155 27.8765C72.5831 27.8121 72.7056 27.7154 72.7829 27.5865C72.8603 27.4576 72.8989 27.2997 72.8989 27.1127C72.8989 26.9323 72.8667 26.7744 72.8022 26.639C72.7378 26.5037 72.6218 26.3973 72.4542 26.32C72.2931 26.2426 72.061 26.204 71.7581 26.204H69.2058L69.2251 24.193H71.9805L72.6766 25.0148C73.4887 25.0599 74.1493 25.1985 74.6585 25.4305C75.1741 25.6625 75.5512 25.9558 75.7896 26.3103C76.0346 26.6648 76.157 27.0547 76.157 27.4801C76.157 27.9764 76.0604 28.4115 75.867 28.7853C75.6801 29.1591 75.3997 29.4717 75.0259 29.7231C74.6521 29.968 74.1912 30.1549 73.6434 30.2838C73.102 30.4063 72.4735 30.4675 71.7581 30.4675ZM89.5858 16.391V30.4675H86.3277V20.0648L83.118 21.0026V18.5276L89.2861 16.391H89.5858ZM104.223 26.204H101.013L100.994 24.193H103.662C103.927 24.193 104.136 24.164 104.291 24.106C104.452 24.048 104.565 23.961 104.629 23.845C104.7 23.7225 104.736 23.5775 104.736 23.4099C104.736 23.2423 104.71 23.1005 104.658 22.9845C104.613 22.8685 104.539 22.775 104.436 22.7042C104.339 22.6333 104.217 22.5817 104.068 22.5495C103.92 22.5172 103.746 22.5011 103.546 22.5011H102.319V30.4675H99.0604V20.0068H103.546C104.236 20.0068 104.855 20.068 105.403 20.1905C105.95 20.3065 106.415 20.487 106.795 20.7319C107.182 20.9704 107.478 21.2733 107.684 21.6407C107.891 22.0081 107.994 22.4399 107.994 22.9362C107.994 23.2584 107.916 23.5614 107.762 23.845C107.607 24.1286 107.378 24.3799 107.075 24.5991C106.779 24.8182 106.411 24.9987 105.973 25.1405C105.535 25.2758 105.032 25.3596 104.465 25.3918L104.223 26.204ZM104.223 30.4675H100.308L101.303 27.9732H104.223C104.494 27.9732 104.713 27.941 104.881 27.8765C105.048 27.8121 105.171 27.7154 105.248 27.5865C105.325 27.4576 105.364 27.2997 105.364 27.1127C105.364 26.9323 105.332 26.7744 105.267 26.639C105.203 26.5037 105.087 26.3973 104.919 26.32C104.758 26.2426 104.526 26.204 104.223 26.204H101.671L101.69 24.193H104.446L105.142 25.0148C105.954 25.0599 106.614 25.1985 107.124 25.4305C107.639 25.6625 108.016 25.9558 108.255 26.3103C108.5 26.6648 108.622 27.0547 108.622 27.4801C108.622 27.9764 108.525 28.4115 108.332 28.7853C108.145 29.1591 107.865 29.4717 107.491 29.7231C107.117 29.968 106.656 30.1549 106.108 30.2838C105.567 30.4063 104.939 30.4675 104.223 30.4675ZM115.013 25.4789H112.866V24.164H114.21C114.487 24.164 114.71 24.1221 114.877 24.0383C115.051 23.9545 115.177 23.8385 115.254 23.6903C115.338 23.5356 115.38 23.3616 115.38 23.1682C115.38 23.0006 115.351 22.8395 115.293 22.6848C115.241 22.5301 115.138 22.4012 114.984 22.2981C114.829 22.195 114.6 22.1434 114.297 22.1434C114.046 22.1434 113.827 22.1756 113.64 22.2401C113.453 22.3045 113.308 22.4044 113.205 22.5398C113.102 22.6687 113.05 22.8363 113.05 23.0425H109.782C109.782 22.3658 109.976 21.7889 110.362 21.312C110.749 20.8286 111.268 20.4612 111.919 20.2098C112.57 19.952 113.288 19.8231 114.075 19.8231C114.764 19.8231 115.39 19.8908 115.95 20.0261C116.511 20.155 116.991 20.3484 117.391 20.6062C117.791 20.864 118.097 21.1831 118.309 21.5633C118.529 21.9372 118.638 22.3722 118.638 22.8685C118.638 23.223 118.554 23.5582 118.387 23.874C118.219 24.1898 117.977 24.4702 117.662 24.7151C117.346 24.9536 116.962 25.1405 116.511 25.2758C116.066 25.4112 115.567 25.4789 115.013 25.4789ZM112.866 24.7828H115.013C115.631 24.7828 116.176 24.844 116.646 24.9665C117.123 25.0825 117.523 25.2565 117.845 25.4885C118.168 25.7206 118.409 26.0074 118.57 26.349C118.738 26.6841 118.822 27.0708 118.822 27.5091C118.822 28.0054 118.706 28.4501 118.474 28.8433C118.242 29.23 117.913 29.5587 117.488 29.8294C117.062 30.1001 116.559 30.3064 115.979 30.4482C115.399 30.59 114.764 30.6609 114.075 30.6609C113.346 30.6609 112.641 30.5449 111.958 30.3128C111.274 30.0808 110.714 29.7231 110.275 29.2397C109.837 28.7563 109.618 28.1343 109.618 27.3738H112.886C112.886 27.5478 112.934 27.7089 113.031 27.8572C113.127 28.0054 113.279 28.1247 113.485 28.2149C113.698 28.2987 113.972 28.3406 114.307 28.3406C114.636 28.3406 114.89 28.2858 115.071 28.1762C115.258 28.0667 115.386 27.9249 115.457 27.7508C115.535 27.5768 115.573 27.3996 115.573 27.2191C115.573 26.9419 115.522 26.7196 115.419 26.552C115.316 26.3844 115.161 26.262 114.955 26.1846C114.755 26.1008 114.507 26.0589 114.21 26.0589H112.866V24.7828ZM127.436 24.0867V26.5907H122.215V24.0867H127.436ZM123.404 20.0068V30.4675H120.146V20.0068H123.404ZM129.524 20.0068V30.4675H126.256V20.0068H129.524ZM130.916 25.3435V25.1405C130.916 24.3735 131.026 23.6677 131.245 23.0232C131.464 22.3722 131.787 21.8083 132.212 21.3313C132.637 20.8543 133.163 20.4837 133.788 20.2195C134.413 19.9488 135.135 19.8134 135.953 19.8134C136.778 19.8134 137.504 19.9488 138.129 20.2195C138.76 20.4837 139.289 20.8543 139.714 21.3313C140.14 21.8083 140.462 22.3722 140.681 23.0232C140.9 23.6677 141.01 24.3735 141.01 25.1405V25.3435C141.01 26.1041 140.9 26.8098 140.681 27.4608C140.462 28.1053 140.14 28.6693 139.714 29.1527C139.289 29.6296 138.764 30.0002 138.138 30.2645C137.513 30.5288 136.791 30.6609 135.973 30.6609C135.154 30.6609 134.429 30.5288 133.797 30.2645C133.166 30.0002 132.637 29.6296 132.212 29.1527C131.787 28.6693 131.464 28.1053 131.245 27.4608C131.026 26.8098 130.916 26.1041 130.916 25.3435ZM134.175 25.1405V25.3435C134.175 25.7367 134.204 26.1041 134.262 26.4457C134.32 26.7873 134.416 27.087 134.552 27.3448C134.687 27.5961 134.871 27.7927 135.103 27.9345C135.335 28.0763 135.625 28.1472 135.973 28.1472C136.314 28.1472 136.598 28.0763 136.824 27.9345C137.056 27.7927 137.239 27.5961 137.375 27.3448C137.51 27.087 137.607 26.7873 137.665 26.4457C137.723 26.1041 137.752 25.7367 137.752 25.3435V25.1405C137.752 24.7602 137.723 24.4025 137.665 24.0673C137.607 23.7257 137.51 23.426 137.375 23.1682C137.239 22.904 137.056 22.6977 136.824 22.5495C136.592 22.4012 136.301 22.3271 135.953 22.3271C135.612 22.3271 135.325 22.4012 135.093 22.5495C134.867 22.6977 134.687 22.904 134.552 23.1682C134.416 23.426 134.32 23.7257 134.262 24.0673C134.204 24.4025 134.175 24.7602 134.175 25.1405ZM146.878 28.1472C147.181 28.1472 147.439 28.0924 147.652 27.9829C147.871 27.8668 148.035 27.7057 148.145 27.4995C148.261 27.2868 148.316 27.0322 148.309 26.7357H151.374C151.38 27.522 151.187 28.2117 150.794 28.8046C150.407 29.3912 149.879 29.8488 149.208 30.1775C148.544 30.4998 147.793 30.6609 146.956 30.6609C146.137 30.6609 145.422 30.5288 144.809 30.2645C144.197 29.9938 143.685 29.62 143.272 29.143C142.866 28.6596 142.56 28.0957 142.354 27.4511C142.154 26.8066 142.054 26.1073 142.054 25.3532V25.1308C142.054 24.3767 142.154 23.6774 142.354 23.0329C142.56 22.3819 142.866 21.8179 143.272 21.341C143.685 20.8576 144.194 20.4837 144.8 20.2195C145.412 19.9488 146.124 19.8134 146.936 19.8134C147.806 19.8134 148.573 19.9778 149.237 20.3065C149.908 20.6352 150.433 21.1122 150.813 21.7374C151.193 22.3625 151.38 23.1199 151.374 24.0093H148.309C148.316 23.6935 148.267 23.4099 148.164 23.1585C148.061 22.9072 147.9 22.7074 147.681 22.5591C147.468 22.4044 147.194 22.3271 146.859 22.3271C146.524 22.3271 146.253 22.4012 146.047 22.5495C145.841 22.6977 145.683 22.904 145.573 23.1682C145.47 23.426 145.399 23.7225 145.36 24.0577C145.328 24.3928 145.312 24.7505 145.312 25.1308V25.3532C145.312 25.7399 145.328 26.1041 145.36 26.4457C145.399 26.7808 145.473 27.0773 145.583 27.3351C145.692 27.5865 145.85 27.7863 146.056 27.9345C146.263 28.0763 146.537 28.1472 146.878 28.1472ZM162.115 28.1472C162.418 28.1472 162.676 28.0924 162.888 27.9829C163.108 27.8668 163.272 27.7057 163.381 27.4995C163.497 27.2868 163.552 27.0322 163.546 26.7357H166.611C166.617 27.522 166.424 28.2117 166.03 28.8046C165.644 29.3912 165.115 29.8488 164.445 30.1775C163.781 30.4998 163.03 30.6609 162.192 30.6609C161.374 30.6609 160.658 30.5288 160.046 30.2645C159.434 29.9938 158.921 29.62 158.509 29.143C158.103 28.6596 157.797 28.0957 157.59 27.4511C157.391 26.8066 157.291 26.1073 157.291 25.3532V25.1308C157.291 24.3767 157.391 23.6774 157.59 23.0329C157.797 22.3819 158.103 21.8179 158.509 21.341C158.921 20.8576 159.43 20.4837 160.036 20.2195C160.649 19.9488 161.361 19.8134 162.173 19.8134C163.043 19.8134 163.81 19.9778 164.474 20.3065C165.144 20.6352 165.67 21.1122 166.05 21.7374C166.43 22.3625 166.617 23.1199 166.611 24.0093H163.546C163.552 23.6935 163.504 23.4099 163.401 23.1585C163.298 22.9072 163.137 22.7074 162.917 22.5591C162.705 22.4044 162.431 22.3271 162.096 22.3271C161.76 22.3271 161.49 22.4012 161.283 22.5495C161.077 22.6977 160.919 22.904 160.81 23.1682C160.707 23.426 160.636 23.7225 160.597 24.0577C160.565 24.3928 160.549 24.7505 160.549 25.1308V25.3532C160.549 25.7399 160.565 26.1041 160.597 26.4457C160.636 26.7808 160.71 27.0773 160.819 27.3351C160.929 27.5865 161.087 27.7863 161.293 27.9345C161.499 28.0763 161.773 28.1472 162.115 28.1472Z" fill="#253746"/>
</svg>
