<svg width="192" height="64" viewBox="0 0 192 64" fill="none" xmlns="http://www.w3.org/2000/svg">
<rect x="0.311688" y="0.311688" width="191.377" height="62.961" rx="5.92208" fill="white"/>
<rect x="0.311688" y="0.311688" width="191.377" height="62.961" rx="5.92208" stroke="#253746" stroke-width="0.623377"/>
<path d="M30.5735 28.864V32.7311C30.5735 34.409 30.3944 35.8566 30.0363 37.074C29.6783 38.2812 29.1616 39.2736 28.4864 40.0511C27.8214 40.8184 27.0286 41.3862 26.1078 41.7545C25.1871 42.1228 24.164 42.3069 23.0387 42.3069C22.1384 42.3069 21.2995 42.1944 20.522 41.9693C19.7444 41.734 19.0436 41.3708 18.4196 40.8798C17.8058 40.3887 17.2738 39.7697 16.8236 39.0229C16.3837 38.2659 16.0461 37.3656 15.8108 36.3221C15.5755 35.2785 15.4578 34.0816 15.4578 32.7311V28.864C15.4578 27.1862 15.6369 25.7488 15.995 24.5518C16.3633 23.3446 16.8799 22.3574 17.5449 21.5901C18.2201 20.8228 19.0181 20.2601 19.9388 19.9021C20.8596 19.5338 21.8826 19.3496 23.008 19.3496C23.9083 19.3496 24.7421 19.4673 25.5093 19.7026C26.2869 19.9276 26.9877 20.2806 27.6117 20.7614C28.2358 21.2423 28.7678 21.8612 29.2077 22.6183C29.6476 23.3651 29.9852 24.2603 30.2205 25.3038C30.4558 26.3371 30.5735 27.5238 30.5735 28.864ZM26.1385 33.3143V28.2655C26.1385 27.4573 26.0925 26.7514 26.0004 26.1478C25.9186 25.5442 25.7907 25.0327 25.6168 24.6132C25.4428 24.1835 25.228 23.8357 24.9722 23.5697C24.7165 23.3037 24.4249 23.1093 24.0975 22.9866C23.7702 22.8638 23.407 22.8024 23.008 22.8024C22.5067 22.8024 22.0617 22.8996 21.6729 23.094C21.2944 23.2884 20.9721 23.6004 20.7061 24.0301C20.4401 24.4495 20.2355 25.0122 20.0923 25.7181C19.9593 26.4138 19.8928 27.2629 19.8928 28.2655V33.3143C19.8928 34.1225 19.9337 34.8335 20.0155 35.4473C20.1076 36.0612 20.2406 36.5881 20.4145 37.028C20.5987 37.4576 20.8135 37.8106 21.0591 38.0868C21.3148 38.3528 21.6064 38.5472 21.9338 38.67C22.2714 38.7927 22.6397 38.8541 23.0387 38.8541C23.5297 38.8541 23.9645 38.7569 24.3431 38.5625C24.7318 38.3579 25.0592 38.0408 25.3252 37.6111C25.6014 37.1712 25.806 36.5983 25.939 35.8924C26.072 35.1865 26.1385 34.3271 26.1385 33.3143ZM33.5198 25.135V23.9534C33.5198 23.1042 33.704 22.3318 34.0723 21.6361C34.4406 20.9405 34.9828 20.3829 35.6989 19.9634C36.4151 19.544 37.2949 19.3343 38.3384 19.3343C39.4126 19.3343 40.3078 19.544 41.0239 19.9634C41.7503 20.3829 42.2925 20.9405 42.6506 21.6361C43.0189 22.3318 43.203 23.1042 43.203 23.9534V25.135C43.203 25.9637 43.0189 26.7258 42.6506 27.4215C42.2925 28.1172 41.7554 28.6747 41.0393 29.0942C40.3231 29.5136 39.4382 29.7234 38.3845 29.7234C37.3205 29.7234 36.4253 29.5136 35.6989 29.0942C34.9828 28.6747 34.4406 28.1172 34.0723 27.4215C33.704 26.7258 33.5198 25.9637 33.5198 25.135ZM36.4509 23.9534V25.135C36.4509 25.493 36.5174 25.8358 36.6504 26.1631C36.7936 26.4803 37.0085 26.7412 37.2949 26.9458C37.5916 27.1402 37.9497 27.2374 38.3691 27.2374C38.809 27.2374 39.1671 27.1402 39.4433 26.9458C39.7195 26.7412 39.9242 26.4803 40.0571 26.1631C40.1901 25.8358 40.2566 25.493 40.2566 25.135V23.9534C40.2566 23.5748 40.185 23.227 40.0418 22.9098C39.9088 22.5825 39.6991 22.3216 39.4126 22.1272C39.1364 21.9226 38.7783 21.8203 38.3384 21.8203C37.9292 21.8203 37.5814 21.9226 37.2949 22.1272C37.0085 22.3216 36.7936 22.5825 36.6504 22.9098C36.5174 23.227 36.4509 23.5748 36.4509 23.9534ZM44.2005 37.7032V36.5216C44.2005 35.6827 44.3847 34.9154 44.753 34.2197C45.1315 33.524 45.6788 32.9664 46.395 32.547C47.1213 32.1275 48.0114 31.9178 49.0651 31.9178C50.1291 31.9178 51.0192 32.1275 51.7353 32.547C52.4514 32.9664 52.9936 33.524 53.3619 34.2197C53.7302 34.9154 53.9144 35.6827 53.9144 36.5216V37.7032C53.9144 38.5421 53.7302 39.3094 53.3619 40.005C53.0039 40.7007 52.4668 41.2583 51.7506 41.6777C51.0345 42.0972 50.1496 42.3069 49.0958 42.3069C48.0318 42.3069 47.1367 42.0972 46.4103 41.6777C45.6839 41.2583 45.1315 40.7007 44.753 40.005C44.3847 39.3094 44.2005 38.5421 44.2005 37.7032ZM47.1469 36.5216V37.7032C47.1469 38.0715 47.2287 38.4193 47.3924 38.7467C47.5561 39.0741 47.7812 39.3349 48.0676 39.5293C48.3643 39.7237 48.7071 39.8209 49.0958 39.8209C49.5869 39.8209 49.9705 39.7237 50.2468 39.5293C50.523 39.3349 50.7122 39.0741 50.8145 38.7467C50.9271 38.4193 50.9833 38.0715 50.9833 37.7032V36.5216C50.9833 36.1533 50.9117 35.8105 50.7685 35.4934C50.6253 35.166 50.4104 34.9051 50.124 34.7108C49.8478 34.5061 49.4948 34.4038 49.0651 34.4038C48.6354 34.4038 48.2774 34.5061 47.9909 34.7108C47.7147 34.9051 47.505 35.166 47.3617 35.4934C47.2185 35.8105 47.1469 36.1533 47.1469 36.5216ZM50.1547 22.8485L39.2438 40.312L37.0954 39.1764L48.0063 21.7129L50.1547 22.8485Z" fill="#FCB533"/>
<path d="M124.906 35.7137H127.353V48.7617H124.906V35.7137Z" fill="#FCB533"/>
<path d="M129.437 36.9822C129.437 36.1667 130.071 35.5325 130.977 35.5325C131.883 35.5325 132.517 36.1667 132.517 36.9822C132.517 37.7977 131.883 38.432 130.977 38.432C130.071 38.432 129.437 37.7977 129.437 36.9822ZM129.708 39.6099H132.155V48.7616H129.708V39.6099Z" fill="#FCB533"/>
<path d="M144.568 44.1405C144.568 46.9495 142.756 48.9429 140.128 48.9429C138.769 48.9429 137.682 48.4898 136.957 47.5837L136.776 48.6711H134.601V35.7137H137.048V40.5161C137.772 39.7912 138.86 39.3382 140.038 39.3382C142.665 39.3382 144.568 41.3316 144.568 44.1405ZM142.031 44.1405C142.031 42.6001 141.034 41.5128 139.494 41.5128C138.044 41.5128 136.957 42.6001 136.957 44.1405C136.957 45.6809 137.954 46.7682 139.494 46.7682C141.034 46.7682 142.031 45.6809 142.031 44.1405Z" fill="#FCB533"/>
<path d="M155.351 44.956H148.283C148.465 46.1339 149.461 46.8588 150.911 46.8588C151.908 46.8588 152.905 46.4964 153.448 45.9527L154.807 47.4025C153.811 48.3992 152.361 48.9429 150.73 48.9429C147.649 48.9429 145.656 47.04 145.656 44.1405C145.656 41.241 147.649 39.3381 150.458 39.3381C153.992 39.3381 155.804 41.6034 155.351 44.956ZM148.374 43.325H153.086C152.995 42.1471 152.089 41.4222 150.73 41.4222C149.371 41.4222 148.555 42.1471 148.374 43.325Z" fill="#FCB533"/>
<path d="M164.503 40.2442L163.416 42.147C162.872 41.7845 162.419 41.6939 161.966 41.6939C160.607 41.6939 159.701 42.6 159.701 44.3216V48.7616H157.254V39.6099H159.429L159.61 40.7878C160.335 39.8817 161.151 39.4287 162.238 39.4287C162.963 39.3381 163.869 39.7005 164.503 40.2442Z" fill="#FCB533"/>
<path d="M86.3058 48.671V43.7781C86.3058 42.6001 85.6715 41.5128 84.403 41.5128C83.225 41.5128 82.5001 42.6001 82.5001 43.7781V48.671H80.2349V39.5194H82.3189L82.5001 40.6067C82.9532 39.7006 84.0405 39.3381 84.9466 39.3381C86.0339 39.3381 87.1213 39.7912 87.6649 41.0597C88.4804 39.7912 89.5678 39.4287 90.7457 39.4287C93.3734 39.4287 94.6419 41.0597 94.6419 43.7781V48.671H92.3767V43.7781C92.3767 42.6001 91.833 41.5128 90.6551 41.5128C89.4771 41.5128 88.6616 42.6001 88.6616 43.7781V48.671H86.3058Z" fill="#253746"/>
<path d="M98.4477 44.0498C98.4477 45.7714 99.6256 46.8587 101.166 46.8587C104.7 46.8587 104.7 41.3315 101.166 41.3315C99.6256 41.3315 98.4477 42.3282 98.4477 44.0498ZM103.884 39.5193H106.059V48.6709H103.884L103.794 47.3118C103.25 48.3991 101.891 48.9428 100.804 48.9428C98.0852 48.9428 96.0918 47.3118 96.0918 44.0498C96.0918 40.8784 98.1758 39.2474 100.894 39.2474C102.072 39.2474 103.25 39.7911 103.794 40.6972L103.884 39.5193Z" fill="#253746"/>
<path d="M108.143 39.5194V48.671H110.408V39.5194H108.143ZM110.589 36.8917C110.589 38.6133 107.961 38.6133 107.961 36.8917C107.961 35.1701 110.589 35.1701 110.589 36.8917Z" fill="#253746"/>
<path d="M114.848 44.1405C114.848 45.7715 116.026 46.8588 117.476 46.8588C118.926 46.8588 120.103 45.7715 120.103 44.1405C120.103 42.5095 118.926 41.5128 117.476 41.5128C116.117 41.5128 114.848 42.5095 114.848 44.1405ZM114.757 35.7137V40.7879C115.301 39.8818 116.751 39.3382 117.748 39.3382C120.375 39.3382 122.369 40.9692 122.369 44.1405C122.369 47.1307 120.375 48.9429 117.657 48.9429C116.57 48.9429 115.392 48.5804 114.667 47.4931L114.576 48.6711H112.492V35.7137H114.757Z" fill="#253746"/>
<path d="M77.0635 38.7039C75.8855 36.8917 73.8015 35.6232 71.4456 35.6232C67.7306 35.6232 64.8311 38.6133 64.8311 42.2377C64.8311 42.6908 64.9217 43.1438 64.9217 43.5969C70.6301 40.0631 75.1607 38.9758 77.0635 38.7039Z" fill="#3BBFAD"/>
<path d="M77.2449 38.8851C71.6271 41.3316 68.0026 45.4997 66.8247 46.9495C68.0026 48.1274 69.7242 48.9429 71.5365 48.9429C75.2515 48.9429 78.151 45.9528 78.151 42.3283C78.151 41.0598 77.7886 39.8818 77.2449 38.8851Z" fill="#3BBFAD"/>
<path d="M71.5034 25.3762H68.4233L68.4048 23.4465H70.9653C71.2189 23.4465 71.4199 23.4187 71.5684 23.363C71.723 23.3074 71.8312 23.2239 71.8931 23.1125C71.9611 22.995 71.9951 22.8559 71.9951 22.6951C71.9951 22.5343 71.9704 22.3982 71.9209 22.2869C71.8776 22.1755 71.8065 22.0859 71.7075 22.0178C71.6147 21.9498 71.4972 21.9003 71.355 21.8694C71.2127 21.8385 71.0457 21.823 70.854 21.823H69.6758V29.4675H66.5493V19.4294H70.854C71.5158 19.4294 72.1095 19.4882 72.6353 19.6057C73.161 19.717 73.6063 19.8902 73.9712 20.1252C74.3423 20.3541 74.6268 20.6448 74.8247 20.9973C75.0226 21.3499 75.1216 21.7642 75.1216 22.2405C75.1216 22.5497 75.0474 22.8404 74.8989 23.1125C74.7505 23.3847 74.5309 23.6259 74.2402 23.8362C73.9557 24.0465 73.6032 24.2196 73.1826 24.3557C72.762 24.4856 72.2796 24.566 71.7354 24.5969L71.5034 25.3762ZM71.5034 29.4675H67.7461L68.7017 27.074H71.5034C71.7632 27.074 71.9735 27.0431 72.1343 26.9812C72.2951 26.9194 72.4126 26.8266 72.4868 26.7029C72.561 26.5792 72.5981 26.4277 72.5981 26.2483C72.5981 26.0751 72.5672 25.9236 72.5054 25.7937C72.4435 25.6638 72.3322 25.5618 72.1714 25.4875C72.0168 25.4133 71.7941 25.3762 71.5034 25.3762H69.0542L69.0728 23.4465H71.7168L72.3848 24.2351C73.1641 24.2784 73.798 24.4114 74.2866 24.634C74.7814 24.8567 75.1432 25.1381 75.3721 25.4783C75.6071 25.8184 75.7246 26.1926 75.7246 26.6008C75.7246 27.0771 75.6318 27.4945 75.4463 27.8533C75.2669 28.212 74.9979 28.512 74.6392 28.7532C74.2804 28.9882 73.8382 29.1676 73.3125 29.2913C72.793 29.4088 72.1899 29.4675 71.5034 29.4675ZM91.0786 15.9597V17.6296L86.0317 29.4675H82.729L87.7852 18.3718H81.3374V15.9597H91.0786ZM102.657 25.3762H99.5767L99.5581 23.4465H102.119C102.372 23.4465 102.573 23.4187 102.722 23.363C102.876 23.3074 102.985 23.2239 103.046 23.1125C103.114 22.995 103.148 22.8559 103.148 22.6951C103.148 22.5343 103.124 22.3982 103.074 22.2869C103.031 22.1755 102.96 22.0859 102.861 22.0178C102.768 21.9498 102.651 21.9003 102.508 21.8694C102.366 21.8385 102.199 21.823 102.007 21.823H100.829V29.4675H97.7026V19.4294H102.007C102.669 19.4294 103.263 19.4882 103.789 19.6057C104.314 19.717 104.76 19.8902 105.125 20.1252C105.496 20.3541 105.78 20.6448 105.978 20.9973C106.176 21.3499 106.275 21.7642 106.275 22.2405C106.275 22.5497 106.201 22.8404 106.052 23.1125C105.904 23.3847 105.684 23.6259 105.394 23.8362C105.109 24.0465 104.757 24.2196 104.336 24.3557C103.915 24.4856 103.433 24.566 102.889 24.5969L102.657 25.3762ZM102.657 29.4675H98.8994L99.855 27.074H102.657C102.917 27.074 103.127 27.0431 103.288 26.9812C103.448 26.9194 103.566 26.8266 103.64 26.7029C103.714 26.5792 103.751 26.4277 103.751 26.2483C103.751 26.0751 103.721 25.9236 103.659 25.7937C103.597 25.6638 103.486 25.5618 103.325 25.4875C103.17 25.4133 102.947 25.3762 102.657 25.3762H100.208L100.226 23.4465H102.87L103.538 24.2351C104.317 24.2784 104.951 24.4114 105.44 24.634C105.935 24.8567 106.297 25.1381 106.525 25.4783C106.76 25.8184 106.878 26.1926 106.878 26.6008C106.878 27.0771 106.785 27.4945 106.6 27.8533C106.42 28.212 106.151 28.512 105.792 28.7532C105.434 28.9882 104.992 29.1676 104.466 29.2913C103.946 29.4088 103.343 29.4675 102.657 29.4675ZM113.01 24.6804H110.951V23.4187H112.24C112.506 23.4187 112.72 23.3785 112.88 23.2981C113.047 23.2177 113.168 23.1064 113.242 22.9641C113.323 22.8157 113.363 22.6487 113.363 22.4631C113.363 22.3023 113.335 22.1477 113.279 21.9993C113.23 21.8508 113.131 21.7271 112.982 21.6282C112.834 21.5292 112.614 21.4797 112.324 21.4797C112.083 21.4797 111.872 21.5107 111.693 21.5725C111.514 21.6344 111.374 21.7302 111.275 21.8601C111.176 21.9838 111.127 22.1446 111.127 22.3425H107.991C107.991 21.6931 108.177 21.1396 108.548 20.6819C108.919 20.218 109.417 19.8655 110.042 19.6243C110.666 19.3769 111.356 19.2532 112.11 19.2532C112.772 19.2532 113.372 19.3181 113.91 19.448C114.448 19.5717 114.909 19.7572 115.292 20.0046C115.676 20.252 115.97 20.5582 116.174 20.9231C116.384 21.2818 116.489 21.6993 116.489 22.1755C116.489 22.5157 116.409 22.8373 116.248 23.1404C116.087 23.4434 115.855 23.7125 115.552 23.9475C115.249 24.1764 114.881 24.3557 114.448 24.4856C114.021 24.6155 113.542 24.6804 113.01 24.6804ZM110.951 24.0125H113.01C113.604 24.0125 114.127 24.0712 114.578 24.1887C115.036 24.3 115.419 24.467 115.729 24.6897C116.038 24.9124 116.27 25.1876 116.424 25.5154C116.585 25.837 116.666 26.2081 116.666 26.6287C116.666 27.1049 116.554 27.5317 116.332 27.9089C116.109 28.28 115.793 28.5955 115.385 28.8552C114.977 29.115 114.495 29.3129 113.938 29.449C113.381 29.585 112.772 29.6531 112.11 29.6531C111.411 29.6531 110.734 29.5417 110.079 29.3191C109.423 29.0964 108.885 28.7532 108.464 28.2893C108.044 27.8254 107.833 27.2286 107.833 26.4988H110.969C110.969 26.6658 111.016 26.8204 111.108 26.9626C111.201 27.1049 111.347 27.2193 111.544 27.3059C111.749 27.3863 112.011 27.4265 112.333 27.4265C112.648 27.4265 112.893 27.3739 113.066 27.2688C113.245 27.1637 113.369 27.0276 113.437 26.8606C113.511 26.6936 113.548 26.5235 113.548 26.3503C113.548 26.0844 113.499 25.871 113.4 25.7102C113.301 25.5494 113.153 25.4319 112.955 25.3577C112.763 25.2773 112.525 25.2371 112.24 25.2371H110.951V24.0125ZM124.932 23.3445V25.7473H119.922V23.3445H124.932ZM121.063 19.4294V29.4675H117.937V19.4294H121.063ZM126.936 19.4294V29.4675H123.8V19.4294H126.936ZM128.271 24.5505V24.3557C128.271 23.6197 128.377 22.9425 128.587 22.324C128.797 21.6993 129.106 21.1581 129.515 20.7004C129.923 20.2428 130.427 19.8871 131.027 19.6335C131.627 19.3738 132.319 19.2439 133.105 19.2439C133.897 19.2439 134.592 19.3738 135.192 19.6335C135.799 19.8871 136.306 20.2428 136.714 20.7004C137.122 21.1581 137.431 21.6993 137.642 22.324C137.852 22.9425 137.957 23.6197 137.957 24.3557V24.5505C137.957 25.2804 137.852 25.9576 137.642 26.5823C137.431 27.2008 137.122 27.7419 136.714 28.2058C136.306 28.6635 135.802 29.0191 135.202 29.2727C134.602 29.5263 133.909 29.6531 133.124 29.6531C132.338 29.6531 131.642 29.5263 131.036 29.2727C130.43 29.0191 129.923 28.6635 129.515 28.2058C129.106 27.7419 128.797 27.2008 128.587 26.5823C128.377 25.9576 128.271 25.2804 128.271 24.5505ZM131.398 24.3557V24.5505C131.398 24.9278 131.426 25.2804 131.481 25.6082C131.537 25.936 131.63 26.2236 131.76 26.4709C131.89 26.7122 132.066 26.9008 132.289 27.0369C132.511 27.1729 132.79 27.241 133.124 27.241C133.451 27.241 133.723 27.1729 133.94 27.0369C134.163 26.9008 134.339 26.7122 134.469 26.4709C134.599 26.2236 134.691 25.936 134.747 25.6082C134.803 25.2804 134.831 24.9278 134.831 24.5505V24.3557C134.831 23.9908 134.803 23.6475 134.747 23.3259C134.691 22.9981 134.599 22.7105 134.469 22.4631C134.339 22.2096 134.163 22.0116 133.94 21.8694C133.717 21.7271 133.439 21.656 133.105 21.656C132.777 21.656 132.502 21.7271 132.279 21.8694C132.063 22.0116 131.89 22.2096 131.76 22.4631C131.63 22.7105 131.537 22.9981 131.481 23.3259C131.426 23.6475 131.398 23.9908 131.398 24.3557ZM143.588 27.241C143.879 27.241 144.126 27.1884 144.331 27.0833C144.541 26.9719 144.699 26.8173 144.804 26.6194C144.915 26.4153 144.968 26.171 144.961 25.8865H147.902C147.909 26.641 147.723 27.3028 147.346 27.8718C146.975 28.4347 146.467 28.8738 145.824 29.1892C145.187 29.4985 144.467 29.6531 143.663 29.6531C142.877 29.6531 142.191 29.5263 141.603 29.2727C141.015 29.0129 140.524 28.6542 140.128 28.1965C139.738 27.7327 139.444 27.1915 139.247 26.573C139.055 25.9545 138.959 25.2834 138.959 24.5598V24.3464C138.959 23.6228 139.055 22.9517 139.247 22.3333C139.444 21.7086 139.738 21.1674 140.128 20.7097C140.524 20.2458 141.012 19.8871 141.594 19.6335C142.181 19.3738 142.865 19.2439 143.644 19.2439C144.479 19.2439 145.215 19.4016 145.852 19.717C146.495 20.0325 146.999 20.4902 147.364 21.0901C147.729 21.69 147.909 22.4167 147.902 23.2703H144.961C144.968 22.9672 144.921 22.6951 144.822 22.4539C144.723 22.2126 144.569 22.0209 144.358 21.8787C144.154 21.7302 143.891 21.656 143.57 21.656C143.248 21.656 142.988 21.7271 142.791 21.8694C142.593 22.0116 142.441 22.2096 142.336 22.4631C142.237 22.7105 142.169 22.995 142.132 23.3167C142.101 23.6383 142.085 23.9815 142.085 24.3464V24.5598C142.085 24.9309 142.101 25.2804 142.132 25.6082C142.169 25.9298 142.24 26.2143 142.345 26.4617C142.45 26.7029 142.602 26.8946 142.8 27.0369C142.998 27.1729 143.261 27.241 143.588 27.241ZM148.849 24.5505V24.3557C148.849 23.6197 148.954 22.9425 149.164 22.324C149.374 21.6993 149.684 21.1581 150.092 20.7004C150.5 20.2428 151.004 19.8871 151.604 19.6335C152.204 19.3738 152.897 19.2439 153.682 19.2439C154.474 19.2439 155.17 19.3738 155.77 19.6335C156.376 19.8871 156.883 20.2428 157.291 20.7004C157.699 21.1581 158.008 21.6993 158.219 22.324C158.429 22.9425 158.534 23.6197 158.534 24.3557V24.5505C158.534 25.2804 158.429 25.9576 158.219 26.5823C158.008 27.2008 157.699 27.7419 157.291 28.2058C156.883 28.6635 156.379 29.0191 155.779 29.2727C155.179 29.5263 154.486 29.6531 153.701 29.6531C152.915 29.6531 152.219 29.5263 151.613 29.2727C151.007 29.0191 150.5 28.6635 150.092 28.2058C149.684 27.7419 149.374 27.2008 149.164 26.5823C148.954 25.9576 148.849 25.2804 148.849 24.5505ZM151.975 24.3557V24.5505C151.975 24.9278 152.003 25.2804 152.059 25.6082C152.114 25.936 152.207 26.2236 152.337 26.4709C152.467 26.7122 152.643 26.9008 152.866 27.0369C153.088 27.1729 153.367 27.241 153.701 27.241C154.028 27.241 154.301 27.1729 154.517 27.0369C154.74 26.9008 154.916 26.7122 155.046 26.4709C155.176 26.2236 155.269 25.936 155.324 25.6082C155.38 25.2804 155.408 24.9278 155.408 24.5505V24.3557C155.408 23.9908 155.38 23.6475 155.324 23.3259C155.269 22.9981 155.176 22.7105 155.046 22.4631C154.916 22.2096 154.74 22.0116 154.517 21.8694C154.294 21.7271 154.016 21.656 153.682 21.656C153.354 21.656 153.079 21.7271 152.856 21.8694C152.64 22.0116 152.467 22.2096 152.337 22.4631C152.207 22.7105 152.114 22.9981 152.059 23.3259C152.003 23.6475 151.975 23.9908 151.975 24.3557ZM165.093 25.3762H162.013L161.995 23.4465H164.555C164.809 23.4465 165.01 23.4187 165.158 23.363C165.313 23.3074 165.421 23.2239 165.483 23.1125C165.551 22.995 165.585 22.8559 165.585 22.6951C165.585 22.5343 165.56 22.3982 165.511 22.2869C165.467 22.1755 165.396 22.0859 165.297 22.0178C165.205 21.9498 165.087 21.9003 164.945 21.8694C164.803 21.8385 164.636 21.823 164.444 21.823H163.266V29.4675H160.139V19.4294H164.444C165.106 19.4294 165.699 19.4882 166.225 19.6057C166.751 19.717 167.196 19.8902 167.561 20.1252C167.932 20.3541 168.217 20.6448 168.415 20.9973C168.612 21.3499 168.711 21.7642 168.711 22.2405C168.711 22.5497 168.637 22.8404 168.489 23.1125C168.34 23.3847 168.121 23.6259 167.83 23.8362C167.546 24.0465 167.193 24.2196 166.772 24.3557C166.352 24.4856 165.869 24.566 165.325 24.5969L165.093 25.3762ZM165.093 29.4675H161.336L162.292 27.074H165.093C165.353 27.074 165.563 27.0431 165.724 26.9812C165.885 26.9194 166.002 26.8266 166.077 26.7029C166.151 26.5792 166.188 26.4277 166.188 26.2483C166.188 26.0751 166.157 25.9236 166.095 25.7937C166.033 25.6638 165.922 25.5618 165.761 25.4875C165.607 25.4133 165.384 25.3762 165.093 25.3762H162.644L162.663 23.4465H165.307L165.975 24.2351C166.754 24.2784 167.388 24.4114 167.876 24.634C168.371 24.8567 168.733 25.1381 168.962 25.4783C169.197 25.8184 169.314 26.1926 169.314 26.6008C169.314 27.0771 169.222 27.4945 169.036 27.8533C168.857 28.212 168.588 28.512 168.229 28.7532C167.87 28.9882 167.428 29.1676 166.902 29.2913C166.383 29.4088 165.78 29.4675 165.093 29.4675ZM179.566 27.241C179.857 27.241 180.104 27.1884 180.308 27.0833C180.518 26.9719 180.676 26.8173 180.781 26.6194C180.893 26.4153 180.945 26.171 180.939 25.8865H183.88C183.886 26.641 183.701 27.3028 183.323 27.8718C182.952 28.4347 182.445 28.8738 181.802 29.1892C181.165 29.4985 180.444 29.6531 179.64 29.6531C178.855 29.6531 178.168 29.5263 177.581 29.2727C176.993 29.0129 176.501 28.6542 176.105 28.1965C175.716 27.7327 175.422 27.1915 175.224 26.573C175.032 25.9545 174.937 25.2834 174.937 24.5598V24.3464C174.937 23.6228 175.032 22.9517 175.224 22.3333C175.422 21.7086 175.716 21.1674 176.105 20.7097C176.501 20.2458 176.99 19.8871 177.571 19.6335C178.159 19.3738 178.842 19.2439 179.622 19.2439C180.457 19.2439 181.193 19.4016 181.83 19.717C182.473 20.0325 182.977 20.4902 183.342 21.0901C183.707 21.69 183.886 22.4167 183.88 23.2703H180.939C180.945 22.9672 180.899 22.6951 180.8 22.4539C180.701 22.2126 180.546 22.0209 180.336 21.8787C180.132 21.7302 179.869 21.656 179.547 21.656C179.226 21.656 178.966 21.7271 178.768 21.8694C178.57 22.0116 178.419 22.2096 178.313 22.4631C178.215 22.7105 178.146 22.995 178.109 23.3167C178.078 23.6383 178.063 23.9815 178.063 24.3464V24.5598C178.063 24.9309 178.078 25.2804 178.109 25.6082C178.146 25.9298 178.218 26.2143 178.323 26.4617C178.428 26.7029 178.579 26.8946 178.777 27.0369C178.975 27.1729 179.238 27.241 179.566 27.241Z" fill="#253746"/>
</svg>
