<svg width="192" height="64" viewBox="0 0 192 64" fill="none" xmlns="http://www.w3.org/2000/svg">
<rect x="0.311688" y="0.311688" width="191.377" height="62.961" rx="5.92208" fill="#253746"/>
<rect x="0.311688" y="0.311688" width="191.377" height="62.961" rx="5.92208" stroke="#253746" stroke-width="0.623377"/>
<path d="M30.5735 28.864V32.7311C30.5735 34.409 30.3944 35.8566 30.0363 37.074C29.6783 38.2812 29.1616 39.2736 28.4864 40.0511C27.8214 40.8184 27.0286 41.3862 26.1078 41.7545C25.1871 42.1228 24.164 42.3069 23.0387 42.3069C22.1384 42.3069 21.2995 42.1944 20.522 41.9693C19.7444 41.734 19.0436 41.3708 18.4196 40.8798C17.8058 40.3887 17.2738 39.7697 16.8236 39.0229C16.3837 38.2659 16.0461 37.3656 15.8108 36.3221C15.5755 35.2785 15.4578 34.0816 15.4578 32.7311V28.864C15.4578 27.1862 15.6369 25.7488 15.995 24.5518C16.3633 23.3446 16.8799 22.3574 17.5449 21.5901C18.2201 20.8228 19.0181 20.2601 19.9388 19.9021C20.8596 19.5338 21.8826 19.3496 23.008 19.3496C23.9083 19.3496 24.7421 19.4673 25.5093 19.7026C26.2869 19.9276 26.9877 20.2806 27.6117 20.7614C28.2358 21.2423 28.7678 21.8612 29.2077 22.6183C29.6476 23.3651 29.9852 24.2603 30.2205 25.3038C30.4558 26.3371 30.5735 27.5238 30.5735 28.864ZM26.1385 33.3143V28.2655C26.1385 27.4573 26.0925 26.7514 26.0004 26.1478C25.9186 25.5442 25.7907 25.0327 25.6168 24.6132C25.4428 24.1835 25.228 23.8357 24.9722 23.5697C24.7165 23.3037 24.4249 23.1093 24.0975 22.9866C23.7702 22.8638 23.407 22.8024 23.008 22.8024C22.5067 22.8024 22.0617 22.8996 21.6729 23.094C21.2944 23.2884 20.9721 23.6004 20.7061 24.0301C20.4401 24.4495 20.2355 25.0122 20.0923 25.7181C19.9593 26.4138 19.8928 27.2629 19.8928 28.2655V33.3143C19.8928 34.1225 19.9337 34.8335 20.0155 35.4473C20.1076 36.0612 20.2406 36.5881 20.4145 37.028C20.5987 37.4576 20.8135 37.8106 21.0591 38.0868C21.3148 38.3528 21.6064 38.5472 21.9338 38.67C22.2714 38.7927 22.6397 38.8541 23.0387 38.8541C23.5297 38.8541 23.9645 38.7569 24.3431 38.5625C24.7318 38.3579 25.0592 38.0408 25.3252 37.6111C25.6014 37.1712 25.806 36.5983 25.939 35.8924C26.072 35.1865 26.1385 34.3271 26.1385 33.3143ZM33.5198 25.135V23.9534C33.5198 23.1042 33.704 22.3318 34.0723 21.6361C34.4406 20.9405 34.9828 20.3829 35.6989 19.9634C36.4151 19.544 37.2949 19.3343 38.3384 19.3343C39.4126 19.3343 40.3078 19.544 41.0239 19.9634C41.7503 20.3829 42.2925 20.9405 42.6506 21.6361C43.0189 22.3318 43.203 23.1042 43.203 23.9534V25.135C43.203 25.9637 43.0189 26.7258 42.6506 27.4215C42.2925 28.1172 41.7554 28.6747 41.0393 29.0942C40.3231 29.5136 39.4382 29.7234 38.3845 29.7234C37.3205 29.7234 36.4253 29.5136 35.6989 29.0942C34.9828 28.6747 34.4406 28.1172 34.0723 27.4215C33.704 26.7258 33.5198 25.9637 33.5198 25.135ZM36.4509 23.9534V25.135C36.4509 25.493 36.5174 25.8358 36.6504 26.1631C36.7936 26.4803 37.0085 26.7412 37.2949 26.9458C37.5916 27.1402 37.9497 27.2374 38.3691 27.2374C38.809 27.2374 39.1671 27.1402 39.4433 26.9458C39.7195 26.7412 39.9242 26.4803 40.0571 26.1631C40.1901 25.8358 40.2566 25.493 40.2566 25.135V23.9534C40.2566 23.5748 40.185 23.227 40.0418 22.9098C39.9088 22.5825 39.6991 22.3216 39.4126 22.1272C39.1364 21.9226 38.7783 21.8203 38.3384 21.8203C37.9292 21.8203 37.5814 21.9226 37.2949 22.1272C37.0085 22.3216 36.7936 22.5825 36.6504 22.9098C36.5174 23.227 36.4509 23.5748 36.4509 23.9534ZM44.2005 37.7032V36.5216C44.2005 35.6827 44.3847 34.9154 44.753 34.2197C45.1315 33.524 45.6788 32.9664 46.395 32.547C47.1213 32.1275 48.0114 31.9178 49.0651 31.9178C50.1291 31.9178 51.0192 32.1275 51.7353 32.547C52.4514 32.9664 52.9936 33.524 53.3619 34.2197C53.7302 34.9154 53.9144 35.6827 53.9144 36.5216V37.7032C53.9144 38.5421 53.7302 39.3094 53.3619 40.005C53.0039 40.7007 52.4668 41.2583 51.7506 41.6777C51.0345 42.0972 50.1496 42.3069 49.0958 42.3069C48.0318 42.3069 47.1367 42.0972 46.4103 41.6777C45.6839 41.2583 45.1315 40.7007 44.753 40.005C44.3847 39.3094 44.2005 38.5421 44.2005 37.7032ZM47.1469 36.5216V37.7032C47.1469 38.0715 47.2287 38.4193 47.3924 38.7467C47.5561 39.0741 47.7812 39.3349 48.0676 39.5293C48.3643 39.7237 48.7071 39.8209 49.0958 39.8209C49.5869 39.8209 49.9705 39.7237 50.2468 39.5293C50.523 39.3349 50.7122 39.0741 50.8145 38.7467C50.9271 38.4193 50.9833 38.0715 50.9833 37.7032V36.5216C50.9833 36.1533 50.9117 35.8105 50.7685 35.4934C50.6253 35.166 50.4104 34.9051 50.124 34.7108C49.8478 34.5061 49.4948 34.4038 49.0651 34.4038C48.6354 34.4038 48.2774 34.5061 47.9909 34.7108C47.7147 34.9051 47.505 35.166 47.3617 35.4934C47.2185 35.8105 47.1469 36.1533 47.1469 36.5216ZM50.1547 22.8485L39.2438 40.312L37.0954 39.1764L48.0063 21.7129L50.1547 22.8485Z" fill="#FCB533"/>
<path d="M124.906 35.7137H127.353V48.7617H124.906V35.7137Z" fill="#FCB533"/>
<path d="M129.437 36.9822C129.437 36.1667 130.071 35.5325 130.977 35.5325C131.883 35.5325 132.517 36.1667 132.517 36.9822C132.517 37.7977 131.883 38.432 130.977 38.432C130.071 38.432 129.437 37.7977 129.437 36.9822ZM129.708 39.6099H132.155V48.7616H129.708V39.6099Z" fill="#FCB533"/>
<path d="M144.568 44.1405C144.568 46.9495 142.756 48.9429 140.128 48.9429C138.769 48.9429 137.682 48.4898 136.957 47.5837L136.776 48.6711H134.601V35.7137H137.048V40.5161C137.772 39.7912 138.86 39.3382 140.038 39.3382C142.665 39.3382 144.568 41.3316 144.568 44.1405ZM142.031 44.1405C142.031 42.6001 141.034 41.5128 139.494 41.5128C138.044 41.5128 136.957 42.6001 136.957 44.1405C136.957 45.6809 137.954 46.7682 139.494 46.7682C141.034 46.7682 142.031 45.6809 142.031 44.1405Z" fill="#FCB533"/>
<path d="M155.351 44.956H148.283C148.465 46.1339 149.461 46.8588 150.911 46.8588C151.908 46.8588 152.905 46.4964 153.448 45.9527L154.807 47.4025C153.811 48.3992 152.361 48.9429 150.73 48.9429C147.649 48.9429 145.656 47.04 145.656 44.1405C145.656 41.241 147.649 39.3381 150.458 39.3381C153.992 39.3381 155.804 41.6034 155.351 44.956ZM148.374 43.325H153.086C152.995 42.1471 152.089 41.4222 150.73 41.4222C149.371 41.4222 148.555 42.1471 148.374 43.325Z" fill="#FCB533"/>
<path d="M164.503 40.2442L163.416 42.147C162.872 41.7845 162.419 41.6939 161.966 41.6939C160.607 41.6939 159.701 42.6 159.701 44.3216V48.7616H157.254V39.6099H159.429L159.61 40.7878C160.335 39.8817 161.151 39.4287 162.238 39.4287C162.963 39.3381 163.869 39.7005 164.503 40.2442Z" fill="#FCB533"/>
<path d="M86.3058 48.671V43.7781C86.3058 42.6001 85.6715 41.5128 84.403 41.5128C83.225 41.5128 82.5001 42.6001 82.5001 43.7781V48.671H80.2349V39.5194H82.3189L82.5001 40.6067C82.9532 39.7006 84.0405 39.3381 84.9466 39.3381C86.0339 39.3381 87.1213 39.7912 87.6649 41.0597C88.4804 39.7912 89.5678 39.4287 90.7457 39.4287C93.3734 39.4287 94.6419 41.0597 94.6419 43.7781V48.671H92.3767V43.7781C92.3767 42.6001 91.833 41.5128 90.6551 41.5128C89.4771 41.5128 88.6616 42.6001 88.6616 43.7781V48.671H86.3058Z" fill="white"/>
<path d="M98.4477 44.0498C98.4477 45.7714 99.6256 46.8587 101.166 46.8587C104.7 46.8587 104.7 41.3315 101.166 41.3315C99.6256 41.3315 98.4477 42.3282 98.4477 44.0498ZM103.884 39.5193H106.059V48.6709H103.884L103.794 47.3118C103.25 48.3991 101.891 48.9428 100.804 48.9428C98.0852 48.9428 96.0918 47.3118 96.0918 44.0498C96.0918 40.8784 98.1758 39.2474 100.894 39.2474C102.072 39.2474 103.25 39.7911 103.794 40.6972L103.884 39.5193Z" fill="white"/>
<path d="M108.143 39.5194V48.671H110.408V39.5194H108.143ZM110.589 36.8917C110.589 38.6133 107.961 38.6133 107.961 36.8917C107.961 35.1701 110.589 35.1701 110.589 36.8917Z" fill="white"/>
<path d="M114.848 44.1405C114.848 45.7715 116.026 46.8588 117.476 46.8588C118.926 46.8588 120.103 45.7715 120.103 44.1405C120.103 42.5095 118.926 41.5128 117.476 41.5128C116.117 41.5128 114.848 42.5095 114.848 44.1405ZM114.757 35.7137V40.7879C115.301 39.8818 116.751 39.3382 117.748 39.3382C120.375 39.3382 122.369 40.9692 122.369 44.1405C122.369 47.1307 120.375 48.9429 117.657 48.9429C116.57 48.9429 115.392 48.5804 114.667 47.4931L114.576 48.6711H112.492V35.7137H114.757Z" fill="white"/>
<path d="M77.0635 38.7039C75.8855 36.8917 73.8015 35.6232 71.4456 35.6232C67.7306 35.6232 64.8311 38.6133 64.8311 42.2377C64.8311 42.6908 64.9217 43.1438 64.9217 43.5969C70.6301 40.0631 75.1607 38.9758 77.0635 38.7039Z" fill="#3BBFAD"/>
<path d="M77.2449 38.8851C71.6271 41.3316 68.0026 45.4997 66.8247 46.9495C68.0026 48.1274 69.7242 48.9429 71.5365 48.9429C75.2515 48.9429 78.151 45.9528 78.151 42.3283C78.151 41.0598 77.7886 39.8818 77.2449 38.8851Z" fill="#3BBFAD"/>
<path d="M72.2705 24.4831H68.645L68.6257 22.2594H71.5647C72.0933 22.2594 72.5154 22.2014 72.8312 22.0854C73.1471 21.9629 73.3759 21.7857 73.5177 21.5537C73.6659 21.3216 73.74 21.0316 73.74 20.6835C73.74 20.2839 73.6659 19.9617 73.5177 19.7167C73.3694 19.4718 73.1342 19.2946 72.8119 19.185C72.4961 19.069 72.0868 19.011 71.5841 19.011H69.9212V30.4675H66.5277V16.391H71.5841C72.4542 16.391 73.2309 16.4715 73.9141 16.6327C74.5973 16.7874 75.1773 17.0258 75.6543 17.3481C76.1377 17.6704 76.5051 18.0764 76.7564 18.5663C77.0078 19.0497 77.1335 19.6201 77.1335 20.2775C77.1335 20.8511 77.011 21.3893 76.7661 21.892C76.5212 22.3948 76.1119 22.8041 75.5383 23.1199C74.9711 23.4292 74.1944 23.5904 73.2083 23.6033L72.2705 24.4831ZM72.1352 30.4675H67.8232L68.9834 27.8572H72.1352C72.5992 27.8572 72.9698 27.7863 73.247 27.6445C73.5306 27.4962 73.7336 27.3029 73.8561 27.0644C73.985 26.8195 74.0494 26.5488 74.0494 26.2523C74.0494 25.8914 73.9882 25.5788 73.8657 25.3145C73.7497 25.0502 73.5628 24.8472 73.305 24.7054C73.0472 24.5572 72.7023 24.4831 72.2705 24.4831H69.4185L69.4378 22.2594H72.8506L73.6434 23.1489C74.5844 23.1102 75.3288 23.2423 75.8767 23.5453C76.431 23.8482 76.8273 24.2478 77.0658 24.7441C77.3043 25.2404 77.4235 25.7592 77.4235 26.3006C77.4235 27.2223 77.2237 27.9925 76.8241 28.6113C76.431 29.23 75.8412 29.6941 75.0549 30.0035C74.2686 30.3128 73.2953 30.4675 72.1352 30.4675ZM94.0621 24.9665V27.4801H83.9301L83.7367 25.4885L89.3925 16.391H91.9642L89.1701 20.9639L86.8498 24.9665H94.0621ZM92.6409 16.391V30.4675H89.3828V16.391H92.6409ZM105.886 26.204H102.676L102.657 24.193H105.325C105.59 24.193 105.799 24.164 105.954 24.106C106.115 24.048 106.228 23.961 106.292 23.845C106.363 23.7225 106.398 23.5775 106.398 23.4099C106.398 23.2423 106.373 23.1005 106.321 22.9845C106.276 22.8685 106.202 22.775 106.099 22.7042C106.002 22.6333 105.88 22.5817 105.731 22.5495C105.583 22.5172 105.409 22.5011 105.209 22.5011H103.981V30.4675H100.723V20.0068H105.209C105.899 20.0068 106.518 20.068 107.066 20.1905C107.613 20.3065 108.077 20.487 108.458 20.7319C108.844 20.9704 109.141 21.2733 109.347 21.6407C109.553 22.0081 109.657 22.4399 109.657 22.9362C109.657 23.2584 109.579 23.5614 109.425 23.845C109.27 24.1286 109.041 24.3799 108.738 24.5991C108.442 24.8182 108.074 24.9987 107.636 25.1405C107.198 25.2758 106.695 25.3596 106.128 25.3918L105.886 26.204ZM105.886 30.4675H101.971L102.966 27.9732H105.886C106.157 27.9732 106.376 27.941 106.543 27.8765C106.711 27.8121 106.833 27.7154 106.911 27.5865C106.988 27.4576 107.027 27.2997 107.027 27.1127C107.027 26.9323 106.995 26.7744 106.93 26.639C106.866 26.5037 106.75 26.3973 106.582 26.32C106.421 26.2426 106.189 26.204 105.886 26.204H103.334L103.353 24.193H106.108L106.804 25.0148C107.617 25.0599 108.277 25.1985 108.786 25.4305C109.302 25.6625 109.679 25.9558 109.918 26.3103C110.162 26.6648 110.285 27.0547 110.285 27.4801C110.285 27.9764 110.188 28.4115 109.995 28.7853C109.808 29.1591 109.528 29.4717 109.154 29.7231C108.78 29.968 108.319 30.1549 107.771 30.2838C107.23 30.4063 106.601 30.4675 105.886 30.4675ZM116.675 25.4789H114.529V24.164H115.873C116.15 24.164 116.373 24.1221 116.54 24.0383C116.714 23.9545 116.84 23.8385 116.917 23.6903C117.001 23.5356 117.043 23.3616 117.043 23.1682C117.043 23.0006 117.014 22.8395 116.956 22.6848C116.904 22.5301 116.801 22.4012 116.646 22.2981C116.492 22.195 116.263 22.1434 115.96 22.1434C115.709 22.1434 115.49 22.1756 115.303 22.2401C115.116 22.3045 114.971 22.4044 114.868 22.5398C114.764 22.6687 114.713 22.8363 114.713 23.0425H111.445C111.445 22.3658 111.638 21.7889 112.025 21.312C112.412 20.8286 112.931 20.4612 113.582 20.2098C114.233 19.952 114.951 19.8231 115.738 19.8231C116.427 19.8231 117.053 19.8908 117.613 20.0261C118.174 20.155 118.654 20.3484 119.054 20.6062C119.453 20.864 119.76 21.1831 119.972 21.5633C120.191 21.9372 120.301 22.3722 120.301 22.8685C120.301 23.223 120.217 23.5582 120.05 23.874C119.882 24.1898 119.64 24.4702 119.325 24.7151C119.009 24.9536 118.625 25.1405 118.174 25.2758C117.729 25.4112 117.23 25.4789 116.675 25.4789ZM114.529 24.7828H116.675C117.294 24.7828 117.839 24.844 118.309 24.9665C118.786 25.0825 119.186 25.2565 119.508 25.4885C119.83 25.7206 120.072 26.0074 120.233 26.349C120.401 26.6841 120.485 27.0708 120.485 27.5091C120.485 28.0054 120.369 28.4501 120.137 28.8433C119.905 29.23 119.576 29.5587 119.15 29.8294C118.725 30.1001 118.222 30.3064 117.642 30.4482C117.062 30.59 116.427 30.6609 115.738 30.6609C115.009 30.6609 114.304 30.5449 113.62 30.3128C112.937 30.0808 112.376 29.7231 111.938 29.2397C111.5 28.7563 111.281 28.1343 111.281 27.3738H114.549C114.549 27.5478 114.597 27.7089 114.694 27.8572C114.79 28.0054 114.942 28.1247 115.148 28.2149C115.361 28.2987 115.635 28.3406 115.97 28.3406C116.298 28.3406 116.553 28.2858 116.733 28.1762C116.92 28.0667 117.049 27.9249 117.12 27.7508C117.198 27.5768 117.236 27.3996 117.236 27.2191C117.236 26.9419 117.185 26.7196 117.082 26.552C116.978 26.3844 116.824 26.262 116.617 26.1846C116.418 26.1008 116.17 26.0589 115.873 26.0589H114.529V24.7828ZM129.099 24.0867V26.5907H123.878V24.0867H129.099ZM125.067 20.0068V30.4675H121.809V20.0068H125.067ZM131.187 20.0068V30.4675H127.919V20.0068H131.187ZM132.579 25.3435V25.1405C132.579 24.3735 132.689 23.6677 132.908 23.0232C133.127 22.3722 133.449 21.8083 133.875 21.3313C134.3 20.8543 134.825 20.4837 135.451 20.2195C136.076 19.9488 136.798 19.8134 137.616 19.8134C138.441 19.8134 139.166 19.9488 139.792 20.2195C140.423 20.4837 140.952 20.8543 141.377 21.3313C141.803 21.8083 142.125 22.3722 142.344 23.0232C142.563 23.6677 142.673 24.3735 142.673 25.1405V25.3435C142.673 26.1041 142.563 26.8098 142.344 27.4608C142.125 28.1053 141.803 28.6693 141.377 29.1527C140.952 29.6296 140.426 30.0002 139.801 30.2645C139.176 30.5288 138.454 30.6609 137.636 30.6609C136.817 30.6609 136.092 30.5288 135.46 30.2645C134.829 30.0002 134.3 29.6296 133.875 29.1527C133.449 28.6693 133.127 28.1053 132.908 27.4608C132.689 26.8098 132.579 26.1041 132.579 25.3435ZM135.837 25.1405V25.3435C135.837 25.7367 135.866 26.1041 135.924 26.4457C135.982 26.7873 136.079 27.087 136.214 27.3448C136.35 27.5961 136.533 27.7927 136.766 27.9345C136.998 28.0763 137.288 28.1472 137.636 28.1472C137.977 28.1472 138.261 28.0763 138.486 27.9345C138.718 27.7927 138.902 27.5961 139.037 27.3448C139.173 27.087 139.27 26.7873 139.328 26.4457C139.386 26.1041 139.415 25.7367 139.415 25.3435V25.1405C139.415 24.7602 139.386 24.4025 139.328 24.0673C139.27 23.7257 139.173 23.426 139.037 23.1682C138.902 22.904 138.718 22.6977 138.486 22.5495C138.254 22.4012 137.964 22.3271 137.616 22.3271C137.275 22.3271 136.988 22.4012 136.756 22.5495C136.53 22.6977 136.35 22.904 136.214 23.1682C136.079 23.426 135.982 23.7257 135.924 24.0673C135.866 24.4025 135.837 24.7602 135.837 25.1405ZM148.541 28.1472C148.844 28.1472 149.102 28.0924 149.315 27.9829C149.534 27.8668 149.698 27.7057 149.808 27.4995C149.924 27.2868 149.978 27.0322 149.972 26.7357H153.037C153.043 27.522 152.85 28.2117 152.457 28.8046C152.07 29.3912 151.541 29.8488 150.871 30.1775C150.207 30.4998 149.456 30.6609 148.618 30.6609C147.8 30.6609 147.084 30.5288 146.472 30.2645C145.86 29.9938 145.347 29.62 144.935 29.143C144.529 28.6596 144.223 28.0957 144.017 27.4511C143.817 26.8066 143.717 26.1073 143.717 25.3532V25.1308C143.717 24.3767 143.817 23.6774 144.017 23.0329C144.223 22.3819 144.529 21.8179 144.935 21.341C145.347 20.8576 145.857 20.4837 146.462 20.2195C147.075 19.9488 147.787 19.8134 148.599 19.8134C149.469 19.8134 150.236 19.9778 150.9 20.3065C151.57 20.6352 152.096 21.1122 152.476 21.7374C152.856 22.3625 153.043 23.1199 153.037 24.0093H149.972C149.978 23.6935 149.93 23.4099 149.827 23.1585C149.724 22.9072 149.563 22.7074 149.344 22.5591C149.131 22.4044 148.857 22.3271 148.522 22.3271C148.187 22.3271 147.916 22.4012 147.71 22.5495C147.503 22.6977 147.346 22.904 147.236 23.1682C147.133 23.426 147.062 23.7225 147.023 24.0577C146.991 24.3928 146.975 24.7505 146.975 25.1308V25.3532C146.975 25.7399 146.991 26.1041 147.023 26.4457C147.062 26.7808 147.136 27.0773 147.246 27.3351C147.355 27.5865 147.513 27.7863 147.719 27.9345C147.926 28.0763 148.2 28.1472 148.541 28.1472ZM159.862 27.8378V23.5259C159.862 23.2294 159.82 22.9749 159.737 22.7622C159.653 22.5495 159.521 22.3851 159.34 22.2691C159.16 22.1466 158.918 22.0854 158.615 22.0854C158.37 22.0854 158.161 22.1273 157.987 22.2111C157.813 22.2949 157.681 22.4206 157.59 22.5881C157.5 22.7557 157.455 22.9684 157.455 23.2262H154.197C154.197 22.7428 154.303 22.2949 154.516 21.8824C154.735 21.4634 155.044 21.0993 155.444 20.7899C155.85 20.4805 156.333 20.242 156.894 20.0745C157.461 19.9004 158.093 19.8134 158.789 19.8134C159.621 19.8134 160.362 19.952 161.013 20.2292C161.67 20.5063 162.189 20.922 162.569 21.4763C162.95 22.0242 163.14 22.7138 163.14 23.5453V27.8282C163.14 28.5114 163.178 29.0302 163.256 29.3847C163.333 29.7328 163.443 30.0389 163.584 30.3032V30.4675H160.317C160.162 30.1453 160.046 29.7521 159.969 29.288C159.898 28.8175 159.862 28.3341 159.862 27.8378ZM160.259 24.077L160.278 25.8172H158.837C158.535 25.8172 158.277 25.8591 158.064 25.9429C157.858 26.0267 157.69 26.1427 157.561 26.291C157.439 26.4328 157.349 26.5939 157.291 26.7744C157.239 26.9548 157.213 27.145 157.213 27.3448C157.213 27.5381 157.258 27.7122 157.349 27.8668C157.445 28.0151 157.574 28.1311 157.735 28.2149C157.896 28.2987 158.077 28.3406 158.277 28.3406C158.638 28.3406 158.944 28.2729 159.195 28.1375C159.453 27.9958 159.65 27.825 159.785 27.6251C159.92 27.4253 159.988 27.2384 159.988 27.0644L160.703 28.3986C160.575 28.6564 160.426 28.9174 160.259 29.1817C160.098 29.4459 159.895 29.6909 159.65 29.9165C159.411 30.1356 159.118 30.3161 158.77 30.4579C158.422 30.5932 158 30.6609 157.503 30.6609C156.859 30.6609 156.266 30.5288 155.724 30.2645C155.189 30.0002 154.761 29.6329 154.439 29.1624C154.116 28.6854 153.955 28.1375 153.955 27.5188C153.955 26.9774 154.052 26.494 154.245 26.0686C154.445 25.6432 154.745 25.2823 155.144 24.9858C155.544 24.6893 156.053 24.4637 156.672 24.309C157.291 24.1543 158.019 24.077 158.857 24.077H160.259ZM174.297 28.1472C174.6 28.1472 174.857 28.0924 175.07 27.9829C175.289 27.8668 175.454 27.7057 175.563 27.4995C175.679 27.2868 175.734 27.0322 175.727 26.7357H178.792C178.799 27.522 178.605 28.2117 178.212 28.8046C177.825 29.3912 177.297 29.8488 176.627 30.1775C175.963 30.4998 175.212 30.6609 174.374 30.6609C173.555 30.6609 172.84 30.5288 172.228 30.2645C171.615 29.9938 171.103 29.62 170.69 29.143C170.284 28.6596 169.978 28.0957 169.772 27.4511C169.572 26.8066 169.472 26.1073 169.472 25.3532V25.1308C169.472 24.3767 169.572 23.6774 169.772 23.0329C169.978 22.3819 170.284 21.8179 170.69 21.341C171.103 20.8576 171.612 20.4837 172.218 20.2195C172.83 19.9488 173.542 19.8134 174.355 19.8134C175.225 19.8134 175.992 19.9778 176.656 20.3065C177.326 20.6352 177.851 21.1122 178.231 21.7374C178.612 22.3625 178.799 23.1199 178.792 24.0093H175.727C175.734 23.6935 175.686 23.4099 175.582 23.1585C175.479 22.9072 175.318 22.7074 175.099 22.5591C174.886 22.4044 174.612 22.3271 174.277 22.3271C173.942 22.3271 173.671 22.4012 173.465 22.5495C173.259 22.6977 173.101 22.904 172.991 23.1682C172.888 23.426 172.817 23.7225 172.779 24.0577C172.746 24.3928 172.73 24.7505 172.73 25.1308V25.3532C172.73 25.7399 172.746 26.1041 172.779 26.4457C172.817 26.7808 172.892 27.0773 173.001 27.3351C173.111 27.5865 173.269 27.7863 173.475 27.9345C173.681 28.0763 173.955 28.1472 174.297 28.1472Z" fill="white"/>
</svg>
